<svg id="LOGOS-LS-baladins" xmlns="http://www.w3.org/2000/svg" width="141.044" height="166.225" viewBox="0 0 141.044 166.225">
  <path id="Path_2020" data-name="Path 2020" d="M154,238.782c-15.877-14.542-40.778-23.912-68.782-23.912-27.805,0-52.553,9.233-68.441,23.6-.372,2.079.092,4.193,2.981,5.07A140.274,140.274,0,0,1,57.786,232.3a6.557,6.557,0,0,1,3.129-2.364,24.834,24.834,0,0,1,4.117-1.177l.306-.066a1.008,1.008,0,0,1,.122-.02c.336-.046.617-.112.881-.173a7.968,7.968,0,0,1,1.248-.209,2.064,2.064,0,0,1,1.106.041,1.584,1.584,0,0,1,1.177.479.585.585,0,0,1,.071.087c.01-.031.01-.061.02-.092.01-.071.02-.148.036-.234.051-.321.127-.785.148-.958a2.071,2.071,0,0,1,.056-.408,3.7,3.7,0,0,1,.082-.494l.015-.087c.025-.163.076-.362.127-.555.025-.1.046-.194.066-.285a1.062,1.062,0,0,1,.082-.245,1.261,1.261,0,0,1,.774-.932,1.3,1.3,0,0,1,.326-.143,1245017028815.352,1245017028815.352,0,0,0,.642-.092,1.5,1.5,0,0,1,.525,0h.005a1.2,1.2,0,0,1,.306.02,1.249,1.249,0,0,1,.815.474,1.212,1.212,0,0,1,.321.525,2.153,2.153,0,0,1,1.376-.479.581.581,0,0,0,.132-.01,5.43,5.43,0,0,1,1.121-.138l.275-.015a.839.839,0,0,1,.163-.031q.061-.015.138-.031a.3.3,0,0,1,.071-.01,1.461,1.461,0,0,1,.632,0h.071l.1-.005a1.244,1.244,0,0,1,.336.015,1.258,1.258,0,0,1,.7.316,1.051,1.051,0,0,1,.234.158,7.7,7.7,0,0,1,2.084-.759.891.891,0,0,1,.2-.025l.087-.02a1.412,1.412,0,0,1,1.7.54,1.256,1.256,0,0,1-.209,1.559.865.865,0,0,1-.1.1,1.253,1.253,0,0,1-.652.943l-.219.117c-.1.051-.163.092-.255.138.127.117.3.26.525.433a3.03,3.03,0,0,1,1.1,2.043c.438-.005.876-.01,1.315-.01,1.523,0,3.032.02,4.54.056v-.01a2.281,2.281,0,0,1,1.8-1.529l.132-.036a1.5,1.5,0,0,1,.3-.061c.968-.107,1.946-.117,2.894-.132a17.258,17.258,0,0,0,3.786-.321,7.62,7.62,0,0,1,1.452-.168,5.288,5.288,0,0,0,.744-.061,1.573,1.573,0,0,1,1.641.774.607.607,0,0,1,.056.061,1.521,1.521,0,0,1,.352.326,1.6,1.6,0,0,1,.311.667,21.972,21.972,0,0,1,4.3-1.386,1.893,1.893,0,0,1,.372-.041,4.752,4.752,0,0,0,.484-.107c.749-.178,2.008-.479,2.665.642a1.571,1.571,0,0,1-.326,1.987,1.606,1.606,0,0,1-.428.377,1.8,1.8,0,0,1-.326.27,1.592,1.592,0,0,1-.082.265c.005.041.01.076.015.112,15.673,2.176,29.889,6.374,41.67,12.066a5.734,5.734,0,0,0,2.42-5.182" transform="translate(-12.967 -111.191)" fill="#149fda"/>
  <path id="Path_2021" data-name="Path 2021" d="M40.806,313.988c-.056-.117.55-.754.581-.785a5.132,5.132,0,0,1-.581.785M44.148,295.6a10.84,10.84,0,0,0-4.239.637,25.712,25.712,0,0,1,.494,3.689h.173c.841-.815,1.916-1.508,2.67-2.354l.087-.031a4.026,4.026,0,0,0,.841-1.829Zm3.628,14.868a10.365,10.365,0,0,1-1.916,2.441,11.4,11.4,0,0,0,1.712-3.022,26.419,26.419,0,0,1-2.441,3.862c-.377.346-.52.927-1.045.958a.631.631,0,0,1-.433.26c-.525.087-.611-.464-1.075-.377-.148-.26-.377.031-.581-.031a3.963,3.963,0,0,1-1.075-.408,4.769,4.769,0,0,0,.637-1.106c.031-.117.29-.724.173-.667a5.617,5.617,0,0,0-.525.377c-.087,0-.29.2-.408.234-.087,0-.056-.55-.148-.52-.117,0-.464.087-.581.031.26-1.508,1.625-2.614,2.293-4.01a6.025,6.025,0,0,0,1.019-3.485c.087-1.218-1.977-1.3-2.848-1.045-.433.927-.087,1.916-.056,2.874l.056,2.15a8.176,8.176,0,0,0-.2,1.106,3.18,3.18,0,0,1-.2.754c-.26.352-.724.173-1.014.377-.26.2-.464.087-.611.2a2.569,2.569,0,0,1-1.045.26,4.579,4.579,0,0,0-.377-1.044c-.117-.29-.234-.408-.234-.55.056-.29-.143-.525-.173-.871l-.087-.321c-.841-3.078-.581-6.186-.55-9.554.173-.117-.031-.2,0-.316a8.391,8.391,0,0,1,.087-1.712,4.534,4.534,0,0,1-.056-1.279,32.532,32.532,0,0,1-.087-3.368c.148.087.2-.148.29-.056a3.573,3.573,0,0,1,.611-.173c.087.087.056.087.173.117l-.031-.346.173.346c.173.056-.031-.234.031-.26.117.087.438.464.581.438.26.173.26.408.525.377l.148.117a11.987,11.987,0,0,1,4.937-1.595c1.773.173,3.979.143,4.7,2a4.317,4.317,0,0,1-.148,3.455,9.457,9.457,0,0,1-1.687,2.089,7.89,7.89,0,0,1-1.712,1.044c.087.2.408.173.581.321a5.849,5.849,0,0,1,3.108,3.888,7.95,7.95,0,0,1,.408,3.516,8.389,8.389,0,0,1-.9,2.517" transform="translate(-22.432 -148.844)" fill="#149fda"/>
  <path id="Path_2022" data-name="Path 2022" d="M74.66,312.131c0-.056-.031-.117-.031-.173a.216.216,0,0,1,.056.173ZM71.205,305.1c.056.2.2.525.408.581a1,1,0,0,0-.408-.581m-.55-9.381-.031-.056v.056c0,.031.031.056.056.087a.116.116,0,0,1-.025-.087m-.754-1.335.346.815v-.056a2.5,2.5,0,0,0-.346-.759m-.087-.234h-.031l.056.087h.031Zm-.469,8.453v-.143l.117.464a3.168,3.168,0,0,0-.117-.321m-.2-1.4a27.251,27.251,0,0,0,2.089,3.776c-.234-.438-1.916-3.572-2.089-3.776m.112.871.031.26-.056-.234c-.117.352-.989,2.96-.989,3.164,0,.087.117.087.173.087-.346,0-.29.408-.408.611l3.195-.377Zm-3.949,9.7v-.173l.087-.117Zm-.056.2-.148.173c.056-.117.117-.234.173-.346Zm13.212-2.206a.165.165,0,0,0-.087.148c0,.087.031.173.031.234a.178.178,0,0,1-.148.173v.2c0-.148-.2-.234-.321-.26-.056.087,0,.234.031.321h-.087c-.087,0-.148-.117-.234-.173a1.315,1.315,0,0,0,0,.347v.031h-.056c-.031,0,0,.117-.031.173a.2.2,0,0,0-.117.173c0,.117.087.2.087.321v.031l-.234.234c.087.173.2.321.29.494h-.031a2.155,2.155,0,0,0-.464-.667c-.117,0-.087.117-.056.173-.148-.087-.234-.29-.433-.29a.052.052,0,0,0,0,.087c0,.143.2.29.234.464-.087-.031-.117-.148-.234-.148l-.26-.2v-.031c-.056,0-.117-.031-.173-.031-.056.031-.087.087-.087.2a.46.46,0,0,0,.056.173l-.148-.056-.056.031-.143.148a1.881,1.881,0,0,0-.377-.234,19.5,19.5,0,0,1-1.452-1.712c-.29-.408-.55-.815-.841-1.218l-.117.056a10.409,10.409,0,0,0,2.527,3.108h-.148a.1.1,0,0,0-.087.031,12.45,12.45,0,0,1-2.441-3.052,13.1,13.1,0,0,1-3.022.352,9.12,9.12,0,0,1-1.8-.148h-.087c-.087,0-.031.26-.031.321a11.708,11.708,0,0,1-.408,1.743.1.1,0,0,1-.087-.031c-.117,0-.117.173-.117.321v.117a.216.216,0,0,1-.031.117v-.031a.41.41,0,0,0,.031-.2.794.794,0,0,1-.056-.26c-.117-.087-.117-.234-.2-.346a.087.087,0,0,1-.031.056c-.056,0-.087-.087-.117-.087h-.031c-.173.031-.087.29-.26.26-.056.031-.031.173-.143.117l-.087.26-.031-.1-.117.031a.171.171,0,0,1-.031-.117l-.117.056c-.031-.031-.031-.2-.087-.2h-.051c-.117.087-.031.346-.2.346l-.031.031v-.173a.123.123,0,0,0-.117-.117c-.056,0-.031.056-.087.117-.031-.087,0-.148-.087-.148-.056,0-.117-.117-.143-.148l-.117.031c0-.056,0-.117-.056-.148l-.087.056c0-.056-.031-.087-.087-.117l-.056.087c0-.031-.031-.056-.056-.087-.056,0-.117.143-.173.2v.031h-.031c-.087,0-.148-.056-.234-.056-.031,0-.056.031-.087.056-.173,0-.173-.26-.321-.26a1.5,1.5,0,0,1-.26-.927,18.586,18.586,0,0,1,.754-4.356l1.1-4.443c.173-.7.408-1.366.611-2.033a15.1,15.1,0,0,1,.958-3.572c.173,0,.148-.173.29-.2l.056-.433a.06.06,0,0,0,.056.056c.031-.173.148-.29.173-.438a.1.1,0,0,0,.087-.031c.117,0,.117-.143.234-.173,0-.031.031-.143.031-.2V294.2c0,.031,0,.056.031.056h.056c.117-.2.29,0,.377-.29,0-.031,0-.031.031-.031s.056.031.117.031c.031,0,.031,0,.031-.031.087,0,.234-.031.173-.143l.031-.056c.087.031.117.148.2.148l.056-.031a.145.145,0,0,1-.056-.117c0-.117.173-.173.117-.321h.056c.031,0,.056-.031.087-.056a5.2,5.2,0,0,1,1.075,1.86l.143-.056a7.373,7.373,0,0,0-.55-1.075l.581.988-.117-.173a.731.731,0,0,0,.173.408v-.056c0-.031-.031-.056-.031-.087l.087.234c.031.031.056.056.056.087l-.056-.143h-.031c-.031.031-.031.056,0,.056a.258.258,0,0,0,.056.148,37.482,37.482,0,0,0,1.335,3.572c-.031.056.056.087.087.148a28.1,28.1,0,0,0,2.731,4.5c.408.55.841,1.075,1.218,1.625,0,.143.173.2.234.321a14.2,14.2,0,0,1,.958,1.712c.234.173.148.525.321.754v.087c0,.352.433.611.581.927a1.794,1.794,0,0,0,.377.724Z" transform="translate(-36.047 -149.688)" fill="#149fda"/>
  <path id="Path_2023" data-name="Path 2023" d="M103.314,305.857l.056-.031c0,.005-.031.005-.056.031m.841,1.192c.056.031-.29.117-.234.087-.056.031-.173,0-.148.117.148.117-.173.26.056.29-.117,0-.433.173-.52.173,0,.056,0,.087.056.117.056,0,.117-.031.173-.031l.031.117c-.056-.056-.117.031-.117.087-.056.087.056.056.087.087h.087c-.173.087-.408.056-.55.2-.056.26.321.173.346.2-.031,0-.056.056-.117.056a.145.145,0,0,0,.117.056h-.031c-.056.031-.117.031-.148.087a.563.563,0,0,1,.056.494l-.056.173a7.22,7.22,0,0,1-1.3.494l-.173.087c-1.86.234-3.8.611-5.574-.117a2.758,2.758,0,0,1-1.218-.494c-.031-.117.117-.173.2-.26h.148c0-.173-.173-.234-.29-.346.087,0,.173.117.229,0-.031-.148-.2-.234-.229-.377-.031-.117.173-.087.143-.234-.087-.087-.321-.117-.464-.2a1.426,1.426,0,0,1-.377-1.452c-.173-.148-.031-.347-.056-.55-.117-.611.148-1.131.056-1.712.087-.26-.087-.464.056-.7a2.182,2.182,0,0,1,.117-1.218c0-.056.7-4.326.667-4.382a1.651,1.651,0,0,1,.148-.754,9.352,9.352,0,0,1,.26-1.743c.148-.841.408-1.712.581-2.527a4.093,4.093,0,0,0,.234-.841.65.65,0,0,1,.408.173c.117-.148,0-.408.229-.464.056.117.148-.056.173.056a.193.193,0,0,1,.2-.056c.321.321.525-.433.871-.031a.781.781,0,0,1,.611-.173.135.135,0,0,0,.148.117c.143-.26.321.2.494,0,.031.056.056.148.117.173H99.8c.031-.056,0-.173.031-.234.087.087.031.29.2.347.056-.031.056-.087.031-.143a.385.385,0,0,1-.056-.173.385.385,0,0,1,.056.173.825.825,0,0,0,.234.2h.087c.087,2.96-1.452,10.017-1.366,13.039.031.031.087,0,.148.031a.555.555,0,0,0-.148.525l.087.056a30.11,30.11,0,0,1,3.658-.087c.031.29.346.056.55.117a.126.126,0,0,0-.117.117c0,.031.031.031.056.056l.031-.031h.087l-.056.031c-.031,0-.056,0-.056.031l.056.087c-.056-.031-.117.056-.117.087,0,.056-.031.117.056.143,0,.031-.321.117-.148.26.148,0,.989-.117,1.162-.117-.087.234-1.248.117-1.192.433a4.211,4.211,0,0,0,1.366.056c-.087.092-.29.036-.29.209" transform="translate(-51.02 -148.789)" fill="#149fda"/>
  <path id="Path_2024" data-name="Path 2024" d="M127.25,312.141c0-.056-.031-.117-.031-.173a.216.216,0,0,1,.056.173Zm-3.455-7.026c.056.2.2.525.408.581a1.022,1.022,0,0,0-.408-.581m-.55-9.38-.031-.056v.056c0,.031.031.056.056.087a.115.115,0,0,1-.025-.087m-.754-1.335.346.815v-.056a2.5,2.5,0,0,0-.346-.759m-.092-.234h-.031l.056.087h.031Zm-.464,8.453v-.143l.117.464a3.168,3.168,0,0,0-.117-.321m-.2-1.4A27.249,27.249,0,0,0,123.821,305c-.229-.438-1.911-3.572-2.089-3.776m.117.871.031.26-.056-.234c-.117.352-.989,2.96-.989,3.164,0,.087.117.087.173.087-.346,0-.29.408-.408.611l3.195-.377Zm-3.949,9.7v-.173l.087-.117Zm-.056.2-.148.173c.056-.117.117-.234.173-.346Zm13.212-2.206a.165.165,0,0,0-.087.148c0,.087.031.173.031.234a.178.178,0,0,1-.148.173v.2c0-.148-.2-.234-.321-.26-.056.087,0,.234.031.321h-.087c-.087,0-.148-.117-.234-.173a1.314,1.314,0,0,0,0,.346v.031h-.056c-.031,0,0,.117-.031.173a.2.2,0,0,0-.117.173c0,.117.087.2.087.321v.03l-.234.234c.087.173.2.321.29.494h-.031a2.155,2.155,0,0,0-.464-.668c-.117,0-.087.117-.056.173-.148-.087-.234-.29-.433-.29a.052.052,0,0,0,0,.087c0,.143.2.29.229.464-.087-.031-.117-.148-.229-.148l-.26-.2v-.031c-.056,0-.117-.031-.173-.031-.056.031-.087.087-.087.2a.461.461,0,0,0,.056.173l-.148-.056-.056.031-.148.148a1.745,1.745,0,0,0-.377-.234,19.5,19.5,0,0,1-1.452-1.712c-.29-.408-.55-.815-.841-1.218l-.117.056a10.409,10.409,0,0,0,2.527,3.108h-.148a.1.1,0,0,0-.087.031,12.452,12.452,0,0,1-2.441-3.052,13.1,13.1,0,0,1-3.022.352,9.124,9.124,0,0,1-1.8-.148h-.087c-.087,0-.031.26-.031.321a11.707,11.707,0,0,1-.408,1.743.1.1,0,0,1-.087-.031c-.117,0-.117.173-.117.321v.117a.216.216,0,0,1-.031.117v-.031a.41.41,0,0,0,.031-.2.794.794,0,0,1-.056-.26c-.117-.087-.117-.234-.2-.346a.087.087,0,0,1-.031.056c-.056,0-.087-.087-.117-.087h-.031c-.173.031-.087.29-.26.26-.056.031-.031.173-.143.117l-.087.26-.031-.087-.117.031a.171.171,0,0,1-.031-.117l-.117.056c-.031-.031-.031-.2-.087-.2h-.056c-.117.087-.031.346-.2.346l-.031.031v-.173a.123.123,0,0,0-.117-.117c-.056,0-.031.056-.087.117-.031-.087,0-.148-.087-.148-.056,0-.117-.117-.143-.148l-.117.031c0-.056,0-.117-.056-.148l-.087.056c0-.056-.031-.087-.087-.117l-.056.087c0-.031-.031-.056-.056-.087-.056,0-.117.143-.173.2v.031H117.2c-.087,0-.148-.056-.234-.056-.031,0-.056.031-.087.056-.173,0-.173-.26-.321-.26a1.5,1.5,0,0,1-.26-.927,18.586,18.586,0,0,1,.754-4.357l1.1-4.443c.173-.7.408-1.366.611-2.033a15.1,15.1,0,0,1,.958-3.572c.173,0,.143-.173.29-.2l.056-.433a.06.06,0,0,0,.056.056c.031-.173.148-.29.173-.438a.1.1,0,0,0,.087-.031c.117,0,.117-.143.229-.173,0-.031.031-.143.031-.2v-.031c0,.031,0,.056.031.056h.056c.117-.2.29,0,.377-.29,0-.031,0-.031.031-.031s.056.031.117.031c.031,0,.031,0,.031-.031.087,0,.234-.031.173-.143l.031-.056c.087.031.117.148.2.148l.056-.031a.145.145,0,0,1-.056-.117c0-.117.173-.173.117-.321h.056c.031,0,.056-.031.087-.056a5.2,5.2,0,0,1,1.075,1.86l.143-.056a7.375,7.375,0,0,0-.55-1.075l.581.988-.117-.173a.731.731,0,0,0,.173.408v-.056c0-.031-.031-.056-.031-.087l.087.234c.031.031.056.056.056.087l-.056-.143h-.031c-.031.031-.031.056,0,.056a.258.258,0,0,0,.056.148,37.465,37.465,0,0,0,1.335,3.572c-.031.056.056.087.087.148a28.477,28.477,0,0,0,2.731,4.5c.408.55.841,1.075,1.218,1.625,0,.143.173.2.234.321a14.185,14.185,0,0,1,.958,1.712c.234.173.143.525.321.754v.087c0,.352.433.612.581.927a1.8,1.8,0,0,0,.377.724Z" transform="translate(-61.836 -149.698)" fill="#149fda"/>
  <path id="Path_2025" data-name="Path 2025" d="M153.159,294.51a21.6,21.6,0,0,0-2.176-.754c-.087.031-.2-.056-.29.031a.542.542,0,0,0-.234-.173,8.507,8.507,0,0,0,.2.927h-.031a62.358,62.358,0,0,1,1.045,9.523,7.25,7.25,0,0,0,2.206-2.527c.2,0,.056-.234.2-.321a6.253,6.253,0,0,0,.958-4.326,3.468,3.468,0,0,0-1.885-2.38m4.382,8.8a24.093,24.093,0,0,1-6.593,6.593c-.26.087-2.089.611-2.293.7-.29-.056-.087-.2-.408-.2,0-.031,0-.056-.031-.056h-.056l.031-.031c-.087-.031-.173-.55-.754-.464.031-.056-.031-.056-.056-.087l.031-.173-.2.026c.056-.117.321-.143.234-.26l-.117.031c.056-.031.056-.056.056-.117,0-.031-.031,0-.056-.031.031,0,.056-.117.148-.117-.031-.03-.031-.03-.031-.056h.031c-.087-.117-.173.056-.234-.056l-.031.031.031-.031a7.871,7.871,0,0,0,.724-.637l-.2.117-.148.087a3.583,3.583,0,0,1,.581-.55h-.031a2.345,2.345,0,0,0-.724.464c.346-.408.958-.785,1.4-1.192-.031-.056-.321.117-.377.087l.29-.148c-.29-.056-.611-.148-.754,0-.148-.148-.2.148-.352,0l-.117-.117.031-.031c0-.056-.087-.031-.117-.031-.031-.143-.26-.26-.117-.346-.056-.52-.52-12.514-.55-13.1a6.677,6.677,0,0,1,.056-1.508v.958c.173-.148,0-.958.087-1.131.031.031.031-.031.056-.031,0-.056-.056-.117-.031-.173l.2-.031c.056.117-.031.26.117.321,0,.031-.031.056,0,.087h.031c.031-.26-.143-.581.173-.754a.1.1,0,0,1,.031-.087c.031.143.26.031.29.173.087-.031.408.056.464-.117l.2-.031c0-.087.841-.2.9-.26.056-.087.173-.056.29-.056a.4.4,0,0,1,.2-.056c.056.031.148,0,.2.031a12.1,12.1,0,0,1,3.806.2,7.587,7.587,0,0,1,3.862,2.757,8.876,8.876,0,0,1,1.248,3.312,10.684,10.684,0,0,1-1.427,6.089m-10.828-8.479-.2-2.41c.031-.087.031.117.056.148l.087.031c0,.031-.173.2-.031.26a11.728,11.728,0,0,0,.173,2.267c-.056-.066.005-.209-.082-.3" transform="translate(-76.653 -148.474)" fill="#149fda"/>
  <path id="Path_2026" data-name="Path 2026" d="M188.561,309.1a.308.308,0,0,0-.26.234.171.171,0,0,0,.031.117c-.173.087-.494.087-.55.321-1.656.408-3.251.9-4.907,1.248-1.712.346-3.572.408-5.253.724a8.4,8.4,0,0,1-2.089.148.928.928,0,0,0,.29-.087.568.568,0,0,0-.55-.234c.117-.056.087-.2.056-.291-.031-.056.031-.087.031-.148l-.056-.26a13.1,13.1,0,0,1,.031-1.86c0-.087.148-.2.056-.29h-.056a.364.364,0,0,0,.2-.2c-.056-.148-.148-.347-.087-.494a11.688,11.688,0,0,1,2.12-.841c.117-.031.2,0,.29-.087-.464-2.731-.143-5.462-.438-8.275l-.056-.031a2.856,2.856,0,0,1-.321.117c.056,1.162.031,2.41.056,3.6a13.066,13.066,0,0,0,.2,1.569c-.464-.408-.29-2.206-.346-2.731l-.031-.29-.031-.525c.087-.667-.056-1.014.056-1.595-.9.26-1.885.321-2.818.55l-.346-.031a.06.06,0,0,0-.056-.056c-.2-.031-.525.143-.637-.087-.087-.087-.2-.143-.29-.234.26-.464-.056-.958,0-1.366a2.223,2.223,0,0,1,.173-1.366c-.031-.173.148-.29.2-.464.087-.52.7-.52,1.075-.724,1.508-.55,3.108-.988,4.616-1.483a19.81,19.81,0,0,1,2.935-.668c.433.2,1.075-.29,1.452.2.2-.031.321.087.464.173l.611-.117a.484.484,0,0,0,.29.26c.087.29,0,.611.29.754.321.056.729.056.871.377.117.581-.611.754-.637,1.279a9.044,9.044,0,0,1-3.134,1.335l-.031.056c.26,2,.408,3.918.581,5.839-.117.143.031.234,0,.377a16.2,16.2,0,0,0,.26,2.38c.667-.056,1.4-.173,2.064-.26.117.031.321-.117.438.031l.55-.056c-.26.087-.581.056-.841.117a7.84,7.84,0,0,0-1.687.321c.26.087.55-.056.785-.031.927-.056,1.972-.2,2.96-.2,0,0-.031.031,0,.031.031.087.148.031.234.056.031.117-.087.321.087.346h.173c-.056.087-.087.2.056.234.234-.056.29.143.525.087.031.117.117.234.148.346-.087.056-.234.031-.234.173a.216.216,0,0,0,.056.173v-.031h.087v.031c-.056-.031-.056.031-.087.056,0,.173.148.26.26.408a.216.216,0,0,1,.29.148c0,.117-.117.321.031.464,0,.056-.148.148,0,.234-.163.117-.107.265-.163.494" transform="translate(-89.523 -149.508)" fill="#149fda"/>
  <path id="Path_2027" data-name="Path 2027" d="M217.68,297.774v-.061l.031.03a6.645,6.645,0,0,1,.234.724,3.392,3.392,0,0,1-.265-.693m6.16,13.88a6.327,6.327,0,0,1-.55,1.656c-.117,0-.2-.056-.29-.031a.107.107,0,0,0-.117.117c-.173,0-.148.087-.173.2a.263.263,0,0,0-.031-.087h-.056c-.031.117-.234.056-.2.2h-.031c-.031,0-.056.031-.087.031v.056c-.2-.031-.087-.29-.321-.321a.1.1,0,0,0-.087-.031l-.117-.031c0,.2-.234.056-.29.2h-.031c-.143,0-.173.117-.173.234-.087-.031-.056-.2-.148-.234-.173,0-.087.117-.087.234,0,.031-.031.056-.056.031a.109.109,0,0,0-.117-.117c-.087,0-.173.056-.234.056a.778.778,0,0,1-.234.117c-.056,0-.321-.2-.408-.234-.031,0-.056.056-.056.117-.056-.173-.29-.173-.316-.377h-.087l-.087.2c-.087-.148-.117-.321-.2-.433,0-.056,0-.056-.056-.056h-.031l-.031.031c-.056,0-.117.056-.087.173a18.681,18.681,0,0,1-2.757-2.466l-1.218-1.483v-.056c0-.087-.173-.173-.229-.26-1.248-1.483-2.466-2.96-3.6-4.5a1.014,1.014,0,0,0,.29.611l-.29-.321c.056,1.335.346,2.67.377,4.036a5.538,5.538,0,0,1-.234,1.712c-.26,0-.148.377-.377.438-.087.26-.173.52-.234.785l-.143.056c0-.031,0-.031-.031-.031a.868.868,0,0,1,.087-.26c0-.056-.056-.087-.117-.087l-.056.087c-.031-.031-.087-.056-.087-.031-.173,0-.087.464-.321.525l-.031.143a.217.217,0,0,0-.148-.056,3.248,3.248,0,0,0-.785.377c0,.031-.031.056-.056.087-.025,0-.087-.031-.056-.087-.087,0-.173-.031-.26-.031a.158.158,0,0,0-.143.087c-.087-.031-.148-.117-.234-.148a.165.165,0,0,0-.087.148c-.148.031-.031-.321-.173-.321h-.056l-.031.117c-.087-.056-.087-.234-.2-.173a2.808,2.808,0,0,1-.056-.989c0-.143-.031-.26-.031-.408-.2-2.267-.494-4.56-.494-6.853,0-1.508.087-3.022.173-4.5.173.031.173-.7.321-.9.173-.031.117-.229.148-.321v-.056c0-.117.087-.234.056-.346.031-.031.056-.056.056-.087l-.031-.031c.117-.26.377-.433.494-.7-.031-.117.173-.087.148-.234v-.087c0-.117.117-.2.173-.26.056.031.031.117.117.087l.031-.056c0-.087-.087-.173-.087-.26v-.031c.056.056.056.234.173.234l.031-.056h.056c.148,0,.117.2.26.2l.087.031v-.117c0-.056-.056-.117-.087-.173.087.087.056.26.234.321a.1.1,0,0,0-.031-.087c0-.056-.056-.087-.031-.173l.26.346v-.056c.408.173.611.581.871.9.031.26.377.234.55.321a23.225,23.225,0,0,1,3.312,3.6c1.483,1.8,2.935,3.628,4.53,5.345.087.031.031-.148.056-.2a7.355,7.355,0,0,0-.55-.724c-.611-.667-1.223-1.366-1.773-2.064a2.235,2.235,0,0,0-.346-.352c-.9-1.1-1.773-2.206-2.67-3.281l-.148-.173a10.431,10.431,0,0,0-.815-.871l-.352-.352.321.321c.29.29.581.611.871.927,1.075,1.218,2.064,2.527,3.108,3.776.433.52,1.248,1.422,1.8,2.064.2.234.408.438.611.637l.056-.148c-.056-.958-.087-1.916-.2-2.874-.2,0-.173-.2-.173-.321l-.143-1.6-.087-.056a23.694,23.694,0,0,0-.871-3.949v-.087a.951.951,0,0,0-.056-.26c.056-.031.087-.087.056-.117a.95.95,0,0,0-.056-.26c.056-.031.087.056.117.087a.925.925,0,0,0,0-.29c0-.377.352-.26.611-.26a.644.644,0,0,0,.377-.087.269.269,0,0,0,.2.087c.2,0,.377-.117.581-.117.087.087.143.031.234,0,.031,0,.056.031.087.056a.869.869,0,0,1,.352-.117c.29,0,.2.2.347.2,0-.173.173-.148.26-.148a.256.256,0,0,0,.2-.056c.26.056.408.346.55.55a13.38,13.38,0,0,1,1.743,5.314.341.341,0,0,0-.087.234c0,.173.056.346.056.52,0,.464.229,1.569.26,2.089a31.431,31.431,0,0,1,.377,4.357c-.005.775-.092,1.534-.148,2.313" transform="translate(-106.448 -151.101)" fill="#149fda"/>
  <path id="Path_2028" data-name="Path 2028" d="M251.065,290.67c.576.041,2.166-.576,2.324-.306-.138.092-.275.178-.4.27.122-.041.076.015.143,0-.484.2-.229.285-.668.5-.555.357-1.141.515-1.595.871-.092.127.112.041.2.056.056-.015.158-.056.1.031-.076.066-.153.132-.224.2.683-.031.107.1.841-.015-1.116.713-.78.341-1.768,1,.01.056-.031.127.061.143.968-.275.066.1,1.126-.214a15.276,15.276,0,0,1-1.457.744c.133-.036.26-.076.387-.117a8.225,8.225,0,0,1,1.534-.4c-1.223.657-1.3.734-2.451,1.289-.586.459-1.284.851-1.845,1.264-3.169,2.313,2.7,6.68,3.949,7.617,1.116.836,5.019,5.936-1.676,8.7a33.238,33.238,0,0,1-5.539,1.549,26.924,26.924,0,0,1-2.894.5c-.494.214-.713-.2-1.172-.061.025-.076.051-.153.071-.229.26-.27.443-.555.173-.637.148-.1-.036-.056-.015-.127.015-.01.036-.015.051-.025.112-.143-.234-.031.127-.214.133-.27-.647-.01-.306-.357-.026-.025.362-.453.183-.255.54-.586-3.424-.122-.55-.9a22.494,22.494,0,0,0,4.586-1.243c.571-.306,4.26-1.233,3.73-3.342-.586-2.084-5.009-3.613-6.96-7.908-.948-1.967.357-6.226,9.936-8.382" transform="translate(-121.878 -148.185)" fill="#149fda"/>
  <path id="Path_2029" data-name="Path 2029" d="M100.817,261.983c-.428-.031-1.625.433-1.748.229.107-.066.2-.138.3-.2-.092.031-.056-.01-.107,0,.367-.148.173-.214.5-.377.418-.27.861-.387,1.2-.652.066-.1-.087-.031-.148-.041-.041.01-.117.041-.076-.02.056-.051.112-.1.168-.148-.515.025-.082-.076-.632.01.836-.535.586-.26,1.33-.749-.005-.046.025-.1-.046-.107-.729.2-.051-.076-.846.163a11.232,11.232,0,0,1,1.1-.561c-.1.031-.194.056-.3.087a5.961,5.961,0,0,1-1.157.3c.922-.494.978-.55,1.845-.968.438-.341.963-.637,1.386-.948,2.38-1.743-2.028-5.024-2.971-5.727-.841-.627-3.771-4.464,1.264-6.542a25.583,25.583,0,0,1,4.163-1.167,20.705,20.705,0,0,1,2.176-.377c.372-.163.535.158.881.051-.02.056-.036.112-.051.168-.194.2-.336.418-.132.479-.112.076.025.041.01.1a.1.1,0,0,1-.041.02c-.082.107.173.02-.1.163-.1.2.484.01.229.265.02.02-.275.341-.138.194-.408.438,2.573.092.413.673a17.032,17.032,0,0,0-3.45.932c-.428.229-3.2.927-2.8,2.512.443,1.564,3.765,2.716,5.233,5.946.729,1.478-.255,4.683-7.46,6.3" transform="translate(-53.353 -125.546)" fill="#819baf"/>
  <path id="Path_2030" data-name="Path 2030" d="M186.328,244.109c.448.031,1.7-.448,1.824-.24-.107.071-.214.143-.316.214.1-.031.061.01.112,0-.382.158-.178.224-.525.392-.433.28-.9.4-1.253.683-.071.1.087.036.153.046.046-.01.127-.046.082.02-.061.051-.122.107-.178.158.535-.025.087.076.662-.01-.871.56-.611.27-1.386.785.005.046-.025.1.051.112.759-.214.051.076.882-.168a11.694,11.694,0,0,1-1.146.586l.306-.092a6.509,6.509,0,0,1,1.208-.316c-.963.515-1.024.571-1.926,1.009-.459.362-1.009.667-1.447.988-2.487,1.819,2.12,5.243,3.1,5.977.876.657,3.939,4.662-1.315,6.833a26.3,26.3,0,0,1-4.346,1.218,20.373,20.373,0,0,1-2.272.392c-.387.168-.56-.163-.917-.051.02-.061.041-.117.056-.178.2-.214.352-.438.138-.5.117-.076-.031-.046-.01-.1l.041-.026c.087-.112-.178-.02.1-.168.107-.214-.51-.01-.239-.28-.02-.02.285-.357.143-.2.423-.459-2.69-.092-.433-.7a17.311,17.311,0,0,0,3.6-.978c.448-.24,3.343-.963,2.93-2.624-.464-1.636-3.934-2.838-5.462-6.206-.754-1.539.27-4.881,7.791-6.573" transform="translate(-91.432 -125.388)" fill="#819baf"/>
  <path id="Path_2031" data-name="Path 2031" d="M126.866,261.873c-.02.061.1.041.041.117a1.929,1.929,0,0,1-.367.1c-.041.02-.02.081-.041.117.041.082.122.02.183.041.082-.041.183.041.285,0,.082.158-.122.138-.2.158-.082-.02,0,.061-.082.082.02.061.1,0,.163.041.02.076-.122.138-.041.2.02.178-.224.117-.245.255a.149.149,0,0,0-.143.122c.061.041.143.041.122.117-.122,0-.163.138-.245.178l-.02.02.143.061c-.02.02-.082.061-.1,0-.082.061-.224-.02-.285.041.041.1.122.041.2.1,0,.02-.143.041-.082.138-.082-.02-.245-.061-.306.061-.02.178-.285-.041-.352.138l.082.061a5.181,5.181,0,0,0-.739.138,3.051,3.051,0,0,1-.861-.02c-.245-.1-1.457-.611-2.048-.907-.306-.219-.617-.418-.922-.652a5.592,5.592,0,0,1-1.946-2.889c-.82-1.7.061-5.09.657-6.023a10.567,10.567,0,0,1,4.015-3.424,3.6,3.6,0,0,1,1.437.122c.041.1.122.041.2.1a.689.689,0,0,0,.1.158h.061c-.02.041-.02.082-.061.1.061.117.367.3.448.4a.268.268,0,0,0,.041.239c.1-.041.1.061.163.1-.02.1-.1.24,0,.316l.061.02c-.02.418-.494.459-.78.734-.265.316-.6.611-.881.932a15.28,15.28,0,0,0-2.028,2.95,3.814,3.814,0,0,0-.1,2.7c-.041.2.163.3.143.474a.417.417,0,0,1,.143.275c.489.892.535.851,1.437,1.187a5.692,5.692,0,0,0,1.783.117,5.942,5.942,0,0,1,1.457-.178c.02.056-.082.056-.082.117a.464.464,0,0,0-.143.336l.061.061c-.041.02-.041.041-.061.082a3.62,3.62,0,0,0,.637.138l.041.02a5.908,5.908,0,0,0-.948.138" transform="translate(-63.026 -128.524)" fill="#819baf"/>
  <path id="Path_2032" data-name="Path 2032" d="M136.956,255.106h-.031c-.163-.224-.357-.418-.51-.657-.046-.031-.015-.132-.076-.092-.209-.163-.357-.4-.581-.5a9.037,9.037,0,0,0-2.2,3.032h-.015c.015.122-.092.194-.076.326a.73.73,0,0,0,.224.494,3.34,3.34,0,0,0,1.523.836,3.953,3.953,0,0,0,1.508-1.045,2.205,2.205,0,0,0,.326-1.941c-.005-.168-.112-.3-.1-.448m2.522,1.748c.092.178-.015.448,0,.673-.076.194-.046.4-.133.55a3.2,3.2,0,0,1-.51,1.269,2.045,2.045,0,0,1-.479.718,4.5,4.5,0,0,1-.581.494h-.015c-.132.076-.255.255-.433.255-.4.107-.718.688-1.208.7-.031-.076-.076-.015-.132-.015-.076,0-.061-.133-.163-.1.015-.076-.071-.061-.107-.107-.117,0-.209.107-.357.031-.255-.046-.433.148-.642.24.076-.076.209-.122.285-.209-.224,0-.433.194-.642.163.015-.107-.163-.224-.015-.331-.117-.071-.27.076-.372.061.076-.046-.015-.107,0-.163,0-.209.209-.341.148-.55.046-.031.031-.076.031-.107a.631.631,0,0,1-.24,0c-.031-.071.061-.132.092-.194a1.35,1.35,0,0,0-.357.031c0-.255.326-.433.4-.657a.972.972,0,0,0-.657.092,2.981,2.981,0,0,1-.882-.178c-.031.061-.092.015-.117.031-.076-.046-.178-.148-.27-.148a.327.327,0,0,0-.224-.194c.061-.117-.107-.107-.117-.194a3.62,3.62,0,0,1-.239-.326c.031-.132-.117-.194-.132-.316a3.837,3.837,0,0,1-.076-1l-.046-.031a5.04,5.04,0,0,1,1.36-3.164,5.367,5.367,0,0,0-1.3,2.864l.015.015a5.27,5.27,0,0,1,1.192-2.522,6.874,6.874,0,0,1,.9-1,2.065,2.065,0,0,1,.255-.27c.209-.209.718-.734.82-.851-.061-.092.015-.239-.076-.316.015-.031.076.061.107-.015-.061-.133.117-.24-.046-.357a.126.126,0,0,0,.178-.071c-.046-.076.061-.046.015-.092.046-.107.1-.224.209-.224-.015-.117.163,0,.122-.117.015,0,.031,0,.046.031.046-.031,0-.061,0-.076.046-.046.132.015.148-.061a1.016,1.016,0,0,1,.525.092l.061-.015c0,.015.031.031.046.031l.076-.015v.015h.117l-.092.031c.209.107.418.209.611.316h.117c-.015.031.031.061.061.076a.145.145,0,0,1,.194.117,5.919,5.919,0,0,1,1.09.912c-.031.117.107.031.076.132a6.513,6.513,0,0,1,1.014,1.794c-.046.117.061.133.071.224a10.911,10.911,0,0,1,.326,1.9c-.066.026-.036.071-.051.133" transform="translate(-69.188 -128.967)" fill="#819baf"/>
  <path id="Path_2033" data-name="Path 2033" d="M158.636,264.432a.075.075,0,0,0-.076.076c-.076,0-.153,0-.214-.153a.159.159,0,0,0-.1.194v.041a.063.063,0,0,0-.02-.041c-.036-.036-.153-.036-.209-.036v.153c0-.153-.076-.153-.153-.229-.076.076,0,.153,0,.229-.076.076-.076.076,0,.076-.076.076-.153,0-.229-.076-.076.076,0,.076,0,.153a.422.422,0,0,0-.387-.229c-.076.076.076.229-.076.229-.076-.153-.153-.076-.306-.229v-.076a.075.075,0,0,0-.076.076v-.076c-.153,0-.076.153-.076.229-.076-.076,0-.229-.153-.229s-.387.229-.54,0h-.076c-.311-.229-.4-.229-.54-.617a1.43,1.43,0,0,1-.153-.617c-.153,0-.153.153-.311.153l-.459.153a5.962,5.962,0,0,1-2.767.153,4.719,4.719,0,0,0-.922-.382c-.153-.153-.382-.306-.459-.535a2.372,2.372,0,0,1-.846-1.462c-.153-.693,0-1.3-.153-1.921-.076-.846,0-4.688,0-4.993a13.283,13.283,0,0,1,.617-2.537.305.305,0,0,1,.153.306l.153-.306-.076.306c.153-.229.382-.464.54-.693.076,0,.153.153.153.229l.076.387c.153-.076.076-.306.306-.306v-.076c.153.076.153,0,.229-.076a1.337,1.337,0,0,1,.54.076l.229-.153a3.9,3.9,0,0,1-.25,2.15c-.306,1.462-.29,6.532.866,7.22.6.367,1.4.173,2.074.214a22.954,22.954,0,0,1-.306-2.746c0,.076.285,2.594.306,2.767h.076c-.076-.387-.306-4.458-.306-5.992a22.048,22.048,0,0,1,.306-2.227c.229-.153,0-.382.076-.54v-.153c.153.076.153-.153.306-.132.076-.153.576.112.729-.02h.02v.02l-.02-.02a.1.1,0,0,1,.036.076c.153-.076.229-.153.387-.076,0,0,0,.076.076,0a.106.106,0,0,1,0-.153c.153.076.229.229.311.306.153.076.153.229.306.306v.459c.076,1.615.54,8.147.769,9.07.076.617,0,.234.076.846a1.415,1.415,0,0,1,.153.54,2.1,2.1,0,0,0,.459.922v.076Z" transform="translate(-78.023 -129.167)" fill="#819baf"/>
  <path id="Path_2034" data-name="Path 2034" d="M171.445,246.7v-.02l.122-.02v.02Zm-1.824,11.393v.061c.041-.02.061-.061,0-.061m-.061-11.006c.061.02.1-.02.163-.041-.061,0-.143,0-.163.041m2.828-2.436c.143.041-.061.387.2.326-.02.041-.061.082-.041.143.122.163-.143.224-.224.346,0,.061.041.122.02.183a3.377,3.377,0,0,1-.861.448l.061.02c-.183.143-.469.183-.637.413a1.242,1.242,0,0,1-.555.163,4.678,4.678,0,0,0-.55.188c-.02.02.02.041.041.041l.143-.02v.02c.2-.02,1.106-.183,1.335-.2a9.911,9.911,0,0,0-1.62.392l1.417-.265c-.387.1-1.478.326-1.865.387.1.7.285,1.432.346,2.171a5.527,5.527,0,0,0,.1,1.167l.02,2.4c.122.739.285,3.378.326,4.178.061.041.041.1.02.183,0,.02,0,.02-.02.02v0l.02-.02a.063.063,0,0,0-.041-.02c-.143.143-.02.408-.163.535a.343.343,0,0,1-.143.306l-.163.061c0-.02.02-.061-.02-.082H169.5c-.1.1-.02.346-.224.367l-.1.163V258.6a.15.15,0,0,1-.163-.082c-.163.082-.02.494-.265.387-.02-.061-.061-.061-.1-.122-.061,0-.061.061-.1.1l-.061-.061-.041.02c.041.02.02.041.02.061l-.1.02v.061c-.061-.061-.122-.02-.2-.041.061.2-.183.122-.163.311-.02.02-.061.041-.081.02-.1.041-.122.718-.143.841a1.671,1.671,0,0,1-.245-.759c-.02-.122-.183,0-.163-.122-.061-.143-.245.02-.245-.163-.041-.061-.1,0-.163,0-.02.2-.224,0-.285.163a11.29,11.29,0,0,1-.413-1.253l-.1-6.761c-.061-.352-.224-.678-.285-1.024.02-.041.082,0,.1-.041a.518.518,0,0,0-.061-.285c-.082.061.041.122-.061.143v.082c-.041-.082-.122-.245.061-.265l-.2-.637a.112.112,0,0,0,.061-.143.512.512,0,0,1-.122-.285l-.082-1.31c-.041-.02-.061-.061-.081,0,.041.326.02.78.081,1.126a6.007,6.007,0,0,0,.1.82h.041l.02.367a3.969,3.969,0,0,1-.183-.963l-.041-.041c-.061-.494-.041-.861-.122-1.33a9.226,9.226,0,0,0-1.722-.245,12,12,0,0,0-2.354-.245l-.02-.041c.082-.02.224,0,.265-.122-.061-.082.041-.122.061-.183l-.02-.326a5.929,5.929,0,0,0,.367-.637c.061-.02.122,0,.143-.082a.427.427,0,0,0-.082-.122c.02-.041.02-.224.163-.163l.041-.061-.041-.041h-.041c.122-.061.143-.1.224-.224l-.02-.02c.1-.02.285-.041.245-.143-.1-.082-.245-.041-.367-.041.082-.311.555-.372.881-.474,2.278-.245,4.734.041,6.889-.494.7-.163,1.4-.082,2.089-.2-.041.041,0,.1.02.143a.272.272,0,0,0-.1.061c0,.041,0,.082.041.082h.163c.02,0-.02.041.02.082a.258.258,0,0,1,.122-.02c-.122.143.1.183.143.245h.143c-.056.178-.464.219-.239.489" transform="translate(-83.897 -125.268)" fill="#819baf"/>
  <path id="Path_2035" data-name="Path 2035" d="M126.43,240.587l.02-.01c-.005,0-.01,0-.02.01m.275.392c.02.01-.1.036-.076.031-.02.01-.056,0-.046.041.046.036-.056.087.02.092-.036,0-.143.056-.173.056,0,.02,0,.031.02.041s.041-.01.056-.01l.01.036c-.02-.02-.036.01-.036.031-.02.025.02.02.025.025h.031c-.056.031-.132.02-.178.066-.02.087.1.056.112.066-.01,0-.02.02-.036.02a.052.052,0,0,0,.036.02h-.01c-.02.01-.041.01-.046.026a.2.2,0,0,1,.02.163l-.02.056a2.553,2.553,0,0,1-.428.163l-.056.031a3.6,3.6,0,0,1-1.819-.036.9.9,0,0,1-.4-.163c-.01-.036.036-.056.066-.087h.046c0-.056-.056-.076-.1-.112.025,0,.056.041.076,0-.01-.046-.066-.076-.076-.122s.056-.025.046-.076c-.031-.031-.1-.036-.153-.066a.455.455,0,0,1-.122-.474c-.056-.046-.01-.112-.02-.178-.041-.2.046-.372.02-.56.031-.087-.031-.153.02-.229a.714.714,0,0,1,.041-.4c0-.02.229-1.411.219-1.432a.552.552,0,0,1,.046-.245,2.716,2.716,0,0,1,.087-.566c.046-.275.132-.561.189-.825a1.558,1.558,0,0,0,.076-.275c.046.01.107.015.132.056.036-.046,0-.132.076-.153.02.041.051-.015.056.02a.06.06,0,0,1,.066-.02c.1.107.168-.143.285-.01a.242.242,0,0,1,.2-.056.045.045,0,0,0,.046.036c.046-.082.107.066.163,0,.01.02.02.051.041.056h.046c.01-.02,0-.056.01-.076.031.031.01.1.066.117a.03.03,0,0,0,.01-.046.126.126,0,0,1-.02-.056.126.126,0,0,1,.02.056.327.327,0,0,0,.076.066h.031c.031.963-.474,3.271-.443,4.255.01.01.031,0,.046.01a.178.178,0,0,0-.046.168l.031.02a10.29,10.29,0,0,1,1.192-.031c.01.1.112.02.178.036a.039.039,0,0,0-.036.041c0,.01.01.01.02.02l.01-.01h.031l-.02.01c-.01,0-.02,0-.02.01l.02.025c-.02-.01-.036.02-.036.031s-.01.036.02.046c0,.01-.107.041-.046.087.046,0,.321-.036.377-.036-.031.076-.408.036-.387.143a1.287,1.287,0,0,0,.443.02c-.046.015-.112-.005-.112.056" transform="translate(-65.351 -121.515)" fill="#819baf"/>
  <path id="Path_2036" data-name="Path 2036" d="M133.374,238.717l.087-.01v.01Zm-.78,1.8v.178h.02c-.02-.071,0-.112-.02-.178m-.005.255c-.01.02.01.02.031.02,0-.01,0-.031.01-.036Zm-.061-2.262h-.01v.036h.01Zm0-.076h-.01v.036h.01Zm0-.1h-.01v.036h.01Zm2.344-.749.02.01c-.219.046-.362.153-.586.189a3.568,3.568,0,0,1-.484.239,4.187,4.187,0,0,1-1.192.265l-.02.02a2.2,2.2,0,0,0,0,.448,2.564,2.564,0,0,1,.627-.02,2.509,2.509,0,0,0-.637.056c0,.01.01.015.02.025a8.226,8.226,0,0,1,.938-.02l.219.046c.01.02.031.066.066.046.02.046-.01.107.031.133l.056-.01c0,.01-.036.036,0,.066l.046.02a.148.148,0,0,0-.02.132c.02.056.087-.01.1.031-.031.02-.1.041-.066.087.01.056.1.051.066.112.01.031-.01.056.031.066h.031c-.01.031-.031.066-.02.092.01.01.02.01.031.02-.02.046-.1.1-.066.153-.01.036-.036.031-.046.056l.076.087-.153.112c.02.02,0,.036-.02.046.046.036.122.02.163.051,0,.025-.036.036-.056.046-.229-.01-.367.189-.6.148-.239.02-.494,0-.729.02l-.025.02.01.321c.387.01.739.153,1.126.188-.387-.01-.729-.168-1.126-.143-.02.01-.01.041-.01.046a3.591,3.591,0,0,1,1.039.239c.076-.031.087.046.112.076,0,.036-.031.076.01.107a.061.061,0,0,0,.041-.01l-.056.056c.025.02.071,0,.087.041.056-.01.056.046.087.071-.056.1.112.076.056.173-.041.056-.112,0-.153.046-.036.02,0,.046-.015.066l.015-.01c-.025.1.076.234-.066.3.036.056-.076.143.025.189.02.046-.036.076-.066.1-.02-.01-.041-.031-.056-.01s-.031.036-.02.056c.031.02.076.046.036.087a.239.239,0,0,1,.087.046c-.132.066-.311,0-.443.076a2.638,2.638,0,0,1-.713-.112,2.588,2.588,0,0,1-1.182-.245l.01-.02c-.01-.087-.122-.112-.122-.2-.066-.01-.02-.1-.1-.107a.071.071,0,0,0-.087.02.078.078,0,0,0-.046-.066c-.041.01-.076,0-.087-.036.01-.02-.01-.041-.031-.051s-.031.01-.041.02l.01.041c-.076-.229,0-.474-.066-.718.01-.769-.025-1.518-.02-2.283,0-.178.056-.372.076-.561-.01-.046-.082-.031-.082-.1-.031-.056.046-.056.056-.1a.975.975,0,0,1,.087-.382c.01-.076-.046-.173.025-.234-.066-.122.153-.178.01-.285.046-.046-.076-.087.01-.132.255-.275.673-.173.994-.245a10.48,10.48,0,0,1,1.442-.153v-.02l.056.01a.674.674,0,0,1,.153-.051c.056.02.112-.031.173-.031.01.02-.046.066,0,.087a2.713,2.713,0,0,1,.606-.056c.02.02.066,0,.087.02a.148.148,0,0,0-.01.122.107.107,0,0,0,.076.026c0,.01-.01.01-.01.031.056.02.132-.02.209,0-.02.056-.046.066-.066.133a.1.1,0,0,0-.01.1c.025.066.1.01.143.02a.142.142,0,0,0,.046.066c-.01.01-.046.046-.036.076.031.01-.01.036.01.056l.046.031-.02.02.041.01c-.01.031-.107.087-.02.122-.02,0-.031.02-.046.031,0,.036.046.046.066.076-.1.005-.1.117-.158.158" transform="translate(-68.999 -121.775)" fill="#819baf"/>
  <path id="Path_2037" data-name="Path 2037" d="M141.587,235.852c.158.01.6-.158.642-.082-.041.025-.076.051-.112.076.036-.01.02.005.041,0-.132.056-.061.076-.183.138-.153.1-.316.143-.443.239-.025.036.031.01.056.015s.046-.015.026.01-.041.036-.061.056c.189-.01.031.025.234-.005-.311.2-.214.1-.489.275.005.015-.01.036.015.036.27-.076.02.026.311-.061a3.334,3.334,0,0,1-.4.2l.107-.031a2.01,2.01,0,0,1,.423-.112c-.341.183-.362.2-.678.357-.163.127-.357.234-.509.346-.876.642.744,1.845,1.09,2.1a1.336,1.336,0,0,1-.464,2.4,9.027,9.027,0,0,1-1.529.428c-.336.046-.545.132-.8.138-.138.061-.2-.056-.326-.02a.283.283,0,0,0,.02-.061c.071-.071.122-.153.051-.173.041-.025-.01-.015-.005-.036.005-.005.01-.005.015-.01.031-.041-.066-.01.036-.061.036-.076-.178-.005-.082-.1-.01-.01.1-.127.051-.071.148-.163-.948-.036-.153-.25a6.37,6.37,0,0,0,1.269-.341c.158-.087,1.177-.341,1.029-.922-.163-.576-1.386-1-1.926-2.186-.265-.535.1-1.712,2.746-2.308" transform="translate(-72.565 -121.433)" fill="#819baf"/>
  <path id="Path_2038" data-name="Path 2038" d="M59.375,54.945h0c.036-.015.066-.036.1-.051a.95.95,0,0,0-.1.051m93.092,45.914a23.138,23.138,0,0,0-16.412-18.1,45.745,45.745,0,0,0-17.125-3.5,73.207,73.207,0,0,1-5.462-6.252c1.585-.769,4.846-2.349,6.874-3.455a27.143,27.143,0,0,0,5.1-3.067,53.546,53.546,0,0,1,6.135-3.985l1.442.041,4.581-3.664a2.538,2.538,0,0,0,1.279-2.155,41.9,41.9,0,0,0-.112-8.229c-.408-4.041-3.327-10.614-4.759-11.872a12.54,12.54,0,0,0-13.391-2.578c-.056.02-3.974,3.852-4.469,7.291-.107.107.433,1.794.331,1.9-1.977,1.936-3.129,3.261-5.09,5.263-1.671.372-1.646,1.957-2.115,2.38a3.143,3.143,0,0,0-2.685-.571c-.107.031-.306-1.187-.352-1.08-1.8.209-5.034,4.316-5.885,4.683L71.079,57.2l-2.858-1.834c-.815-.413-1.559.708-2.42,1.014-.107-.092-.718-1.36-.836-1.432-.55-.352-.245.28-1.279.158-.041-.132-.882-1.61-.9-1.7-.061-.856-.861.056-1.5-.53-.056-.051.611-.876.55-.927-.041-.138-.041-.785-.087-.9a38.776,38.776,0,0,1-2.374-11.322,4.291,4.291,0,0,0,.749-2.145c.642-7.347-.6-10.817-2.853-12.035-.046-.025-.1-.061-.163-.1a11.513,11.513,0,0,0-5.09-1.748A19.415,19.415,0,0,0,41,26.05c-3.23,1.941-5.814,5.727-7.674,11.256-.031.1-.061.194-.087.3-.581,2.456,1.1,7.052,2.537,9.849.25.484.667-.082.994.219.815,2.023,1.753,5.549,2.578,8.412.973,3.383,1.788,6.711,2.354,7.949.29.632,1.045.489,15.729,19.158a8.827,8.827,0,0,1,1.87,5.824c-.168,4.117-.387,25.416,11.959,40.447a3.508,3.508,0,0,0,.453.459,4,4,0,0,0,2.772,1.141,4.5,4.5,0,0,0,2.1-.55,3.764,3.764,0,0,0,1.452-1.345c4.851-2.746,13.385-9.584,20.8-16.7a65.86,65.86,0,0,0,6.262-7.368c2.522-3.271,5.111-6.644,7.974-8.647,8.311,1.717,15.22,4.163,18.639,6.619,5.936,4.26,11.872,9.3,13.722,10.9a22.458,22.458,0,0,0,3.037,3.541c1.549.953,1.564.729,2.094-.046a15.868,15.868,0,0,0,1.972-4.234,34.913,34.913,0,0,0-.066-12.366" transform="translate(-21.038 -17.404)" fill="#226087"/>
  <path id="Path_2039" data-name="Path 2039" d="M190.967,154.291a13.748,13.748,0,0,0-2.247,1.029c4.606.9,15.546,3.353,21.242,7.444,7.342,5.269,14.563,11.612,14.563,11.612.535-11.954-1.141-31.331-33.558-20.086" transform="translate(-97.355 -79.819)" fill="#741616"/>
  <path id="Path_2040" data-name="Path 2040" d="M64.386,85.369a12.154,12.154,0,0,1,2.583,8.03c-.336,8.163.983,25.742,11.2,38.184.183.092.382.632,1.177.214.428-.224.071-.611.7-.938,4.01-2.064,12.769-8.861,20.789-16.56,6.013-5.773,10.588-15.551,18.144-18.175,32.417-11.245,34.088,8.132,33.563,20.086.117.912,1.029.586,1.029.586s4.377-20.906-13.564-25.619a36.566,36.566,0,0,0-17.8-4.336c-2.757-1.488-9.661-10.3-9.661-10.3s4.346-1.911,9.248-4.581c4.387-2.39,7.016-5.87,13.273-9.263a11.68,11.68,0,0,0,1.529-.9l2.369-3.7S139,50.792,134.6,46.181c-3.052-3.2-6.048-4.142-6.9-3.286s-1.146,2.527-3.052,4.285c.066.265-4.346,4-5.579,6.227-.667,1.2-.815,1.478-2.313,1.61a3.292,3.292,0,0,0-1.146,1.452c.025.453.27,1.045,0,1.432-.55-.112-.815-1.055-1.977-.932-.326.189-1.213.306-1.437.887-.275.708-.632,1.437-.881,2.033a.631.631,0,0,1-.642.382,11.135,11.135,0,0,0-5.08,1.157L74.8,64.891l-3.765-1.906-2.318.882L67.779,62.4a4.352,4.352,0,0,0-2.7-.153c-.234.234-1.447-2.7-1.447-3.546,0-.168-2.369.239-2.583.031C60.86,58.292,62.755,57.6,62.5,57a49.864,49.864,0,0,1-3.027-15.062l-.352-2.171s-.846-6.007-2.084-6.812c-2.094-1.162-11.327-1.829-14.746,7.658-1.172,3.256,1.162,9.3,1.7,8.759,1.768,3.546,4.086,13.584,5.233,16.081.642,1.386,10.211,13.625,15.164,19.918" transform="translate(-25.375 -21.648)" fill="#c32126"/>
  <path id="Path_2041" data-name="Path 2041" d="M215.785,70.325l3.46-2.624a1.407,1.407,0,0,0,.535-.876,24.567,24.567,0,0,0,.25-6.328c-.387-3.883-2.318-8.575-4.377-10.481-4.693-4.357-7.867-2.349-8.718-1.5s-3.317,4.759-2.762,6.018c3.174-.107,6.93-.087,8.367,2.848,1.243,2.543,1.595,6.894,1.85,9.809.1,1.177.036,2.023.163,2.685a.779.779,0,0,0,1.233.448" transform="translate(-104.894 -29.008)" fill="#741616"/>
  <path id="Path_2042" data-name="Path 2042" d="M58.322,40.9h0a1.429,1.429,0,0,0,.907-1.213c.189-2.15.555-7.485-.377-7.979a8.941,8.941,0,0,0-3.878-1.437,15.879,15.879,0,0,0-9.075,1.88c-2.644,1.59-4.723,5-6.227,9.457-.469,1.982,2.619,7.276,3.164,6.731s5.62-11.108,15.485-7.439" transform="translate(-24.229 -20.628)" fill="#741616"/>
  <path id="Path_2043" data-name="Path 2043" d="M44.67,52.349a1.36,1.36,0,1,1-1.615.112,1.165,1.165,0,0,1,1.615-.112" transform="translate(-25.644 -31.347)" fill="#f6b01a"/>
  <path id="Path_2044" data-name="Path 2044" d="M228.542,84.489c.3.438.01,1.152-.642,1.585s-1.416.438-1.712-.005-.01-1.152.642-1.585,1.417-.438,1.712.005" transform="translate(-115.675 -47.081)" fill="#f6b01a"/>
  <path id="Path_2045" data-name="Path 2045" d="M96.6,147.12c.265.713-.408,1.62-1.5,2.023s-2.2.158-2.461-.555.408-1.62,1.5-2.023,2.2-.153,2.461.555" transform="translate(-50.2 -77.595)" fill="#f6b01a"/>
  <path id="Path_2046" data-name="Path 2046" d="M98.21,166.4c.326.688-.265,1.646-1.32,2.15s-2.171.346-2.5-.336.265-1.651,1.32-2.15,2.171-.352,2.5.336" transform="translate(-51.047 -87.109)" fill="#f6b01a"/>
  <path id="Path_2047" data-name="Path 2047" d="M101.377,183.995c.418.637-.036,1.671-1.014,2.308s-2.1.642-2.522.005.036-1.671,1.014-2.308,2.1-.637,2.522-.005" transform="translate(-52.706 -95.816)" fill="#f6b01a"/>
  <path id="Path_2048" data-name="Path 2048" d="M130.008,98.618c.413-.214.81-.443,1.2-.683a.393.393,0,0,1,.6.29,6.315,6.315,0,0,1,.015,1.009c-.082,1.371-.046,2.685-.015,3.373a.39.39,0,0,0,.5.357l.464-.143a.4.4,0,0,0,.27-.285c.2-.887.989-4.306,1.529-7.093a.4.4,0,0,1,.112-.2,20.527,20.527,0,0,0,5.386-8.922.39.39,0,0,1,.245-.26,3.043,3.043,0,0,1,1.62-.1.393.393,0,0,0,.479-.306c.484-2.476.484-2.741.484-2.741l-.423-2.109c-.382.163-1.116.311-1.32.836-.275.708-.632,1.437-.882,2.033a.631.631,0,0,1-.642.382,11.161,11.161,0,0,0-5.08,1.152l-30.8,3.465-2.767-1.4a21.072,21.072,0,0,0,.948,2.079,21.419,21.419,0,0,0,1.32,2.2h-.005l.031.031c.331.489.683.963,1.05,1.417a22.568,22.568,0,0,1,2.3,4.718,25.232,25.232,0,0,0,2.991,6.079.366.366,0,0,0,.163.127l.413.178a.391.391,0,0,0,.535-.453l-.759-3.1a.391.391,0,0,1,.683-.341l.846,1.019a.394.394,0,0,0,.642-.051l.489-.815a.391.391,0,0,0,.02-.367.392.392,0,0,1,.5-.53,20.281,20.281,0,0,0,16.855-.836" transform="translate(-54.327 -45.434)" fill="#741616"/>
  <path id="Path_2049" data-name="Path 2049" d="M15.932,106.635c.132-.28.357-.285.5-.01l1.758,3.419a1.215,1.215,0,0,0,.82.576l3.811.489c.306.041.382.255.163.474l-2.711,2.726a1.215,1.215,0,0,0-.3.958l.708,3.776c.056.306-.122.438-.4.3l-3.429-1.732a1.219,1.219,0,0,0-1,.015l-3.373,1.844c-.27.148-.459.02-.408-.285l.586-3.8a1.209,1.209,0,0,0-.326-.948l-2.8-2.639c-.224-.214-.158-.428.148-.479l3.8-.617a1.215,1.215,0,0,0,.8-.6Z" transform="translate(-9.409 -58.001)" fill="#f6b01a"/>
  <path id="Path_2050" data-name="Path 2050" d="M22.137,149.11c0-.357.229-.469.515-.255l3.485,2.675a1.4,1.4,0,0,0,1.126.194l4.183-1.355c.336-.107.52.076.4.408l-1.467,4.143a1.381,1.381,0,0,0,.163,1.131l2.583,3.557c.209.285.092.515-.265.5L28.465,160a1.377,1.377,0,0,0-1.024.5l-2.583,3.557c-.209.285-.464.245-.56-.1l-1.248-4.214a1.382,1.382,0,0,0-.8-.82l-4.178-1.36c-.336-.112-.377-.367-.082-.566l3.623-2.492a1.391,1.391,0,0,0,.53-1.014Z" transform="translate(-13.52 -78.76)" fill="#c32126"/>
  <path id="Path_2051" data-name="Path 2051" d="M23.8,74.245c.178-.173.346-.112.377.132l.362,3.042a.977.977,0,0,0,.453.657L27.7,79.5c.219.112.214.3-.01.4L24.91,81.185a.952.952,0,0,0-.484.632l-.52,3.022c-.041.245-.214.3-.382.112L21.445,82.7a.95.95,0,0,0-.749-.265l-3.032.438c-.245.036-.346-.112-.224-.326l1.493-2.675a.943.943,0,0,0,.02-.795L17.6,76.334c-.107-.224,0-.367.245-.316l3.006.6a.97.97,0,0,0,.764-.229Z" transform="translate(-13.323 -42.171)" fill="#c32126"/>
  <path id="Path_2052" data-name="Path 2052" d="M72.843,80.5c-.132-.219-1.478.861-3.46,2.711a7.227,7.227,0,0,0-2.293,3.46l4.693-3.414s-.5.02.112-1.014,1.08-1.524.948-1.743" transform="translate(-37.7 -45.275)" fill="#741616"/>
  <path id="Path_2053" data-name="Path 2053" d="M72.76,90.419s2.334-4.362,3.72-3.546-2.685,3.679-2.685,3.679Z" transform="translate(-40.481 -48.363)" fill="#741616"/>
  <path id="Path_2054" data-name="Path 2054" d="M198.723,80.469l-.464-.769s-4.209-1.386-4.229-.219,4.693.988,4.693.988" transform="translate(-99.959 -44.558)" fill="#741616"/>
  <path id="Path_2055" data-name="Path 2055" d="M193.594,87.182s-1.411-3.888-3.964-4.4a3.587,3.587,0,0,0,.464,2l2.971,2.6Z" transform="translate(-97.801 -46.406)" fill="#741616"/>
  <path id="Path_2056" data-name="Path 2056" d="M198.768,141.621a36.565,36.565,0,0,0-17.8-4.336,9.64,9.64,0,0,1-1.707-1.315,70.43,70.43,0,0,1-17.513-.81l.352.836s5.549,2.028,15.281,1.763c11.541-.311,14.98,1.544,21.385,3.862" transform="translate(-84.127 -72.096)" fill="#e02626"/>
  <path id="Path_2057" data-name="Path 2057" d="M110.9,39.577c7.505-.943,15.821,3.847,20.249,12.336,5.411,10.384,2.945,22.369-5.5,26.776s-19.688-.443-25.1-10.822S97.6,45.5,106.049,41.09a14.334,14.334,0,0,1,4.851-1.513" transform="translate(-52.701 -25.158)" fill="#211f20"/>
  <path id="Path_2058" data-name="Path 2058" d="M130.768,16.7C117.306,32,115.283,40.857,115.283,40.857c-3.526,17.441,12.29,21.625,19.51,15.373,1.992-.739,3.3-6.038,14.868-10.873,0,0-18.425-28.656-18.893-28.656" transform="translate(-61.089 -13.996)" fill="#383535"/>
  <path id="Path_2059" data-name="Path 2059" d="M118.014,63.891c-1.809-3.949-.739-9.615.148-12.891a30.319,30.319,0,0,0-2.879,6.68c-3.526,17.441,12.29,21.625,19.51,15.373,1.034-.382,1.885-1.992,4.076-4.132-11.612,5.37-18.241.673-20.855-5.029" transform="translate(-61.089 -30.819)" fill="#be2536"/>
  <path id="Path_2060" data-name="Path 2060" d="M163.926,19.549c5.5,7.786,4.82,17.722-1.518,22.2s-15.928,1.794-21.426-5.992-4.82-17.722,1.518-22.2,15.928-1.788,21.426,5.992" transform="translate(-72.118 -11.392)" fill="#211f20"/>
</svg>
