<svg xmlns="http://www.w3.org/2000/svg" width="134" height="153.284" viewBox="0 0 134 153.284">
  <g id="LOGOS-LS-louveteaux" transform="translate(0)">
    <path id="Path_2061" data-name="Path 2061" d="M138.267,123.056c-.223-4.021-4.429-12.528-11.221-19.866a85.588,85.588,0,0,0-13.3-12.029c-1.777-.68-6.017-2.22-8.26-2.752a77.533,77.533,0,0,0-3.56-8.512c-.4-.76-3.854-3.389-3.854-3.389s1.777.214,2.077-.043.466-.394-1.949-3.3c-.513-.618-2.5-3.084-2.837-3.517a5.591,5.591,0,0,0,3.431-.675,44.857,44.857,0,0,0-3.983-5.508c-.846-1.012-2.7-3.2-3.132-3.726a7.4,7.4,0,0,0,6.183-.974c-.613-3.089-4.021-7.276-7.386-10.627-1.545-1.535-3.759-4.092-4.092-4.539a119.014,119.014,0,0,0-7.709-9.534c-7.961-8.545-8.935-8.545-10.109-8.545-.5,0-5.893-.342-6.91-.475-.138-.019-.437-.727-.57-.732-.5-.884-1.084-1.92-1.659-2.951-1.107-1.977-2.253-4.021-2.956-5.185-.076-.223-2.619-5.936-4.81-6.359-3.588-.7-5.779,2.3-7.538,3.84-2.433,2.134-4.192,6.872-4.192,9.615a61.676,61.676,0,0,0,.337,7.538c-.974-1.44-2.752-.889-4.544-.542l-2.105.456L32.553,33.81c-.741,6.7-.214,8.137-.214,8.137L36.117,46.4c.295.295,2.386,3.308,2.457,3.389,1.1,1.435,1.568,6.673,1.483,8.555-.043.889-1.435,17.209-.466,17.366.452.071,2.97-1.668,3.431-1.778a16.07,16.07,0,0,1-.889,3.094c-.385,1.73-.651,2.88.252,3.389.128.071,2.709-1.283,2.837-1.226-1.179,4.206-2.348,8.731-1.787,10.8-3.094,3.864-3.726,4.715-3.717,7.371.014,4.135,4.13,15.042,6.82,17.789l1.231.138L49.2,115.1c22.338-2.752,40.212-4.867,88.6,8.346l.5.138Z" transform="translate(-19.674 -9.709)" fill="#2a2b2a"/>
    <path id="Path_2062" data-name="Path 2062" d="M96.739,70.748c.185-.029-4.848-6.53-5.409-7.443a101.423,101.423,0,0,1-4.163-13.749c-.58-3-14.1-17.927-15.218-17.922-1.335,0-5.233-.917-7.443-1.193a3.1,3.1,0,0,0-1.545.28c-1.3-2.158-4.429-7.932-5.689-9.971-.356-.575-1.25-4.705-1.968-4.848-2.172-.423-4.016.732-5.618,2.139-1.7,1.492-4.425,8.878-4.425,10.855,0,2.315,1.554,8.569,1.616,10.884,0,.143-4.529-4.629-7.058-3.222-1.987,2.97-1.245,4.449-1.4,6.4-.086,1.1,3.4,4.206,4.03,4.976,1.335,1.63,4.753,9.515,4.624,12.286a67.861,67.861,0,0,1-.808,12.942s3.964-3.374,4.814-3.945c-.052.352-1.6,9.539-1.649,9.743.471.352,3.156-2.258,3.94-2.623-.4,1.473-4.192,12.352-2.205,15.85.019.1-5.542,4.715-3.854,11.383.832,3.284,3.664,9.434,5.922,11.734,61.994-7.638,78.661,7.88,77.288,5.6,0-6.811-11.026-24.3-24.3-26.125a54.345,54.345,0,0,0-3.935-9.762c-1.616-2.671-7.476-6.73-7.371-6.863s2.752.8,3.517-.171c0,0-6.754-7.262-5.632-7.414a17.855,17.855,0,0,1,3.935.181" transform="translate(-22.955 -12.912)" fill="#3c3d4f"/>
    <path id="Path_2063" data-name="Path 2063" d="M57.466,70.827l-3.389,2.139a30.532,30.532,0,0,1,1.4-7.329c1.188-3.389-1.017-4.705-1.949-10.57S55.9,41.579,55.9,41.579s-1.863-2.286-2.414-9.063a92.786,92.786,0,0,1-.214-12.072l-3.517-.124-.086.071c-1.7,1.492-4.425,8.878-4.425,10.855,0,2.315,1.554,8.569,1.616,10.884,0,.143-4.529-4.629-7.058-3.222-1.987,2.97-1.245,4.448-1.4,6.4-.086,1.1,3.4,4.206,4.03,4.976,1.335,1.63,4.753,9.515,4.624,12.286a67.86,67.86,0,0,1-.808,12.942s3.964-3.374,4.814-3.945c-.052.356-1.6,9.539-1.649,9.743.471.352,3.156-2.258,3.94-2.623a80.836,80.836,0,0,0-2.386,9.1c1.179-2.319,3.45-6.768,4.463-8.631a14.337,14.337,0,0,0,2.034-8.327" transform="translate(-22.944 -15.277)" fill="#a8b2be"/>
    <path id="Path_2064" data-name="Path 2064" d="M91.85,104.46c.352.28,1.145-2.229,2.063-2.438s1.777,1.668,2.738,3.089,9.767,8.678,17.732,5.7c4.848-1.811-2.795-10.332-5.252-13.635-1.188-1.6-3.218-5.294-3.218-5.294-3.346.637-3.759,5.014-5,6.312C99.368,99.807,94.121,99.7,93,101.181s-1.5,3-1.15,3.279" transform="translate(-50.93 -52.827)" fill="#2a2b2a"/>
    <path id="Path_2065" data-name="Path 2065" d="M104.656,106.063c.337.8,6.744,7.828,12.2,7.029,7.628-1.112.238-9.168-1.1-10.375s-4.91-5.437-4.91-5.437c-1.711.518-2.5,3.831-2.5,3.831a19.578,19.578,0,0,0,2.5,2.88c1.421,1.3,3.745,2.239,3.341,2.666-1.226,1.312-7.581-4.235-7.581-4.235l-2.5,1.269a12.7,12.7,0,0,0,.556,2.372" transform="translate(-57.425 -55.66)" fill="#6f6f83"/>
    <path id="Path_2066" data-name="Path 2066" d="M87.955,57.983A11.6,11.6,0,0,0,83.269,63.2l-.989-1.659s1.031-2.633,2.077-3.341a3.238,3.238,0,0,1,3.6-.214" transform="translate(-45.976 -34.809)" fill="#2a2b2a"/>
    <path id="Path_2067" data-name="Path 2067" d="M46.922,63.835c1.835,1.507,4.948,2.6,4.339,1.616A17.586,17.586,0,0,0,49.8,63.065a25.414,25.414,0,0,0-3.517-2.671c-1.355-.124-2.633-.48-2.229.252a16.776,16.776,0,0,0,2.866,3.189" transform="translate(-25.879 -36.202)" fill="#484846"/>
    <path id="Path_2068" data-name="Path 2068" d="M67.651,20.3c-2.015.076-2.519.656-4.2,1.174-.428.133-2.072-1.2-2.31-1.269-1.478-.4-3.351.485-3.042-.086.49-.913,3.584-5.081,7.452-4.387,1.117.2,2.1,4.567,2.1,4.567" transform="translate(-33.271 -12.83)" fill="#2a2b2a"/>
    <path id="Path_2069" data-name="Path 2069" d="M67.638,163.819c-.779-.513-3.935,2.614-6.991,5.979v0a1.373,1.373,0,0,1-.2.223c-.4.447-.8.894-1.193,1.34a11.218,11.218,0,0,0-2.452,9.819c.1.375.219.794.361,1.236-.385-4.643.822-5.732,3.408-9.662a78.707,78.707,0,0,1,7.072-8.94" transform="translate(-32.436 -90.546)" fill="#838383"/>
    <path id="Path_2070" data-name="Path 2070" d="M137.954,235.783C122.688,221.8,98.744,212.79,71.816,212.79c-26.734,0-50.53,8.878-65.815,22.689-.361,2,.086,4.03,2.866,4.871a134.827,134.827,0,0,1,36.567-10.807,6.326,6.326,0,0,1,3.008-2.277,23.841,23.841,0,0,1,3.959-1.136l.29-.062a.956.956,0,0,1,.114-.019c.323-.047.594-.109.846-.166a7.905,7.905,0,0,1,1.2-.2,2,2,0,0,1,1.065.038,1.574,1.574,0,0,1,1.126.461c.029.029.048.057.076.086.01-.029.01-.062.019-.09.01-.067.019-.138.033-.219.048-.309.124-.76.147-.932a1.756,1.756,0,0,1,.057-.394,4.353,4.353,0,0,1,.081-.48l.014-.076c.024-.152.071-.347.119-.537.024-.09.048-.185.067-.271a1.385,1.385,0,0,1,.076-.238,1.231,1.231,0,0,1,.737-.893,1.348,1.348,0,0,1,.323-.138,1.118,1.118,0,0,1,.3-.043,1.181,1.181,0,0,1,.309-.043,1.368,1.368,0,0,1,.5,0h0a1.213,1.213,0,0,1,.295.019,1.551,1.551,0,0,1,1.093.965,2.092,2.092,0,0,1,1.326-.461,1,1,0,0,0,.124-.01,5.437,5.437,0,0,1,1.074-.133l.266-.014c.052-.014.1-.024.157-.033s.086-.019.133-.029c.024,0,.043,0,.067-.009a1.354,1.354,0,0,1,.6,0h.067l.1,0a1.267,1.267,0,0,1,.328.014,2.9,2.9,0,0,1,.9.456,7.327,7.327,0,0,1,2-.727,1.383,1.383,0,0,1,.195-.029l.086-.019a1.356,1.356,0,0,1,1.635.518,1.209,1.209,0,0,1-.2,1.5.9.9,0,0,1-.1.1,1.2,1.2,0,0,1-.627.908l-.214.119c-.09.048-.157.086-.242.128a6.177,6.177,0,0,0,.509.418,2.9,2.9,0,0,1,1.055,1.968c.423,0,.841-.01,1.264-.01q2.2,0,4.363.052a.017.017,0,0,1,0-.014,2.2,2.2,0,0,1,1.73-1.469l.124-.033a2.044,2.044,0,0,1,.285-.062c.932-.1,1.873-.114,2.78-.128a16.459,16.459,0,0,0,3.641-.309,7.249,7.249,0,0,1,1.4-.162,6.028,6.028,0,0,0,.713-.057,1.515,1.515,0,0,1,1.578.746c.019.019.033.038.052.057a1.527,1.527,0,0,1,.342.314,1.5,1.5,0,0,1,.3.642,21.383,21.383,0,0,1,4.135-1.335,1.543,1.543,0,0,1,.356-.038,4.574,4.574,0,0,0,.461-.1c.722-.171,1.934-.461,2.566.618a1.868,1.868,0,0,1-.727,2.262,1.822,1.822,0,0,1-.314.261,1.606,1.606,0,0,1-.081.257c0,.038.01.071.014.109a135.794,135.794,0,0,1,40.07,11.6,5.439,5.439,0,0,0,2.357-4.971" transform="translate(-5.893 -116.272)" fill="#2a7154"/>
    <path id="Path_2071" data-name="Path 2071" d="M14.751,304.5l.057-.029a.074.074,0,0,0-.057.029m.808,1.145c.057.029-.28.114-.223.086-.057.029-.166,0-.138.109.138.114-.166.252.057.28-.109,0-.418.166-.5.166,0,.057,0,.086.057.109.057,0,.114-.029.166-.029l.029.114c-.057-.057-.109.029-.109.086-.057.081.057.057.086.081h.081c-.166.086-.39.057-.528.195-.057.252.309.166.333.195-.029,0-.057.057-.109.057a.146.146,0,0,0,.109.057h-.029c-.057.028-.114.028-.138.086a.557.557,0,0,1,.057.475l-.057.166a7.023,7.023,0,0,1-1.255.475l-.176.086c-1.787.223-3.66.585-5.361-.109a2.707,2.707,0,0,1-1.174-.475c-.029-.114.114-.166.195-.252h.138c0-.166-.166-.223-.28-.337.086,0,.166.109.223,0-.029-.143-.195-.223-.223-.361-.029-.109.166-.086.138-.223-.086-.086-.309-.109-.447-.195a1.366,1.366,0,0,1-.361-1.4c-.166-.138-.029-.333-.057-.528-.109-.585.138-1.088.057-1.649.086-.252-.086-.447.057-.67a2.128,2.128,0,0,1,.109-1.174c0-.057.67-4.159.642-4.216a1.641,1.641,0,0,1,.138-.727,8.526,8.526,0,0,1,.252-1.678c.138-.808.39-1.649.556-2.429a3.832,3.832,0,0,0,.223-.808.636.636,0,0,1,.39.166c.114-.138,0-.39.223-.447.057.109.138-.057.166.057a.182.182,0,0,1,.195-.057c.309.309.5-.418.836-.028a.746.746,0,0,1,.585-.166.125.125,0,0,0,.138.109c.138-.252.309.195.475,0,.029.057.057.143.109.166h.138c.029-.057,0-.166.029-.223.086.086.029.28.195.337.057-.029.057-.086.029-.138a.409.409,0,0,1-.057-.166.408.408,0,0,1,.057.166.806.806,0,0,0,.223.195h.086c.081,2.847-1.4,9.634-1.312,12.538.029.028.086,0,.138.028a.526.526,0,0,0-.138.5l.086.057a28.84,28.84,0,0,1,3.517-.081c.029.28.333.057.532.109a.123.123,0,0,0-.114.114c0,.028.029.028.057.057l.029-.029h.086l-.057.029c-.029,0-.057,0-.057.029l.057.085c-.057-.028-.114.057-.114.086,0,.057-.029.114.057.138,0,.028-.309.114-.138.252.138,0,.951-.109,1.117-.109-.086.223-1.2.109-1.145.418a4.024,4.024,0,0,0,1.312.057c-.067.071-.261.014-.261.181" transform="translate(-5.965 -157.163)" fill="#2a7154"/>
    <path id="Path_2072" data-name="Path 2072" d="M35.153,297.588H35.1c-.309-.418-.67-.779-.951-1.231-.086-.057-.029-.252-.138-.166-.39-.309-.67-.756-1.088-.951-1.7,1.787-3.294,3.46-4.106,5.67h-.029c.029.223-.166.361-.138.613a1.349,1.349,0,0,0,.418.922,6.231,6.231,0,0,0,2.847,1.564,7.491,7.491,0,0,0,2.818-1.953,4.121,4.121,0,0,0,.613-3.631c-.024-.309-.219-.556-.19-.836m4.719,3.265c.166.333-.029.836,0,1.255-.138.361-.086.756-.252,1.031a6,6,0,0,1-.951,2.372,3.879,3.879,0,0,1-.894,1.34,8.453,8.453,0,0,1-1.088.922h-.029c-.252.138-.475.475-.808.475-.756.195-1.34,1.283-2.262,1.312-.057-.143-.138-.029-.252-.029-.138,0-.109-.252-.309-.195.029-.138-.138-.114-.195-.195-.223,0-.39.195-.67.057-.475-.086-.808.28-1.2.447.138-.138.39-.223.532-.39-.418,0-.808.361-1.2.309.029-.195-.309-.418-.029-.613-.223-.138-.5.138-.7.114.138-.086-.029-.195,0-.309,0-.39.39-.642.28-1.031.086-.057.057-.138.057-.195a1.176,1.176,0,0,1-.447,0c-.057-.143.109-.252.166-.361a2.555,2.555,0,0,0-.67.057c0-.475.613-.808.756-1.226a1.841,1.841,0,0,0-1.226.166,5.478,5.478,0,0,1-1.649-.337c-.057.114-.166.029-.223.057-.138-.086-.333-.28-.5-.28a.6.6,0,0,0-.418-.361c.114-.223-.195-.195-.223-.361a5.706,5.706,0,0,1-.447-.613c.057-.252-.223-.361-.252-.585a6.822,6.822,0,0,1-.138-1.873l-.086-.057a9.446,9.446,0,0,1,2.543-5.922,10.041,10.041,0,0,0-2.429,5.361l.029.029a9.851,9.851,0,0,1,2.234-4.719,13.18,13.18,0,0,1,1.673-1.873,4.2,4.2,0,0,1,.475-.5c.39-.39,1.34-1.369,1.535-1.592-.114-.166.029-.447-.138-.585.029-.057.138.109.195-.029-.114-.252.223-.447-.086-.67a.241.241,0,0,0,.337-.138c-.086-.143.109-.086.029-.166.086-.195.195-.418.39-.418-.029-.223.3,0,.223-.223.029,0,.057,0,.086.057.086-.057,0-.114,0-.143.086-.081.252.029.28-.109a1.934,1.934,0,0,1,.979.166L33,290.25c0,.029.057.057.086.057l.138-.028v.028h.223l-.166.057c.39.195.779.39,1.145.585h.223c-.029.052.057.109.114.138a.268.268,0,0,1,.361.223,11.106,11.106,0,0,1,2.039,1.7c-.057.223.195.057.138.252a12.133,12.133,0,0,1,1.9,3.351c-.086.223.114.252.138.418a20.543,20.543,0,0,1,.613,3.546c-.114.081-.057.166-.086.276" transform="translate(-15.677 -156.842)" fill="#2a7154"/>
    <path id="Path_2073" data-name="Path 2073" d="M71.493,308.563a.107.107,0,0,0-.109.109c-.114,0-.223,0-.309-.223a.221.221,0,0,0-.138.28v.057a.088.088,0,0,0-.029-.057c-.057-.057-.223-.057-.309-.057v.228c0-.223-.109-.223-.223-.337-.109.109,0,.223,0,.337-.109.109-.109.109,0,.109-.109.114-.223,0-.333-.109-.114.109,0,.109,0,.223a.621.621,0,0,0-.556-.337c-.114.114.109.337-.114.337-.109-.223-.223-.114-.447-.337v-.114a.11.11,0,0,0-.109.114v-.114c-.223,0-.114.223-.114.337-.109-.109,0-.337-.223-.337s-.556.337-.779,0h-.109c-.447-.333-.585-.333-.784-.893a2.138,2.138,0,0,1-.223-.894c-.223,0-.223.223-.447.223l-.67.223a8.62,8.62,0,0,1-4.021.223,6.993,6.993,0,0,0-1.34-.561,2.313,2.313,0,0,1-.67-.779,3.454,3.454,0,0,1-1.226-2.124c-.223-1,0-1.9-.223-2.795-.109-1.226,0-6.811,0-7.257a19.809,19.809,0,0,1,.894-3.688.449.449,0,0,1,.223.447l.223-.447-.114.447c.223-.333.561-.67.779-1.008.114,0,.223.223.223.337l.109.561c.223-.114.114-.447.447-.447v-.114c.223.114.223,0,.333-.109a1.95,1.95,0,0,1,.784.109l.333-.223a5.94,5.94,0,0,1-.333,3.127c-.447,2.12-.447,9.5,1.226,10.5.865.532,2.039.252,3.013.3a33.9,33.9,0,0,1-.447-3.992c0,.114.418,3.769.447,4.021h.114c-.114-.561-.447-6.478-.447-8.712.114-1.117.223-2.12.447-3.237.337-.223,0-.561.109-.784v-.223c.223.109.223-.223.447-.195.114-.223.836.166,1.06-.029h.029v.029l-.029-.029a.146.146,0,0,1,.057.109c.223-.109.337-.223.556-.109,0,0,0,.109.114,0a.153.153,0,0,1,0-.223c.223.109.333.333.447.447.223.109.223.333.447.447v.67c.109,2.343.779,11.839,1.117,13.179.114.893,0,.333.114,1.226a2.017,2.017,0,0,1,.223.779,3.032,3.032,0,0,0,.67,1.34v.109Z" transform="translate(-33.202 -156.677)" fill="#2a7154"/>
    <path id="Path_2074" data-name="Path 2074" d="M95.04,306.82c-.28.922-.7,1.759-1.031,2.623a.1.1,0,0,0-.086-.028c-.223.28-.39.585-.613.836a.088.088,0,0,1,.029-.057c-.057-.057-.114.029-.138.057v.138h-.029a.1.1,0,0,0-.029-.086,4.54,4.54,0,0,0-1.088,1.2c-.029-.028-.057,0-.086-.028a.171.171,0,0,0-.029-.114.311.311,0,0,0-.309.138l-.029.057c-.195-.029-.195-.309-.418-.223l-.223.252c0-.057.029-.138-.029-.166-.138-.029-.195.309-.309.109,0-.057.086-.109.057-.166-.057-.114-.138.029-.195-.086-.109.029-.109.195-.223.252.029-.086.138-.195.057-.28-.057,0-.109.029-.166.029v.086l-.029.029a.061.061,0,0,1,.057-.057c0-.138-.28-.086-.333-.195a.294.294,0,0,0-.114.138v-.029a.2.2,0,0,1-.057.138c.029-.029.029-.086.057-.114a.637.637,0,0,0-.138-.3c-.252-.114-.361.333-.5.028l-.337.166c-.475-.447.166-.836.252-1.255a7.915,7.915,0,0,1-1.369-2.847c-.029-.086-.114-.138-.166-.195l-.029.109c-.086-.109-.029-.28-.138-.333-.057,0-.029.028-.057.086a12.665,12.665,0,0,0-.836-1.369,71.4,71.4,0,0,1-3.184-8.042c.109-.086,0-.337.195-.337a.281.281,0,0,0,.252-.057l.086-.447c.223-.029.361-.195.585-.223.223-.613.894-.333,1.34-.561.39.114.836-.447,1.088.029l.585,1.088h.057c.361.756,1.34,3.883,1.982,4.467.086.109.223.223.138.39.447.642.727,1.283,1.145,1.925.223,0,.613.28.585-.138.39-1.34,2.039-6.982,2.429-8.293a.624.624,0,0,1,.39-.475l.029.029a1.13,1.13,0,0,1,1.06-.195,4.719,4.719,0,0,0,.67-.28,12.046,12.046,0,0,1,1.73.252c.114.28-.109.642-.029.922l.029-.029c-.029.081-.029.195.057.223.009,2.419-2.115,8.949-2.59,11.212" transform="translate(-46.474 -159.012)" fill="#2a7154"/>
    <path id="Path_2075" data-name="Path 2075" d="M121.475,299.159l.252-.028v.028Zm-2.291,5.309V305h.057c-.057-.223,0-.333-.057-.527m-.029.751c-.029.057.029.057.081.057,0-.029,0-.086.029-.109Zm-.166-6.673h-.029v.109h.029Zm0-.223h-.029v.109h.029Zm0-.3h-.029v.109h.029Zm6.9-2.21.057.029c-.642.143-1.06.447-1.73.561a11.012,11.012,0,0,1-1.426.7,12.1,12.1,0,0,1-3.517.779l-.057.057a6.719,6.719,0,0,0,0,1.312,7.934,7.934,0,0,1,1.844-.057,7.248,7.248,0,0,0-1.873.166c0,.029.029.052.057.081a23.36,23.36,0,0,1,2.766-.057l.642.143c.029.057.086.195.195.138.057.138-.029.309.086.39l.166-.029c0,.029-.109.114,0,.195l.138.057a.467.467,0,0,0-.057.39c.057.166.252-.029.28.086-.086.057-.28.109-.195.252.029.166.28.138.195.333.029.086-.028.166.086.195h.086c-.029.086-.086.195-.057.28.029.029.057.029.086.057-.057.138-.309.28-.195.447-.029.114-.109.086-.138.166l.223.252-.447.337c.057.057,0,.114-.057.138.138.114.361.057.475.143,0,.086-.114.114-.166.138-.67-.029-1.088.561-1.758.447-.7.057-1.454,0-2.148.057l-.086.057.029.951c1.145.029,2.177.447,3.322.561-1.145-.028-2.148-.5-3.322-.418-.057.029-.029.109-.029.138a11.359,11.359,0,0,1,3.07.7c.223-.086.252.138.337.223,0,.109-.086.223.029.309.029,0,.086,0,.109-.029l-.166.166c.086.057.223,0,.252.114.166-.029.166.138.252.223-.166.28.333.223.166.5-.109.166-.333,0-.447.138-.109.057,0,.138-.057.195l.057-.028c-.081.3.223.7-.195.893.114.166-.223.418.086.556.057.138-.109.223-.195.309-.057-.029-.109-.086-.166-.029-.029.057-.086.109-.057.166.086.057.223.138.114.252a.569.569,0,0,1,.252.143c-.39.195-.922,0-1.312.223a7.661,7.661,0,0,1-2.1-.333c-1.2-.166-2.514-.029-3.488-.727l.029-.057c-.029-.252-.361-.333-.361-.585-.195-.029-.057-.28-.28-.3a.211.211,0,0,0-.252.057.215.215,0,0,0-.138-.195c-.109.029-.223,0-.252-.109.029-.057-.029-.114-.086-.138s-.086.028-.114.057l.029.109c-.223-.67,0-1.4-.195-2.12.029-2.262-.086-4.467-.057-6.73,0-.532.166-1.088.223-1.649-.029-.138-.252-.086-.252-.28-.086-.166.138-.166.166-.309.086-.361.029-.808.252-1.117.029-.223-.138-.5.086-.7-.195-.361.447-.532.029-.836.138-.138-.223-.252.029-.39.756-.808,1.982-.5,2.932-.727a30.161,30.161,0,0,1,4.244-.447v-.057l.166.029a2.049,2.049,0,0,1,.447-.143c.166.057.337-.086.5-.086.029.057-.138.195,0,.252a7.85,7.85,0,0,1,1.787-.166c.057.057.195,0,.252.057a.406.406,0,0,0-.028.361.312.312,0,0,0,.223.086c0,.029-.029.029-.029.086.166.057.39-.057.613,0-.057.166-.138.195-.195.39a.3.3,0,0,0-.029.309c.086.195.28.029.418.057a.332.332,0,0,0,.138.195c-.029.028-.138.138-.114.223.086.028-.029.114.029.166l.138.086-.057.057.114.029c-.029.086-.309.252-.057.361-.057,0-.086.057-.138.086,0,.114.138.143.195.223-.261-.014-.261.323-.428.432" transform="translate(-62.714 -158.109)" fill="#2a7154"/>
    <path id="Path_2076" data-name="Path 2076" d="M153.547,294.2v-.029l.166-.028v.028Zm-2.571,13.065v.086c.057-.028.086-.086,0-.086m0-12.538c.086.029.138-.029.223-.057-.086,0-.195,0-.223.057m3.854-3.322c.195.057-.086.532.28.447-.029.057-.086.109-.057.195.166.223-.195.309-.309.475,0,.086.057.166.029.252a4.534,4.534,0,0,1-1.174.613l.086.028c-.252.195-.642.252-.865.556a1.671,1.671,0,0,1-.756.223c-.223.114-.532.114-.751.252-.029.028.029.057.057.057l.195-.029v.029c.28-.029,1.507-.252,1.816-.28a13.113,13.113,0,0,0-2.205.532l1.925-.361c-.532.138-2.01.447-2.543.532.138.951.39,1.953.475,2.961a7.666,7.666,0,0,0,.138,1.592l.029,3.265a28.792,28.792,0,0,1,.361,3.237c.086.057.057.143.029.252,0,.029,0,.029-.029.029v0l.029-.029a.088.088,0,0,0-.057-.029c-.195.195-.029.556-.223.727a.476.476,0,0,1-.195.418l-.223.086c0-.028.029-.086-.029-.114H150.8c-.138.138-.029.475-.309.5l-.138.223v-.081c-.086.029-.166-.029-.223-.114-.223.114-.029.67-.361.532-.029-.086-.086-.086-.143-.166-.086,0-.086.086-.138.138l-.081-.086-.057.029c.057.029.029.057.029.086l-.138.028v.081c-.086-.081-.166-.028-.28-.057.086.28-.252.166-.223.418-.029.029-.086.057-.114.029-.138.057-.166.974-.195,1.145A2.263,2.263,0,0,1,148.1,309c-.029-.166-.252,0-.223-.166-.081-.195-.337.029-.337-.223-.057-.086-.138,0-.223,0-.029.28-.309,0-.39.223a15.164,15.164,0,0,1-.556-1.7l-.057-6.758c-.086-.475-.309-.922-.39-1.4.029-.057.114,0,.138-.057a.687.687,0,0,0-.086-.39c-.109.081.057.166-.086.195v.109c-.057-.109-.166-.333.086-.361l-.28-.865a.153.153,0,0,0,.081-.195.731.731,0,0,1-.166-.39l-.114-1.787c-.057-.029-.086-.081-.114,0,.057.447.029,1.06.114,1.535a8.729,8.729,0,0,0,.138,1.117h.057l.029.5a5.329,5.329,0,0,1-.252-1.312l-.057-.057c-.081-.67-.057-1.174-.166-1.816a12.639,12.639,0,0,0-2.348-.337,16.288,16.288,0,0,0-3.213-.333l-.029-.057c.109-.029.309,0,.361-.166-.086-.114.057-.166.086-.252l-.028-.447c.195-.28.333-.561.5-.865.086-.029.166,0,.195-.109a.521.521,0,0,0-.114-.166c.029-.057.029-.309.223-.223l.057-.086-.057-.057h-.057a.67.67,0,0,0,.309-.309l-.029-.029c.138-.029.39-.057.337-.195-.138-.114-.337-.057-.5-.057.109-.418.756-.5,1.2-.642,3.1-.333,6.449.057,9.382-.67.951-.223,1.9-.109,2.847-.28-.057.057,0,.138.029.195a.38.38,0,0,0-.143.086c0,.057,0,.114.057.114h.242c.028,0-.029.052.028.109a.352.352,0,0,1,.166-.029c-.166.195.143.252.195.337h.195c-.052.247-.613.3-.3.665" transform="translate(-76.079 -156.75)" fill="#2a7154"/>
    <path id="Path_2077" data-name="Path 2077" d="M180.2,299.159l.252-.028v.028Zm-2.291,5.309V305h.057c-.057-.223,0-.333-.057-.527m-.029.751c-.029.057.029.057.086.057,0-.029,0-.086.029-.109Zm-.166-6.673h-.029v.109h.029Zm0-.223h-.029v.109h.029Zm0-.3h-.029v.109h.029Zm6.9-2.21.057.029c-.642.143-1.06.447-1.73.561a11.011,11.011,0,0,1-1.426.7,12.1,12.1,0,0,1-3.517.779l-.057.057a6.718,6.718,0,0,0,0,1.312,7.942,7.942,0,0,1,1.844-.057,7.194,7.194,0,0,0-1.868.166c0,.029.029.052.057.081a23.36,23.36,0,0,1,2.766-.057l.642.143c.029.057.086.195.195.138.057.138-.029.309.081.39l.166-.029c0,.029-.109.114,0,.195l.143.057a.45.45,0,0,0-.057.39c.057.166.252-.029.28.086-.086.057-.28.109-.195.252.028.166.28.138.195.333.029.086-.029.166.081.195h.086c-.028.086-.086.195-.057.28.029.029.057.029.086.057-.057.138-.3.28-.195.447-.029.114-.109.086-.138.166l.223.252-.447.337c.057.057,0,.114-.057.138.143.114.361.057.475.143,0,.086-.114.114-.166.138-.67-.029-1.088.561-1.758.447-.7.057-1.45,0-2.148.057l-.086.057.029.951c1.145.029,2.177.447,3.322.561-1.145-.028-2.148-.5-3.322-.418-.057.029-.029.109-.029.138a11.358,11.358,0,0,1,3.07.7c.223-.086.252.138.337.223,0,.109-.086.223.029.309.029,0,.086,0,.109-.029l-.166.166c.086.057.223,0,.252.114.166-.029.166.138.252.223-.166.28.333.223.166.5-.109.166-.333,0-.447.138-.109.057,0,.138-.057.195l.057-.028c-.081.3.223.7-.195.893.114.166-.223.418.086.556.057.138-.114.223-.195.309-.057-.029-.114-.086-.166-.029-.029.057-.086.109-.057.166.081.057.223.138.109.252a.569.569,0,0,1,.252.143c-.39.195-.922,0-1.312.223a7.66,7.66,0,0,1-2.1-.333c-1.2-.166-2.514-.029-3.493-.727l.029-.057c-.029-.252-.361-.333-.361-.585-.195-.029-.057-.28-.28-.3a.211.211,0,0,0-.252.057.215.215,0,0,0-.138-.195c-.109.029-.223,0-.252-.109.029-.057-.029-.114-.086-.138s-.086.028-.114.057l.029.109c-.223-.67,0-1.4-.195-2.12.029-2.262-.081-4.467-.057-6.73,0-.532.166-1.088.223-1.649-.028-.138-.252-.086-.252-.28-.086-.166.138-.166.166-.309.086-.361.029-.808.252-1.117.029-.223-.138-.5.086-.7-.195-.361.447-.532.029-.836.138-.138-.223-.252.028-.39.756-.808,1.982-.5,2.932-.727a30.161,30.161,0,0,1,4.244-.447v-.057l.166.029a2.136,2.136,0,0,1,.447-.143c.166.057.337-.086.5-.086.029.057-.138.195,0,.252a7.85,7.85,0,0,1,1.787-.166c.057.057.195,0,.252.057a.422.422,0,0,0-.029.361.312.312,0,0,0,.223.086c0,.029-.029.029-.029.086.166.057.39-.057.613,0-.057.166-.143.195-.195.39a.3.3,0,0,0-.029.309c.086.195.28.029.418.057a.332.332,0,0,0,.138.195c-.029.028-.138.138-.114.223.086.028-.029.114.028.166l.138.086-.057.057.114.029c-.028.086-.309.252-.057.361-.057,0-.086.057-.138.086,0,.114.138.143.195.223-.247-.014-.247.323-.418.432" transform="translate(-93.527 -158.109)" fill="#2a7154"/>
    <path id="Path_2078" data-name="Path 2078" d="M205.182,310.672c0-.057-.029-.114-.029-.166a.2.2,0,0,1,.057.166Zm-3.322-6.758c.057.195.195.5.39.561a1,1,0,0,0-.39-.561m-.532-9.016-.029-.057v.057c0,.028.029.057.057.086a.1.1,0,0,1-.028-.086m-.727-1.283.333.784v-.057a2.239,2.239,0,0,0-.333-.727m-.081-.228h-.029l.057.086h.029Zm-.447,8.127v-.138l.114.447c0-.029-.114-.309-.114-.309m-.2-1.34a25.741,25.741,0,0,0,2.01,3.631c-.219-.418-1.839-3.436-2.01-3.631m.114.836.029.252-.057-.223c-.109.337-.951,2.847-.951,3.042,0,.086.114.086.166.086-.337,0-.28.39-.39.585l3.07-.361Zm-3.8,9.329v-.166l.086-.109Zm-.057.195-.138.166c.057-.109.114-.223.166-.333Zm12.7-2.124a.155.155,0,0,0-.086.138c0,.086.029.166.029.223a.176.176,0,0,1-.138.166v.195c0-.138-.195-.223-.309-.252-.057.086,0,.223.029.309h-.086c-.086,0-.138-.109-.223-.166a1.3,1.3,0,0,0,0,.333v.029H208c-.029,0,0,.109-.029.166a.187.187,0,0,0-.109.166c0,.114.086.195.086.309v.029l-.223.223c.086.166.195.309.28.475h-.028a2,2,0,0,0-.447-.642c-.109,0-.086.109-.057.166-.138-.086-.223-.28-.418-.28a.053.053,0,0,0,0,.086c0,.138.195.28.223.447-.086-.029-.114-.138-.223-.138l-.252-.195v-.028c-.057,0-.114-.029-.166-.029-.057.029-.086.081-.086.195a.386.386,0,0,0,.057.166l-.138-.057-.057.029-.138.143a1.642,1.642,0,0,0-.361-.223,19.393,19.393,0,0,1-1.4-1.649c-.28-.39-.532-.784-.808-1.174l-.114.057a10.024,10.024,0,0,0,2.429,2.989h-.138a.1.1,0,0,0-.081.029,12.12,12.12,0,0,1-2.348-2.932,12.693,12.693,0,0,1-2.9.337,8.678,8.678,0,0,1-1.73-.143h-.086c-.081,0-.029.252-.029.309a11.559,11.559,0,0,1-.39,1.673.1.1,0,0,1-.086-.029c-.109,0-.109.166-.109.3v.114a.216.216,0,0,1-.029.114v-.029a.4.4,0,0,0,.029-.195.775.775,0,0,1-.057-.252c-.114-.086-.114-.223-.195-.333a.1.1,0,0,1-.028.057c-.057,0-.081-.086-.109-.086h-.029c-.166.029-.086.28-.252.252-.057.028-.029.166-.138.109l-.086.252-.029-.081-.109.028a.171.171,0,0,1-.029-.114l-.114.057c-.029-.029-.029-.195-.086-.195h-.057c-.109.081-.029.333-.195.333l-.028.029v-.166a.12.12,0,0,0-.114-.114c-.057,0-.029.057-.086.114-.029-.086,0-.138-.086-.138-.057,0-.109-.109-.138-.138l-.114.029c0-.057,0-.114-.057-.143l-.086.057c0-.057-.029-.081-.086-.109l-.057.086c0-.029-.029-.057-.057-.086-.057,0-.109.138-.166.195v.029h-.029c-.086,0-.143-.057-.223-.057-.029,0-.057.029-.086.057-.166,0-.166-.252-.309-.252a1.453,1.453,0,0,1-.252-.894,17.658,17.658,0,0,1,.727-4.187l1.06-4.273c.166-.67.39-1.312.585-1.953a14.456,14.456,0,0,1,.922-3.436c.166,0,.138-.166.28-.195l.057-.418a.061.061,0,0,0,.057.057c.029-.166.138-.28.166-.418a.1.1,0,0,0,.086-.029c.114,0,.114-.138.223-.166,0-.028.029-.138.029-.195v-.029c0,.029,0,.057.029.057h.057c.114-.195.28,0,.361-.28,0-.029,0-.029.029-.029s.057.029.109.029c.029,0,.029,0,.029-.029.086,0,.223-.029.166-.138l.029-.057c.086.028.109.138.195.138l.057-.029a.146.146,0,0,1-.057-.109c0-.114.166-.166.109-.309H200c.029,0,.057-.028.086-.057a5,5,0,0,1,1.031,1.787l.143-.057a7.549,7.549,0,0,0-.532-1.031l.556.951-.109-.166a.716.716,0,0,0,.166.39v-.057c0-.029-.029-.057-.029-.086l.081.223c.029.029.057.057.057.086l-.057-.138h-.029c-.029.029-.029.057,0,.057a.2.2,0,0,0,.057.138,35.392,35.392,0,0,0,1.283,3.436c-.029.057.057.086.086.138a27.866,27.866,0,0,0,2.623,4.33c.39.532.808,1.031,1.174,1.564,0,.138.166.195.223.309a14.115,14.115,0,0,1,.922,1.649c.223.166.143.5.3.727v.086c0,.337.418.585.561.894a1.755,1.755,0,0,0,.361.7Z" transform="translate(-104.935 -158.172)" fill="#2a7154"/>
    <path id="Path_2079" data-name="Path 2079" d="M236.808,308.563a.109.109,0,0,0-.114.109c-.114,0-.223,0-.3-.223a.221.221,0,0,0-.138.28v.057a.088.088,0,0,0-.029-.057c-.057-.057-.223-.057-.309-.057v.228c0-.223-.109-.223-.223-.337-.114.109,0,.223,0,.337-.114.109-.114.109,0,.109-.114.114-.223,0-.333-.109-.114.109,0,.109,0,.223a.621.621,0,0,0-.556-.337c-.114.114.109.337-.114.337-.114-.223-.223-.114-.447-.337v-.114a.112.112,0,0,0-.114.114v-.114c-.223,0-.114.223-.114.337-.109-.109,0-.337-.223-.337s-.556.337-.784,0H232.9c-.447-.333-.585-.333-.779-.893a2.068,2.068,0,0,1-.223-.894c-.223,0-.223.223-.447.223l-.67.223a8.62,8.62,0,0,1-4.021.223,6.992,6.992,0,0,0-1.34-.561c-.223-.223-.561-.447-.67-.779a3.454,3.454,0,0,1-1.226-2.124c-.223-1,0-1.9-.223-2.795-.109-1.226,0-6.811,0-7.257a19.809,19.809,0,0,1,.894-3.688.449.449,0,0,1,.223.447l.223-.447-.114.447c.223-.333.561-.67.779-1.008.114,0,.223.223.223.337l.114.561c.223-.114.109-.447.447-.447v-.114c.223.114.223,0,.333-.109a1.961,1.961,0,0,1,.784.109l.333-.223a5.988,5.988,0,0,1-.333,3.127c-.447,2.12-.447,9.5,1.226,10.5.865.532,2.039.252,3.013.3a33.9,33.9,0,0,1-.447-3.992c0,.114.418,3.769.447,4.021h.114c-.114-.561-.447-6.478-.447-8.712.114-1.117.223-2.12.447-3.237.337-.223,0-.561.114-.784v-.223c.223.109.223-.223.447-.195.114-.223.836.166,1.06-.029h.029v.029l-.029-.029a.146.146,0,0,1,.057.109c.223-.109.333-.223.556-.109,0,0,0,.109.109,0a.158.158,0,0,1,0-.223c.223.109.337.333.447.447.223.109.223.333.447.447v.67c.109,2.343.779,11.839,1.117,13.179.109.893,0,.333.109,1.226a2.018,2.018,0,0,1,.223.779,3.031,3.031,0,0,0,.67,1.34v.109Z" transform="translate(-119.946 -156.677)" fill="#2a7154"/>
    <path id="Path_2080" data-name="Path 2080" d="M266.663,305.745c-.029.195.086.333.057.532l-.029.029v.223l-.195.029c-.086.166.223.3.029.475a.464.464,0,0,0-.28.195c.029.057.086.086.057.166a1.331,1.331,0,0,0-.361.418,2.267,2.267,0,0,1-.784-.114c-.029-.029-.057-.057-.086-.057-.057.252.5.28.252.556-.252.195-.5-.109-.756-.166.109.252-.195.109-.309.166-1.426-1.564-4.382-3.883-5.836-5.418-.166-.052-2.932,3.294-3.769,4.049-.114,0-.252-.029-.333.057v-.029c-.166-.109-.223.223-.366.086a.483.483,0,0,1-.475.109c-.252-.138-.556.086-.727-.252a2.133,2.133,0,0,0-.447-.309c-.138.086-.223-.057-.337-.085-.029-.109-.166-.223-.252-.361l.109-.252-.138.029v-.029c-.223-.086-.114-.057-.138-.28.195-.28-.057-.086-.223.057l-.109.114.109-.114.057-.28-.086-.028a.458.458,0,0,1,.166-.252c-.081-.057-.138,0-.195.057l.418-.585c-.029-.057-.086-.029-.138-.029l-.114.138a39.461,39.461,0,0,0,3.688-5.808c-.138-.114-.138-.223-.28-.556.029.029-1.088-1.507-1.088-1.535-.67-.808-4.187-5.442-5.722-7.4.029-.081-.114-.138-.057-.195.029-.057.28.166.309.138.057-.057-.309-.613-.195-.67.029-.029.418.138.418.086.138,0,.057-.195.138-.223l.166-.166-.028-.057c.028-.057.195.029.166-.109.138.029.166-.114.195-.195.166-.029.28-.28.475-.166l.029-.138c.109.109.138-.114.28,0,0-.166.195-.086.309-.057v-.109l.223.085-.109-.223c.28.138.556.057.836.337l.086-.028a14.1,14.1,0,0,1,2.68,2.457,36,36,0,0,1,3.27,3.911c.195-.252.223-.613.475-.865l-.028-.166c.366-.779.613-1.621,1.008-2.4.028-.556.361-1.117.447-1.673l.143-.333.029.166c.143-.057.143-.309.223-.447v.252l.166-.223a1.808,1.808,0,0,0-.029.561l.28-.727c0,.028.029.028.029.057l.223-.418a5.256,5.256,0,0,0-.3,1.4v.109c.057.138-.28.223-.029.309.029.086-.057.143,0,.223h.195c-.029.029,0,.057.029.057.166-.28.109-.613.28-.922.057.28-.114.475-.114.727.057.086.166,0,.223.028a.1.1,0,0,0,.029-.086.868.868,0,0,1,.109-.532v.029h.166c.029.057-.029.143.057.166l.252-.166c.109.195-.086.475.057.67.028-.109.195-.223.195-.333v0c0,.029.029.029.057.029s.029-.029.029-.057c.029.166-.029.361-.029.7-.086.195.223.561.39.309a.1.1,0,0,1-.029-.086l.029.029v.057c-.057.195.309.585.28.613,0,0-.029.086-.029.057a.508.508,0,0,0,.029.642c.138,0,.086-.166.195-.223.029.195-.057.223-.166.5a1.305,1.305,0,0,0-.086.195l.057.029c.029-.029.109-.143.166-.166l-.057.195c-.029,0-.029.029-.057.029v.057c.086,0,.109-.057.166.057l.057.143c.057,0,.166-.086.195-.057.057.252.086.195.138.447a26.75,26.75,0,0,1-1.673,5.5c1.564,2.12,4.187,4.3,5.67,6.839a.31.31,0,0,1,.166.086c-.029.057,0,.114-.057.114-.029.114.057.223.138.337,0,.028-.114-.086-.138,0,.029.081.138.081.138.138-.138,0-.138-.195-.252-.195" transform="translate(-132.914 -155.365)" fill="#2a7154"/>
    <path id="Path_2081" data-name="Path 2081" d="M92.568,260.137c-.413-.029-1.564.413-1.678.219.1-.067.2-.128.29-.195-.09.033-.057-.009-.1,0,.352-.143.162-.2.485-.361.4-.257.827-.371,1.155-.627.067-.1-.081-.033-.143-.043-.043.009-.114.043-.071-.019s.109-.1.162-.143c-.494.024-.076-.071-.608.014.8-.518.561-.247,1.278-.722,0-.043.024-.1-.043-.1-.7.195-.048-.071-.813.157a10.575,10.575,0,0,1,1.055-.537l-.28.086a5.573,5.573,0,0,1-1.112.29c.889-.475.941-.528,1.773-.932.423-.333.927-.613,1.336-.908,2.291-1.673-1.949-4.829-2.852-5.508-.808-.6-3.626-4.292,1.212-6.288a24.366,24.366,0,0,1,4-1.122,19.448,19.448,0,0,1,2.091-.361c.356-.152.513.152.846.048-.019.052-.033.109-.048.162-.19.195-.323.4-.128.461-.109.071.029.043.01.09a.142.142,0,0,1-.038.019c-.081.1.166.019-.09.157-.1.195.466.009.219.257.019.019-.261.328-.133.185-.39.423,2.476.085.4.646a16.379,16.379,0,0,0-3.317.9c-.413.219-3.08.889-2.695,2.414.428,1.507,3.622,2.614,5.028,5.717.684,1.412-.261,4.5-7.186,6.05" transform="translate(-50.471 -132.119)" fill="#819baf"/>
    <path id="Path_2082" data-name="Path 2082" d="M180.14,242.911c.432.033,1.635-.433,1.754-.228-.1.067-.2.138-.3.2.1-.033.057.009.109,0-.366.152-.171.214-.5.375-.418.271-.86.39-1.2.656-.067.1.086.033.147.043.043-.009.119-.043.076.019s-.114.1-.171.152c.513-.024.081.076.637-.014-.841.537-.589.257-1.335.756,0,.043-.024.1.048.109.732-.2.052.076.851-.162a10.529,10.529,0,0,1-1.1.561l.295-.086a6.067,6.067,0,0,1,1.16-.3c-.927.494-.984.551-1.854.97-.442.347-.97.642-1.393.951-2.391,1.749,2.039,5.043,2.98,5.751.841.632,3.788,4.482-1.269,6.568a25.554,25.554,0,0,1-4.178,1.169,19.246,19.246,0,0,1-2.186.375c-.371.162-.537-.157-.884-.048.019-.057.038-.114.052-.171.2-.2.337-.418.133-.485.114-.076-.029-.043-.01-.1a.167.167,0,0,0,.038-.024c.086-.109-.176-.019.1-.162.1-.2-.49-.01-.228-.266-.019-.019.271-.342.138-.195.409-.442-2.585-.09-.413-.675a16.969,16.969,0,0,0,3.46-.936c.432-.228,3.218-.927,2.814-2.524-.442-1.573-3.783-2.728-5.252-5.969-.722-1.473.266-4.691,7.5-6.316" transform="translate(-92.436 -131.931)" fill="#819baf"/>
    <path id="Path_2083" data-name="Path 2083" d="M118.94,260.418c-.019.057.1.038.038.114a1.946,1.946,0,0,1-.356.1c-.038.019-.019.076-.038.114.038.076.119.019.176.038.081-.038.176.038.276,0,.081.152-.119.133-.195.152-.081-.019,0,.057-.081.076.019.057.1,0,.157.038.019.076-.119.133-.043.19.019.171-.219.114-.238.247a.144.144,0,0,0-.138.114c.057.038.138.038.119.114-.119,0-.157.133-.238.171l-.019.019.138.057c-.019.019-.081.057-.1,0-.076.057-.219-.019-.276.038.038.1.119.038.195.1,0,.019-.138.038-.081.133-.081-.019-.238-.057-.295.057-.019.171-.276-.038-.337.133l.081.057a5.11,5.11,0,0,0-.708.133,3.017,3.017,0,0,1-.827-.019c-.238-.1-1.4-.589-1.972-.874-.295-.209-.589-.4-.889-.627a5.378,5.378,0,0,1-1.873-2.78c-.789-1.635.057-4.9.632-5.789a10.167,10.167,0,0,1,3.864-3.294,3.453,3.453,0,0,1,1.378.114c.038.1.119.038.195.1.038.057.038.1.1.152h.057c-.019.038-.019.076-.057.1.057.114.356.285.433.38a.259.259,0,0,0,.038.228c.1-.038.1.057.157.1-.019.1-.1.228,0,.3l.062.019c-.019.4-.475.437-.751.7-.257.3-.57.589-.846.894a15.009,15.009,0,0,0-1.953,2.837,3.69,3.69,0,0,0-.1,2.59c-.038.19.157.285.138.456a.386.386,0,0,1,.138.266c.475.855.513.817,1.378,1.141a5.474,5.474,0,0,0,1.716.114,5.859,5.859,0,0,1,1.4-.171c.019.057-.081.057-.081.114a.432.432,0,0,0-.138.323l.057.057c-.043.019-.043.038-.057.076a3.142,3.142,0,0,0,.608.133l.038.019c-.209.086-.585.048-.879.162" transform="translate(-61.096 -135.37)" fill="#819baf"/>
    <path id="Path_2084" data-name="Path 2084" d="M129.521,253.986h-.029c-.157-.214-.347-.4-.49-.632-.043-.029-.014-.128-.071-.086-.2-.157-.342-.385-.561-.49a8.8,8.8,0,0,0-2.11,2.913h-.014c.014.114-.086.185-.071.318a.7.7,0,0,0,.214.475,3.189,3.189,0,0,0,1.464.8,3.853,3.853,0,0,0,1.45-1,2.12,2.12,0,0,0,.314-1.868c-.01-.157-.109-.29-.1-.433m2.424,1.682c.086.171-.014.432,0,.646-.071.185-.043.39-.128.532a3.035,3.035,0,0,1-.49,1.221,1.954,1.954,0,0,1-.461.689,4.492,4.492,0,0,1-.561.475h-.014c-.128.071-.242.242-.418.242-.385.1-.689.661-1.164.675-.029-.071-.071-.014-.128-.014s-.057-.128-.157-.1c.014-.071-.071-.057-.1-.1-.114,0-.2.1-.342.029-.242-.043-.418.143-.618.228.071-.071.2-.114.271-.2-.214,0-.418.19-.618.162.014-.1-.157-.219-.014-.318-.114-.071-.257.071-.356.057.071-.043-.014-.1,0-.157,0-.2.2-.328.143-.532.043-.029.029-.071.029-.1a.614.614,0,0,1-.228,0c-.029-.071.057-.128.086-.185a1.386,1.386,0,0,0-.347.029c0-.242.318-.418.385-.632a.965.965,0,0,0-.632.086,2.791,2.791,0,0,1-.846-.171c-.029.057-.086.014-.114.029-.071-.043-.171-.143-.257-.143a.308.308,0,0,0-.219-.185c.057-.114-.1-.1-.114-.185a2.992,2.992,0,0,1-.228-.314c.029-.128-.114-.185-.128-.3a3.592,3.592,0,0,1-.071-.96l-.043-.029a4.844,4.844,0,0,1,1.307-3.042,5.145,5.145,0,0,0-1.25,2.757l.014.014a5.1,5.1,0,0,1,1.145-2.424,6.8,6.8,0,0,1,.86-.96,2.4,2.4,0,0,1,.242-.261c.2-.2.689-.7.789-.817-.057-.09.014-.228-.071-.3.014-.029.071.057.1-.014-.057-.128.114-.228-.043-.347a.122.122,0,0,0,.171-.071c-.043-.071.057-.043.014-.086.043-.1.1-.219.2-.219-.014-.114.157,0,.114-.114.014,0,.029,0,.043.029.043-.029,0-.057,0-.071.043-.043.128.014.143-.057a.993.993,0,0,1,.5.086l.057-.014c0,.014.029.029.043.029l.071-.014v.014h.114l-.086.029c.2.1.4.2.589.3h.128c-.014.028.029.057.057.071a.138.138,0,0,1,.185.114,5.861,5.861,0,0,1,1.046.874c-.029.114.1.028.071.128a6.179,6.179,0,0,1,.974,1.72c-.043.114.057.128.071.214a11.349,11.349,0,0,1,.318,1.825c-.052.043-.024.09-.038.147" transform="translate(-67.899 -135.872)" fill="#819baf"/>
    <path id="Path_2085" data-name="Path 2085" d="M151.617,262.979c-.071,0-.071.076-.071.076-.076,0-.147,0-.2-.147a.144.144,0,0,0-.09.185v.033a.059.059,0,0,0-.019-.038c-.038-.038-.147-.038-.2-.038v.147c0-.147-.076-.147-.147-.223-.076.076,0,.147,0,.223-.076.076-.076.076,0,.076-.076.071-.147,0-.223-.076-.076.076,0,.076,0,.147a.413.413,0,0,0-.371-.223c-.076.076.076.223-.076.223-.076-.147-.147-.071-.295-.223v-.076a.074.074,0,0,0-.076.076v-.076c-.147,0-.071.147-.071.223-.076-.076,0-.223-.147-.223s-.371.223-.518,0h-.076c-.295-.223-.385-.223-.518-.589a1.35,1.35,0,0,1-.147-.589c-.147,0-.147.147-.295.147l-.442.147a5.66,5.66,0,0,1-2.661.147,4.579,4.579,0,0,0-.889-.371c-.147-.147-.371-.295-.442-.518a2.291,2.291,0,0,1-.813-1.4c-.147-.665,0-1.255-.147-1.849-.076-.813,0-4.506,0-4.8a13.05,13.05,0,0,1,.589-2.438.3.3,0,0,1,.147.295l.147-.295-.076.295c.147-.223.371-.447.518-.665.076,0,.147.147.147.223l.076.371c.147-.076.076-.295.295-.295v-.076c.147.076.147,0,.223-.071a1.3,1.3,0,0,1,.518.071l.223-.147a3.726,3.726,0,0,1-.238,2.067c-.295,1.4-.276,6.278.832,6.944.57.352,1.345.166,1.991.2a21.663,21.663,0,0,1-.295-2.642c0,.076.276,2.5.295,2.661h.076c-.076-.371-.295-4.287-.295-5.765.076-.741.147-1.4.295-2.143.223-.147,0-.371.076-.518V251.3c.147.071.147-.147.295-.128.076-.147.551.109.7-.019h.019v.019l-.019-.019a.1.1,0,0,1,.038.076c.147-.076.223-.147.371-.076,0,0,0,.076.071,0a.1.1,0,0,1,0-.147c.147.076.223.223.295.295.147.071.147.223.295.295v.442c.076,1.554.518,7.832.741,8.721.071.589,0,.223.071.813a1.335,1.335,0,0,1,.147.518,2.038,2.038,0,0,0,.442.889v.076Z" transform="translate(-77.648 -136.092)" fill="#819baf"/>
    <path id="Path_2086" data-name="Path 2086" d="M164.74,245.378v-.019l.119-.019v.019Zm-1.754,10.955v.062c.038-.024.057-.062,0-.062m-.057-10.579c.057.019.1-.019.157-.038-.062,0-.138,0-.157.038m2.719-2.348c.138.038-.062.375.195.314-.019.038-.057.081-.038.138.119.157-.138.219-.219.333,0,.057.038.119.019.176a3.271,3.271,0,0,1-.827.433l.057.019c-.176.138-.451.181-.608.394a1.241,1.241,0,0,1-.532.157c-.157.081-.375.081-.532.181-.019.019.019.038.038.038l.138-.019v.019c.195-.019,1.065-.176,1.283-.2a9.837,9.837,0,0,0-1.559.375l1.359-.257c-.375.1-1.421.314-1.792.375.1.67.276,1.378.333,2.086a5.521,5.521,0,0,0,.1,1.126l.019,2.305c.119.708.276,3.251.314,4.021.057.038.038.1.019.176,0,.019,0,.019-.019.019v0l.019-.019a.059.059,0,0,0-.038-.019c-.138.138-.019.395-.157.513a.324.324,0,0,1-.138.295l-.157.062c0-.019.019-.062-.019-.081h-.038c-.1.1-.019.333-.219.356l-.1.157v-.057a.143.143,0,0,1-.157-.081c-.157.081-.019.475-.257.375-.019-.062-.062-.062-.1-.119-.057,0-.057.057-.1.1l-.057-.057-.038.019c.038.019.019.038.019.062l-.1.019v.062c-.057-.062-.119-.019-.2-.043.062.195-.176.119-.157.295-.019.019-.057.038-.081.019-.1.038-.119.689-.138.808a1.567,1.567,0,0,1-.238-.727c-.019-.119-.176,0-.157-.119-.062-.138-.238.019-.238-.157-.038-.057-.1,0-.157,0-.019.195-.219,0-.276.157a11.139,11.139,0,0,1-.394-1.2l-.1-6.5c-.057-.337-.219-.651-.276-.984.019-.038.081,0,.1-.038a.514.514,0,0,0-.057-.276c-.081.057.038.119-.062.138v.081c-.038-.081-.119-.238.062-.257l-.2-.613a.11.11,0,0,0,.057-.138.5.5,0,0,1-.119-.276l-.081-1.259c-.038-.019-.057-.062-.081,0,.038.314.019.746.081,1.084a5.267,5.267,0,0,0,.1.789h.043l.019.352a3.938,3.938,0,0,1-.176-.927l-.038-.038c-.057-.475-.038-.827-.119-1.278a8.711,8.711,0,0,0-1.659-.238,11.564,11.564,0,0,0-2.267-.238l-.019-.038c.081-.019.219,0,.257-.119-.057-.081.043-.119.057-.181l-.019-.314a5.482,5.482,0,0,0,.352-.608c.057-.019.119,0,.138-.081a.353.353,0,0,0-.081-.119c.019-.038.019-.219.157-.162l.038-.057-.038-.043h-.038c.119-.057.138-.1.219-.219l-.019-.019c.1-.019.276-.038.238-.138-.1-.081-.238-.038-.356-.038.081-.295.532-.356.846-.451,2.191-.238,4.553.038,6.62-.475.67-.157,1.34-.081,2.01-.195-.038.038,0,.1.019.138a.26.26,0,0,0-.1.062c0,.038,0,.076.038.076h.157c.019,0-.019.043.019.081a.261.261,0,0,1,.119-.019c-.119.138.1.176.138.238h.138c-.024.176-.413.214-.2.47" transform="translate(-84.103 -131.789)" fill="#819baf"/>
    <path id="Path_2087" data-name="Path 2087" d="M118.861,238.984l.019-.01a.029.029,0,0,0-.019.01m.266.371c.019.009-.09.038-.071.029-.019.009-.057,0-.048.038.048.038-.052.081.019.09-.038,0-.138.052-.166.052,0,.019,0,.029.019.038s.038-.01.052-.01l.01.038c-.019-.019-.038.009-.038.029-.019.029.019.019.029.029h.029c-.052.029-.128.019-.171.067-.019.081.1.052.109.062-.01,0-.019.019-.038.019a.049.049,0,0,0,.038.019h-.01c-.019.01-.038.01-.048.029a.177.177,0,0,1,.019.157l-.019.052a2.5,2.5,0,0,1-.409.157l-.052.029a3.511,3.511,0,0,1-1.749-.033.85.85,0,0,1-.385-.157c-.01-.038.038-.052.062-.081h.048c0-.052-.052-.071-.09-.109.029,0,.057.038.071,0-.009-.043-.062-.071-.071-.119s.057-.029.048-.071c-.029-.029-.1-.038-.147-.067a.451.451,0,0,1-.119-.456c-.052-.043-.01-.109-.019-.171-.038-.19.043-.356.019-.537.029-.081-.029-.147.019-.219a.677.677,0,0,1,.038-.385c0-.019.219-1.355.209-1.374a.507.507,0,0,1,.048-.238,3.035,3.035,0,0,1,.081-.547c.048-.266.128-.537.181-.794a1.178,1.178,0,0,0,.071-.261.224.224,0,0,1,.128.052c.038-.048,0-.128.071-.147.019.038.048-.014.057.019.019-.019.048-.029.062-.019.1.1.162-.138.276-.01a.22.22,0,0,1,.19-.052.043.043,0,0,0,.048.038c.048-.081.1.062.157,0,.009.019.019.048.038.052h.048c.009-.019,0-.052.009-.071.029.029.01.09.062.109.019-.009.019-.029.01-.048a.135.135,0,0,1-.019-.057.135.135,0,0,1,.019.057.289.289,0,0,0,.071.062h.029c.029.927-.456,3.146-.428,4.092.01.01.029,0,.048.01a.165.165,0,0,0-.048.162l.029.019a10.21,10.21,0,0,1,1.145-.029c.01.09.109.019.171.038a.041.041,0,0,0-.038.038c0,.009.01.009.019.019l.009-.01h.029l-.019.01c-.01,0-.019,0-.019.01l.019.029c-.019-.01-.038.019-.038.029s-.009.033.019.043c0,.009-.1.038-.048.081.048,0,.309-.038.366-.038-.029.071-.394.038-.371.138a1.284,1.284,0,0,0,.428.019c-.033.019-.1,0-.1.052" transform="translate(-63.679 -127.661)" fill="#819baf"/>
    <path id="Path_2088" data-name="Path 2088" d="M126.049,237.221l.081-.009v.009Zm-.746,1.73v.176h.019c-.019-.076,0-.114-.019-.176m-.01.242c-.01.019.01.019.029.019a.057.057,0,0,1,.009-.038Zm-.057-2.177h-.009v.038h.009Zm0-.071h-.009v.038h.009Zm0-.1h-.009v.038h.009Zm2.253-.718.019.01c-.209.048-.347.147-.566.181a2.825,2.825,0,0,1-.466.228,4.011,4.011,0,0,1-1.15.257l-.019.019a2.143,2.143,0,0,0,0,.428,2.552,2.552,0,0,1,.6-.019,2.237,2.237,0,0,0-.608.057c0,.009.01.019.019.029a7.16,7.16,0,0,1,.9-.019l.209.043c.01.019.029.067.062.048.019.048-.01.1.029.128l.052-.009c0,.009-.038.038,0,.062l.048.019a.146.146,0,0,0-.019.128c.019.057.081-.009.09.029-.029.019-.09.038-.062.081.01.052.09.048.062.109.01.029-.01.057.029.062h.029c-.01.028-.029.062-.019.09.009.009.019.009.029.019-.019.048-.1.09-.062.147-.01.038-.038.029-.048.052l.071.081-.147.109c.019.019,0,.038-.019.048.048.038.119.019.157.048,0,.029-.038.038-.052.048-.219-.01-.356.181-.575.143-.228.019-.475,0-.7.019l-.029.019.009.309c.375.01.713.143,1.084.181-.371-.01-.7-.162-1.084-.138-.019.009-.009.038-.009.048a3.753,3.753,0,0,1,1,.228c.071-.029.081.048.109.071,0,.038-.029.071.009.1a.057.057,0,0,0,.038-.01l-.052.052c.029.019.071,0,.081.038.052-.01.052.043.081.071-.052.09.109.076.052.166-.038.052-.109,0-.147.047-.038.019,0,.048-.019.062l.019-.01c-.029.1.076.228-.062.29.038.052-.071.138.029.185.019.043-.033.071-.062.1-.019-.009-.038-.029-.052-.009s-.029.038-.019.052c.029.019.071.048.038.081a.223.223,0,0,1,.081.043c-.128.067-.3,0-.428.076a2.4,2.4,0,0,1-.684-.109,2.458,2.458,0,0,1-1.141-.238l.009-.019c-.009-.081-.119-.109-.119-.19-.067-.01-.019-.09-.09-.1a.074.074,0,0,1-.128-.043c-.038.01-.071,0-.081-.038.01-.019-.01-.038-.029-.048s-.029.01-.038.019l.009.038c-.071-.219,0-.456-.062-.694.009-.741-.029-1.459-.019-2.2a5.372,5.372,0,0,1,.071-.537c-.009-.048-.081-.029-.081-.1-.029-.052.043-.052.052-.1.029-.119.01-.266.081-.366.01-.071-.048-.166.029-.228-.062-.119.147-.176.01-.271.048-.048-.071-.081.01-.128.247-.266.646-.166.955-.238a10.409,10.409,0,0,1,1.383-.147v-.019l.052.01a.669.669,0,0,1,.147-.048c.052.019.109-.029.166-.029.009.019-.048.067,0,.081a2.674,2.674,0,0,1,.585-.052c.019.019.067,0,.081.019a.131.131,0,0,0-.01.119.1.1,0,0,0,.071.029c0,.009-.01.009-.01.029.052.019.128-.019.2,0-.019.052-.048.062-.062.128a.094.094,0,0,0-.009.1c.029.062.09.01.138.019a.116.116,0,0,0,.048.062c-.01.009-.048.043-.038.076.029.01-.01.038.009.052l.048.029-.019.019.038.01c-.009.029-.1.081-.019.119-.019,0-.029.019-.048.029,0,.038.048.048.062.071-.081,0-.081.114-.133.152" transform="translate(-67.692 -127.948)" fill="#819baf"/>
    <path id="Path_2089" data-name="Path 2089" d="M134.45,234.411c.152.009.575-.152.618-.081-.038.024-.071.048-.109.071.033-.014.019,0,.038,0-.128.052-.062.076-.176.133-.147.1-.3.138-.423.233-.024.033.029.01.052.014s.043-.014.029,0a.327.327,0,0,1-.062.052c.181-.009.029.024.223,0-.295.19-.209.09-.47.266,0,.014-.01.033.014.038.257-.071.019.029.3-.057a4.362,4.362,0,0,1-.39.2l.1-.029a2.382,2.382,0,0,1,.409-.109c-.323.176-.347.195-.651.342-.157.124-.342.223-.49.333-.841.613.718,1.773,1.05,2.025a1.283,1.283,0,0,1-.447,2.31,9,9,0,0,1-1.473.413c-.323.043-.523.128-.77.133-.133.057-.19-.052-.314-.019a.235.235,0,0,0,.019-.062c.071-.071.119-.147.048-.166.038-.029-.01-.014,0-.033,0,0,.01,0,.014,0,.028-.038-.062-.009.033-.057.033-.071-.171,0-.081-.1,0,0,.1-.119.048-.067.143-.157-.908-.033-.147-.238a6.228,6.228,0,0,0,1.217-.328c.152-.081,1.131-.328.993-.889-.157-.556-1.331-.96-1.849-2.1-.247-.523.1-1.654,2.647-2.229" transform="translate(-71.626 -127.565)" fill="#819baf"/>
  </g>
</svg>
