<svg xmlns="http://www.w3.org/2000/svg" width="108.5" height="118.198" viewBox="0 0 108.5 118.198">
  <g id="LOGOS-LS-pionniers" transform="translate(-4.339 -22.63)">
    <g id="Group_3388" data-name="Group 3388" transform="translate(5.88 22.63)">
      <path id="Path_2128" data-name="Path 2128" d="M99.367,94.669l-1.7.632c-11.421-4.316-23.322-5.712-34.107-5.712a165.457,165.457,0,0,0-33.845,3.935c-1.293.266-2.623.539-3.281.639-.1-.037-.188-.066-.266-.1-.063-.155-.126-.329-.2-.514,2.453-.643,2.908-.979,3.469-1.814,1.3-1.947-.089-3.625-.754-4.43-.388-.469-.946-1.127-1.622-1.91-1.171-1.356-2.812-3.226-4.877-5.561-2.154-2.435-4.312-4.862-5.679-6.392L23.526,60.27c.443-.739,3.776-6.259,4.862-8.114a152.676,152.676,0,0,1,15.178-7.482c1.145-.418,3.181-1.774,8.705-5.542,3.636-2.483,10.028-6.843,12.684-8.2a47.041,47.041,0,0,1,4.031,4.711l1.825,2.416,2.45-1.777c.388-.281.85-.6,1.286-.887,2.841,2.8,9.378,10.094,13.542,14.739,4.183,4.663,6.6,7.345,7.5,8.206a18.573,18.573,0,0,0,5.72,3.51c1.574,3.333,6.411,16.047,7.707,19.849-1.3,2.154-5.672,7.962-9.655,12.973m16.1-12.659c-.259-1.164-4.951-12.825-4.951-12.825l-4.656-12.093-1.556-.735c-.026-.007-5.52-2.779-6.2-3.144-.769-.724-2.723-3.189-6-6.847s-6.6-7.918-9.607-11.158c-3.288-3.54-6.961-7.9-6.961-7.9l-1.574.3s-1.9,1.208-2.509,1.574c-1.467-2.077-3.994-5.956-3.994-5.956l-1.12-.595s-3.2,1.692-16.775,10.567c-3.207,2.095-7.929,5.051-8.786,5.454-1.371.51-4.681,2.228-8.4,4.061-8.077,3.987-9.148,4.271-9.4,4.7-.5.887-5.08,8.919-6.322,10.977L8.51,74.251l1.847,2.121C14.3,80.78,20.581,87.7,20.537,87.715l-4.027,1.142,1.419,3.669c1.544,5.025,3.174,7.84,5.287,8.221.248.1.938-.835,1.755-.562,1.131.384,2.062.192,5.989-.617,10.929-2.25,39.967-8.221,65.55,1.9l1.1.436,3.965-1c9.636-12.518,13.893-18.9,13.893-18.9" transform="translate(-8.51 -22.63)" fill="#76a0cd"/>
      <path id="Path_2129" data-name="Path 2129" d="M71.288,35.11c-3.1.983-20.484,13.217-22.8,14.059s-16.032,7.763-16.664,8.886-5.121,8.557-5.121,8.557L18.64,81.761s14.24,15.921,14.1,16.132-4.9,1.319-4.9,1.319,1.6,5.206,2.091,5.276.07.03,1.9.647,39.28-11.487,71.688,1.334l3.6-1.334s11.34-14.181,11.059-15.445-7.541-20.048-8.694-22.79L103.4,63.091C100.947,60.774,86.378,44.539,80.81,39.2a37.857,37.857,0,0,0-3.562,1.825L72.2,35.11h-.916Z" transform="translate(-14.897 -30.499)" fill="#fff"/>
      <path id="Path_2130" data-name="Path 2130" d="M141.385,35.84s-6.625,6.6-7.327,7.172c-.754.617-.181,1.142-.181,1.142s5.845-1.744,6.617-1.323,2.3,3.481,2.3,3.481L141.884,48s-5.468-1.615-6.348-.983-7.526,7.822-7.526,7.822a.709.709,0,0,0,.273.388c.776.418,3,.987,3.558,1.323a20.27,20.27,0,0,1,3.285,3.647,31.53,31.53,0,0,0,2.032,2.538l12.3-6.108,2.945-4.349L147.966,40.51l-1.77.972Z" transform="translate(-83.856 -30.959)" fill="#b2cdec"/>
      <path id="Path_2131" data-name="Path 2131" d="M201.62,70.534a1.387,1.387,0,0,1,1.4.351,14.339,14.339,0,0,1,2.032,4.63,14.619,14.619,0,0,1-3.436-1.685Z" transform="translate(-130.269 -52.795)" fill="#b2cdec"/>
    </g>
    <path id="Path_2132" data-name="Path 2132" d="M204.954,130.91,206.5,132.3l-.953.551-.939-.587Z" transform="translate(-126.274 -68.272)" fill="#b2cdec"/>
    <g id="Group_3389" data-name="Group 3389" transform="translate(80.941 60.48)">
      <path id="Path_2133" data-name="Path 2133" d="M211.66,125.839l2.575-.769s4.386,4.09,4.105,4.508a17.389,17.389,0,0,1-2.827-.185h-2.557Z" transform="translate(-211.66 -125.07)" fill="#b2cdec"/>
    </g>
    <path id="Path_2134" data-name="Path 2134" d="M228.9,118.216l4.146,2.021,1.023.676,8.509-3.953-.532-1.308-5.14-3.222Z" transform="translate(-141.589 -56.62)" fill="#b2cdec"/>
    <g id="Group_3390" data-name="Group 3390" transform="translate(4.339 24.23)">
      <path id="Path_2135" data-name="Path 2135" d="M83.5,137.134c-1.81-.709-21.822-1.629-23.9-2.945C48.239,127,35.075,121,33.789,121.072c-1.264.07-7.083-.7-7.083-.7L18.64,135.519s14.24,15.921,14.1,16.132-4.9,1.319-4.9,1.319,1.6,5.206,2.091,5.276.07.03,1.9.647,39.28-11.487,71.688,1.334l3.6-1.334s11.34-14.181,11.059-15.445-3.3.672-4.279,1.023-18.589-3.621-18.589-3.621-10.12-3.059-11.805-3.717" transform="translate(-13.356 -85.857)" fill="#ad7d75"/>
      <path id="Path_2136" data-name="Path 2136" d="M108.173,158.7s3.421,1.293,3.4,2c-.033.924-18.038,3.972-17.406,6.074s6.521,6.03,6.521,6.03,7.578-1.12,8.591-1.356-8.831-3.218-8.868-4.6c-.052-1.833,14.776-4.951,13.97-6.281s-3.917-1.441-3.917-1.441Z" transform="translate(-60.964 -110.024)" fill="#cbbca1"/>
      <path id="Path_2137" data-name="Path 2137" d="M110.279,184.5c-33.586-.7-41.737,3.211-44.19,3.421-9.751.828-17.676,2.472-17.817,2.682a47.4,47.4,0,0,1-4.992.931s1.7,5.594,2.187,5.664.07.03,1.9.647,39.28-11.487,71.684,1.334l3.6-1.334s11.34-14.181,11.059-15.445-5.31,2.531-6.315,2.243c-2.945-.846-15.3-.107-17.115-.144" transform="translate(-28.892 -124.804)" fill="#862c2d"/>
      <path id="Path_2138" data-name="Path 2138" d="M183.42,188.357s9.259-.236,15.219-.007a30.581,30.581,0,0,1,15.02,9.976l-2.649,3.366-3.6,1.334-13.734-4.009s1.67-6.654-10.253-10.66" transform="translate(-117.252 -128.656)" fill="#cabda0"/>
      <path id="Path_2139" data-name="Path 2139" d="M215.17,32.832c.27-1.086,1.6-4.977,6.51-2.638a.126.126,0,0,0,.155-.041,7.64,7.64,0,0,1,6.887-3.17.713.713,0,0,1,.381.148l.972.746a.122.122,0,0,1-.055.218c-.909.129-3.728.621-5.206,1.947-1.626,1.459-1.005,2.79-.4,3.444a.12.12,0,0,1-.07.2l-.3.044a.624.624,0,0,1-.539-.177,6.8,6.8,0,0,0-4.7-2.169,3.128,3.128,0,0,0-3.192,2.132.122.122,0,0,1-.218.03l-.148-.233a.623.623,0,0,1-.081-.484" transform="translate(-137.259 -26.961)" fill="#204a72"/>
      <path id="Path_2140" data-name="Path 2140" d="M8.777,296.347a9.559,9.559,0,0,1,.565,1.4,5.285,5.285,0,0,1,.406,1.556,7.9,7.9,0,0,1,.34,1.241,5.958,5.958,0,0,0,.225.9c.34-.314.565-.676.879-1.016a.171.171,0,0,0,.022-.2c.044-.022.067-.089.111-.066a5.951,5.951,0,0,0,1.083-4.4c-.067-.318-3.407.34-3.632.587m7.6,3.791a14.715,14.715,0,0,1-1.219,2.213,2.986,2.986,0,0,0-.362.406,1.111,1.111,0,0,0-.292.181c.022.044.067.022.092.022-.044.111-1.083.994-1.33.924a6.933,6.933,0,0,1-2.121-.089l-.089.089c.022.044.089.067.067.137a9.957,9.957,0,0,0,.565,3.274.958.958,0,0,0-.362.066l.044.044c-.181.181-.181.724-.225.972-.159-.044-.181-.406-.336-.406a3.968,3.968,0,0,0,.044.879c-.137.066-.27-.111-.406-.2-.092.27.022.676-.248.857-.137-.2-.362.159-.451-.159-.137-.044-.181.089-.27.137.022.066.089.137.067.248-.092.022-.159-.318-.181-.159a1.491,1.491,0,0,1,.022.632l.022.543c-.181-.292-.092-.587-.318-.857-.248.181-.336-.181-.451-.292a5.743,5.743,0,0,0,.159.676l.022.022c0,.044,0,.022-.022,0a2.011,2.011,0,0,1-.2-.517.3.3,0,0,1-.181-.159c.044-.044,0-.089,0-.137a1.412,1.412,0,0,0-.384-.159c-.137-.115-.089-.406-.34-.34a9.033,9.033,0,0,1-.292-2.572c-.067-.972-1.67-8.62-1.737-9.119a.737.737,0,0,0-.61.044c-.225-.066-.521-.022-.676-.181.044-.181-.159-.384.07-.543-.07-.2.137-.362.111-.543a1.544,1.544,0,0,1,.225-.587,7.937,7.937,0,0,1,4.692-3.093c.429-.292.972-.159,1.467-.27a5.715,5.715,0,0,1,2.642.521l.181.022a22.871,22.871,0,0,1,2.01,1.2c0,.2.2.27.248.451.813,1.578,1.33,3.905.406,5.6Z" transform="translate(-4.339 -194.148)" fill="#d42027"/>
      <path id="Path_2141" data-name="Path 2141" d="M53.587,300.895a.244.244,0,0,0-.2.181.149.149,0,0,0,.022.092c-.137.066-.384.066-.429.248-1.286.314-2.527.7-3.813.972-1.33.27-2.775.314-4.087.565a6.62,6.62,0,0,1-1.626.115.672.672,0,0,0,.225-.066.43.43,0,0,0-.429-.181c.089-.044.067-.159.044-.225-.022-.044.022-.066.022-.111l-.044-.2a9.775,9.775,0,0,1,.022-1.445c0-.066.111-.159.044-.225h-.044a.27.27,0,0,0,.159-.159.6.6,0,0,1-.07-.384,9.445,9.445,0,0,1,1.648-.654c.089-.022.159,0,.225-.066-.362-2.121-.111-4.242-.336-6.433l-.044-.022a1.881,1.881,0,0,1-.248.089c.044.9.022,1.873.044,2.8A9.989,9.989,0,0,0,44.831,297c-.362-.318-.225-1.714-.27-2.121l-.022-.225-.022-.406c.067-.517-.044-.791.044-1.241-.7.2-1.467.248-2.187.429l-.27-.022a.048.048,0,0,0-.044-.044c-.159-.022-.406.111-.5-.066-.067-.066-.159-.111-.225-.181.2-.362-.044-.743,0-1.06a1.722,1.722,0,0,1,.137-1.06c-.022-.137.115-.225.159-.362.067-.406.543-.406.835-.565,1.175-.429,2.416-.769,3.588-1.153a15.018,15.018,0,0,1,2.28-.517c.34.159.835-.225,1.131.159.159-.022.248.066.362.137l.473-.089a.4.4,0,0,0,.225.2c.067.225,0,.473.225.588.248.044.565.044.676.292.092.451-.473.587-.5.994A7.14,7.14,0,0,1,48.5,291.72l-.022.044c.2,1.556.318,3.045.451,4.537-.089.111.022.181,0,.292a12.448,12.448,0,0,0,.2,1.851c.521-.044,1.083-.137,1.6-.2.089.022.248-.089.336.022l.429-.044c-.2.066-.451.044-.654.089a5.983,5.983,0,0,0-1.308.248c.2.066.429-.044.61-.022.724-.044,1.533-.159,2.3-.159,0,0-.022.022,0,.022.022.066.115.022.181.044.022.092-.067.248.067.27h.137c-.044.066-.067.159.044.181.181-.044.225.111.406.067.022.089.089.181.115.27-.067.044-.181.022-.181.137a.174.174,0,0,0,.044.137v-.022h.07v.022c-.044-.022-.044.022-.07.044,0,.137.115.2.2.314a.169.169,0,0,1,.225.115c0,.089-.089.248.022.362,0,.044-.111.111,0,.181-.122.081-.078.2-.122.377" transform="translate(-27.642 -191.789)" fill="#d42027"/>
      <path id="Path_2142" data-name="Path 2142" d="M83.663,292.2h-.044c-.248-.34-.543-.632-.769-.994-.067-.044-.022-.2-.111-.137-.318-.248-.543-.61-.879-.769a13.715,13.715,0,0,0-3.318,4.582H78.52c.022.181-.137.292-.111.5a1.094,1.094,0,0,0,.34.746,5.052,5.052,0,0,0,2.3,1.264,6.058,6.058,0,0,0,2.28-1.578,3.349,3.349,0,0,0,.5-2.934c-.03-.248-.188-.451-.166-.676m3.813,2.642c.137.27-.022.676,0,1.016-.115.292-.067.61-.2.835a4.865,4.865,0,0,1-.769,1.918,3.159,3.159,0,0,1-.72,1.083,7.446,7.446,0,0,1-.879.746h-.022c-.2.111-.384.384-.654.384-.61.159-1.083,1.038-1.829,1.06-.044-.115-.111-.022-.2-.022-.111,0-.089-.2-.248-.159.022-.111-.115-.089-.159-.159-.181,0-.314.159-.543.044-.384-.07-.654.225-.972.362.111-.111.314-.181.429-.318-.34,0-.654.292-.972.248.022-.159-.248-.34-.022-.5-.181-.111-.406.111-.565.092.115-.066-.022-.159,0-.248,0-.318.318-.521.225-.835.067-.044.044-.115.044-.159a1,1,0,0,1-.362,0c-.044-.115.089-.2.137-.292a2.158,2.158,0,0,0-.543.044c0-.384.5-.654.61-.994a1.484,1.484,0,0,0-.994.137,4.436,4.436,0,0,1-1.33-.27c-.044.092-.137.022-.181.044-.115-.066-.27-.225-.406-.225a.483.483,0,0,0-.34-.292c.092-.181-.159-.159-.181-.292a4.485,4.485,0,0,1-.362-.5c.044-.2-.181-.292-.2-.473a5.584,5.584,0,0,1-.111-1.511l-.067-.044a7.622,7.622,0,0,1,2.054-4.785,8.089,8.089,0,0,0-1.962,4.334l.022.022A7.952,7.952,0,0,1,77,291.33a10.615,10.615,0,0,1,1.352-1.511,3.241,3.241,0,0,1,.384-.406c.318-.314,1.083-1.1,1.241-1.286-.089-.137.022-.362-.111-.473.022-.044.111.089.159-.022-.092-.2.181-.362-.067-.543a.192.192,0,0,0,.27-.111c-.067-.115.089-.066.022-.137.067-.159.159-.34.318-.34-.022-.181.248,0,.181-.181.022,0,.044,0,.067.044.067-.044,0-.092,0-.115.067-.066.2.022.225-.089a1.535,1.535,0,0,1,.791.137l.089-.022c0,.022.044.044.067.044l.115-.022v.022h.181l-.137.044c.314.159.632.314.924.473h.181c-.022.044.044.089.092.111a.216.216,0,0,1,.292.181,8.921,8.921,0,0,1,1.648,1.374c-.044.181.159.044.115.2a9.779,9.779,0,0,1,1.533,2.708c-.067.181.089.2.115.34a16.778,16.778,0,0,1,.5,2.867c-.089.063-.044.129-.067.222" transform="translate(-48.942 -190.387)" fill="#d42027"/>
      <path id="Path_2143" data-name="Path 2143" d="M119.391,293.033v-.044l.022.022a4.775,4.775,0,0,1,.181.565,2.95,2.95,0,0,1-.2-.543m4.785,10.785a4.744,4.744,0,0,1-.429,1.286c-.089,0-.159-.044-.225-.022a.081.081,0,0,0-.089.089c-.137,0-.115.067-.137.159a.224.224,0,0,0-.022-.067h-.044c-.022.089-.181.044-.159.159h-.022c-.022,0-.044.022-.067.022v.044c-.159-.022-.066-.225-.248-.248a.081.081,0,0,0-.067-.022l-.089-.022c0,.159-.181.044-.225.159h-.022c-.111,0-.137.092-.137.181-.067-.022-.044-.159-.115-.181-.137,0-.066.092-.066.181,0,.022-.022.044-.044.022a.081.081,0,0,0-.089-.089c-.066,0-.137.044-.181.044-.044.022-.137.092-.181.092s-.248-.159-.314-.181c-.022,0-.044.044-.044.089-.044-.137-.225-.137-.248-.292h-.067l-.066.159c-.067-.111-.092-.248-.159-.34,0-.044,0-.044-.044-.044h-.022l-.022.022c-.044,0-.092.044-.067.137a14.523,14.523,0,0,1-2.143-1.918l-.95-1.149v-.044c0-.067-.137-.137-.181-.2-.972-1.149-1.918-2.3-2.8-3.5a.761.761,0,0,0,.225.473l-.225-.248c.044,1.038.27,2.077.292,3.137a4.366,4.366,0,0,1-.181,1.33c-.2,0-.111.292-.292.34a6.346,6.346,0,0,0-.181.61l-.111.044c0-.022,0-.022-.022-.022a.727.727,0,0,1,.066-.2c0-.044-.044-.066-.089-.066l-.044.066c-.022-.022-.066-.044-.066-.022-.137,0-.067.362-.248.406l-.022.111a.169.169,0,0,0-.111-.044,2.549,2.549,0,0,0-.61.292c0,.022-.022.044-.044.067-.022,0-.07-.022-.044-.067-.067,0-.137-.022-.2-.022a.132.132,0,0,0-.115.066c-.066-.022-.111-.092-.181-.115a.124.124,0,0,0-.067.115c-.111.022-.022-.247-.137-.247h-.044l-.022.089c-.067-.044-.067-.181-.159-.137a2.242,2.242,0,0,1-.044-.768c0-.111-.022-.2-.022-.314-.159-1.759-.384-3.543-.384-5.328,0-1.175.067-2.346.137-3.5.137.022.137-.543.248-.7.137-.022.089-.181.111-.248V293.4c0-.089.067-.181.044-.27.022-.022.044-.044.044-.066l-.022-.022c.089-.2.292-.34.384-.543-.022-.092.137-.067.111-.181v-.066c0-.092.092-.159.137-.2.044.022.022.089.089.066l.022-.044c0-.067-.067-.137-.067-.2v-.022c.044.044.044.181.137.181l.022-.044h.044c.111,0,.089.159.2.159l.067.022v-.089c0-.044-.044-.092-.067-.137.067.067.044.2.181.248a.081.081,0,0,0-.022-.066c0-.044-.044-.067-.022-.137l.2.27V292.2c.314.137.473.451.676.7.022.2.292.181.429.248a17.806,17.806,0,0,1,2.572,2.8c1.153,1.4,2.28,2.819,3.521,4.153.066.022.022-.111.044-.159a5.271,5.271,0,0,0-.429-.565c-.473-.517-.946-1.06-1.374-1.6a1.5,1.5,0,0,0-.27-.27c-.7-.857-1.378-1.714-2.077-2.549l-.111-.137c-.2-.247-.429-.473-.632-.676l-.27-.27.248.248c.225.225.451.473.676.721.835.95,1.6,1.962,2.416,2.934.34.406.972,1.1,1.4,1.6.159.181.318.34.473.5l.044-.115c-.044-.743-.067-1.489-.159-2.235-.159,0-.137-.159-.137-.248l-.115-1.241-.066-.044a18.182,18.182,0,0,0-.676-3.07v-.067a.646.646,0,0,0-.044-.2c.044-.022.067-.067.044-.089a.669.669,0,0,0-.044-.2c.044-.022.067.044.092.07a.767.767,0,0,0,0-.225c0-.292.27-.2.473-.2a.506.506,0,0,0,.292-.067.2.2,0,0,0,.159.067c.159,0,.292-.092.451-.092.066.067.111.022.181,0,.022,0,.044.022.067.044a.645.645,0,0,1,.27-.089c.225,0,.159.159.27.159,0-.137.137-.115.2-.115a.2.2,0,0,0,.159-.044c.2.044.314.27.429.429a10.425,10.425,0,0,1,1.356,4.131.254.254,0,0,0-.067.181c0,.137.044.27.044.406,0,.362.181,1.219.2,1.626a24.334,24.334,0,0,1,.292,3.385c-.019.61-.085,1.2-.133,1.8" transform="translate(-71.786 -193.971)" fill="#d42027"/>
      <path id="Path_2144" data-name="Path 2144" d="M156.884,293.033v-.044l.022.022a4.775,4.775,0,0,1,.181.565,2.7,2.7,0,0,1-.2-.543m4.785,10.785a4.743,4.743,0,0,1-.429,1.286c-.089,0-.159-.044-.225-.022a.081.081,0,0,0-.089.089c-.137,0-.115.067-.137.159a.224.224,0,0,0-.022-.067h-.044c-.022.089-.181.044-.159.159h-.022c-.022,0-.044.022-.066.022v.044c-.159-.022-.067-.225-.248-.248a.081.081,0,0,0-.066-.022l-.089-.022c0,.159-.181.044-.225.159h-.022c-.111,0-.137.092-.137.181-.066-.022-.044-.159-.115-.181-.137,0-.066.092-.066.181,0,.022-.022.044-.044.022a.081.081,0,0,0-.089-.089c-.066,0-.137.044-.181.044-.044.022-.137.092-.181.092s-.248-.159-.314-.181c-.022,0-.044.044-.044.089-.044-.137-.225-.137-.248-.292h-.066l-.067.159c-.066-.111-.092-.248-.159-.34,0-.044,0-.044-.044-.044h-.022l-.022.022c-.044,0-.092.044-.07.137a14.714,14.714,0,0,1-2.143-1.918l-.95-1.149v-.044c0-.067-.137-.137-.181-.2-.972-1.149-1.918-2.3-2.8-3.5a.761.761,0,0,0,.225.473l-.225-.248c.044,1.038.27,2.077.292,3.137a4.365,4.365,0,0,1-.181,1.33c-.2,0-.111.292-.292.34a6.351,6.351,0,0,0-.181.61l-.111.044c0-.022,0-.022-.022-.022a.727.727,0,0,1,.067-.2c0-.044-.044-.066-.089-.066l-.044.066c-.022-.022-.066-.044-.066-.022-.137,0-.066.362-.248.406l-.022.111a.169.169,0,0,0-.111-.044,2.549,2.549,0,0,0-.61.292c0,.022-.022.044-.044.067-.022,0-.067-.022-.044-.067-.067,0-.137-.022-.2-.022a.132.132,0,0,0-.115.066c-.066-.022-.111-.092-.181-.115a.124.124,0,0,0-.066.115c-.111.022-.022-.247-.137-.247h-.044l-.022.089c-.067-.044-.067-.181-.159-.137a2.242,2.242,0,0,1-.044-.768c0-.111-.022-.2-.022-.314-.159-1.759-.384-3.543-.384-5.328,0-1.175.066-2.346.137-3.5.137.022.137-.543.248-.7.137-.022.089-.181.111-.248V293.4c0-.089.066-.181.044-.27.022-.022.044-.044.044-.066l-.022-.022c.089-.2.292-.34.384-.543-.022-.092.137-.067.111-.181v-.066c0-.092.092-.159.137-.2.044.022.022.089.089.066l.022-.044c0-.067-.066-.137-.066-.2v-.022c.044.044.044.181.137.181l.022-.044h.044c.111,0,.089.159.2.159l.066.022v-.089c0-.044-.044-.092-.066-.137.066.067.044.2.181.248a.081.081,0,0,0-.022-.066c0-.044-.044-.067-.022-.137l.2.27V292.2c.314.137.473.451.676.7.022.2.292.181.429.248a17.8,17.8,0,0,1,2.572,2.8c1.153,1.4,2.28,2.819,3.521,4.153.067.022.022-.111.044-.159a5.267,5.267,0,0,0-.429-.565c-.473-.517-.946-1.06-1.374-1.6a1.5,1.5,0,0,0-.27-.27c-.7-.857-1.378-1.714-2.077-2.549l-.111-.137c-.2-.247-.429-.473-.632-.676l-.27-.27.248.248c.225.225.451.473.676.721.835.95,1.6,1.962,2.416,2.934.34.406.972,1.1,1.4,1.6.159.181.318.34.473.5l.044-.115c-.044-.743-.066-1.489-.159-2.235-.159,0-.137-.159-.137-.248l-.115-1.241-.066-.044a18.181,18.181,0,0,0-.676-3.07v-.067a.647.647,0,0,0-.044-.2c.044-.022.067-.067.044-.089a.669.669,0,0,0-.044-.2c.044-.022.067.044.092.07a.767.767,0,0,0,0-.225c0-.292.27-.2.473-.2a.506.506,0,0,0,.292-.067.209.209,0,0,0,.159.067c.159,0,.292-.092.451-.092.07.067.115.022.181,0,.022,0,.044.022.07.044a.645.645,0,0,1,.27-.089c.225,0,.159.159.27.159,0-.137.137-.115.2-.115a.2.2,0,0,0,.159-.044c.2.044.314.27.429.429a10.425,10.425,0,0,1,1.356,4.131.255.255,0,0,0-.066.181c0,.137.044.27.044.406,0,.362.181,1.219.2,1.626a24.329,24.329,0,0,1,.292,3.385c-.018.61-.089,1.2-.133,1.8" transform="translate(-95.424 -193.971)" fill="#d42027"/>
      <path id="Path_2145" data-name="Path 2145" d="M195.4,300.895a.24.24,0,0,0-.2.181.149.149,0,0,0,.022.092c-.137.066-.384.066-.429.248-1.286.314-2.527.7-3.813.972-1.33.27-2.775.314-4.087.565a6.62,6.62,0,0,1-1.626.115.672.672,0,0,0,.225-.066.43.43,0,0,0-.429-.181c.089-.044.066-.159.044-.225-.022-.044.022-.066.022-.111l-.044-.2a10.307,10.307,0,0,1,.022-1.445c0-.066.111-.159.044-.225H185.1a.27.27,0,0,0,.159-.159.592.592,0,0,1-.066-.384,9.445,9.445,0,0,1,1.648-.654c.092-.022.159,0,.225-.066-.362-2.121-.111-4.242-.336-6.433l-.044-.022a1.882,1.882,0,0,1-.248.089c.044.9.022,1.873.044,2.8a9.986,9.986,0,0,0,.159,1.219c-.362-.318-.225-1.714-.27-2.121l-.022-.225-.022-.406c.067-.517-.044-.791.044-1.241-.7.2-1.467.248-2.191.429l-.27-.022a.048.048,0,0,0-.044-.044c-.159-.022-.406.111-.5-.066-.066-.066-.159-.111-.225-.181.2-.362-.044-.743,0-1.06a1.723,1.723,0,0,1,.137-1.06c-.022-.137.111-.225.159-.362.066-.406.543-.406.835-.565,1.175-.429,2.416-.769,3.588-1.153a15.018,15.018,0,0,1,2.28-.517c.34.159.835-.225,1.131.159.159-.022.248.066.362.137l.473-.089a.4.4,0,0,0,.225.2c.066.225,0,.473.225.588.248.044.565.044.676.292.092.451-.473.587-.5.994a7.14,7.14,0,0,1-2.439,1.038l-.022.044c.2,1.556.314,3.045.451,4.537-.089.111.022.181,0,.292a12.446,12.446,0,0,0,.2,1.851c.521-.044,1.083-.137,1.6-.2.089.022.248-.089.34.022l.429-.044c-.2.066-.451.044-.654.089a5.983,5.983,0,0,0-1.308.248c.2.066.429-.044.61-.022.724-.044,1.533-.159,2.3-.159,0,0-.022.022,0,.022.022.066.115.022.181.044.022.092-.067.248.066.27h.137c-.044.066-.067.159.044.181.181-.044.225.111.406.067.022.089.089.181.111.27-.066.044-.181.022-.181.137a.174.174,0,0,0,.044.137v-.022h.066v.022c-.044-.022-.044.022-.066.044,0,.137.115.2.2.314a.169.169,0,0,1,.225.115c0,.089-.089.248.022.362,0,.044-.111.111,0,.181-.122.081-.078.2-.122.377" transform="translate(-117.055 -191.789)" fill="#d42027"/>
      <path id="Path_2146" data-name="Path 2146" d="M222.209,294.035l.2-.022v.022Zm-1.851,4.29v.429h.044c-.044-.181,0-.273-.044-.429m-.022.61c-.022.044.022.044.066.044a.133.133,0,0,1,.022-.089Zm-.133-5.394h-.022v.089h.022Zm0-.181h-.022v.089h.022Zm0-.248h-.022v.089h.022Zm5.572-1.785.044.022c-.521.115-.857.362-1.4.451a9.276,9.276,0,0,1-1.153.565,9.758,9.758,0,0,1-2.845.632l-.044.044a5.647,5.647,0,0,0,0,1.06,6.447,6.447,0,0,1,1.489-.044,5.748,5.748,0,0,0-1.511.137c0,.022.022.044.044.066a18.816,18.816,0,0,1,2.235-.044l.521.115c.022.044.066.159.159.111.044.115-.022.248.067.318l.137-.022c0,.022-.092.092,0,.159l.111.044a.373.373,0,0,0-.044.314c.044.137.2-.022.225.066-.07.044-.225.092-.159.2.022.137.225.115.159.27.022.066-.022.137.066.159h.067a.412.412,0,0,0-.044.225c.022.022.044.022.067.044-.044.111-.248.225-.159.362-.022.089-.092.066-.115.137l.181.2-.362.27c.044.044,0,.092-.044.111.115.089.292.044.384.115,0,.067-.089.089-.137.111-.543-.022-.879.451-1.423.362-.565.044-1.175,0-1.737.044l-.067.044.022.769c.924.022,1.759.362,2.686.451a25.766,25.766,0,0,0-2.686-.336c-.044.022-.022.089-.022.111a9.26,9.26,0,0,1,2.483.565c.181-.066.2.111.27.181,0,.089-.066.181.022.248a.133.133,0,0,0,.089-.022l-.137.137c.066.044.181,0,.2.089.137-.022.137.111.2.181-.137.225.27.181.137.406-.092.137-.27,0-.362.111-.089.044,0,.115-.044.159l.044-.022c-.067.248.181.565-.159.72.092.137-.181.336.066.451.044.111-.089.181-.159.248-.044-.022-.092-.07-.137-.022-.022.044-.066.089-.044.137.067.044.181.115.089.2a.439.439,0,0,1,.2.115c-.318.159-.746,0-1.06.181a6.274,6.274,0,0,1-1.692-.27c-.972-.137-2.032-.022-2.819-.587l.022-.044c-.022-.2-.292-.27-.292-.473-.159-.022-.044-.225-.225-.248a.175.175,0,0,0-.2.044.17.17,0,0,0-.115-.159c-.089.022-.181,0-.2-.089.022-.044-.022-.092-.07-.115s-.066.022-.089.044l.022.089c-.181-.543,0-1.127-.159-1.714.022-1.829-.066-3.61-.044-5.439,0-.429.137-.879.181-1.33-.022-.115-.2-.07-.2-.225-.066-.137.111-.137.137-.248.066-.292.022-.654.2-.9.022-.181-.111-.406.066-.565-.159-.3.362-.429.022-.676.111-.111-.181-.2.022-.314.61-.654,1.6-.406,2.368-.587a25.374,25.374,0,0,1,3.433-.362v-.044l.137.022a1.664,1.664,0,0,1,.362-.111c.137.044.27-.066.406-.066.022.044-.111.159,0,.2a6.383,6.383,0,0,1,1.445-.137c.044.044.159,0,.2.044a.339.339,0,0,0-.022.292.261.261,0,0,0,.181.066c0,.022-.022.022-.022.066.137.044.318-.044.5,0-.044.137-.111.159-.159.314a.245.245,0,0,0-.022.248c.067.159.225.022.336.044a.265.265,0,0,0,.115.159c-.022.022-.115.111-.089.181.066.022-.022.092.022.137l.115.066-.044.044.089.022c-.022.067-.248.2-.044.292-.044,0-.066.044-.115.066,0,.092.115.115.159.181-.192,0-.192.277-.329.366" transform="translate(-137.977 -191.972)" fill="#d42027"/>
      <path id="Path_2147" data-name="Path 2147" d="M252.71,295.1v-.022l.092.044v.022Zm-6.248-8.871c.2.72.362,3.362.565,3.521.159-.044.137-.292.34-.292.406-.5.835-.879,1.286-1.4a.348.348,0,0,0,.181-.292c.473-.676,1.153-1.352.813-2.28a8.8,8.8,0,0,0-3.185.743m6.654,10.586.044.181c0,.022-.089-.066-.137-.089-.066.089.089.137.111.225-.111.066-.089-.137-.2-.137-.044.159.115.27.159.384-.044-.022-.066-.067-.089-.067s-.022.022-.044.044c-.022,0-.137-.27-.248-.181.067.115.159.225.225.34a.11.11,0,0,0-.044.159l.022-.022.022.044v.022l-.044-.044a.082.082,0,0,0-.067-.022c-.115.044.022.181.022.2a4.639,4.639,0,0,1-.406-.292.177.177,0,0,0-.044.181l.089.137-.066.022c.022.089.022.159.111.225l-.137-.092.248.362c-.044,0-.225-.248-.318-.089v.159l-.159-.089.137.2-.137-.2a41.618,41.618,0,0,0-4.445-3.769c.5.451,1.016,1.038,1.219,1.175l.181.159.314.248c.406.451.7.5.994.994-.743-.565-2.28-1.962-3.022-2.572-.044-.022-.137-.066-.248-.111,0,.137.044.318-.022.406.137.066.066.248.044.34a7.148,7.148,0,0,1-.111,2.753c.044.181-.2.159-.181.292-.115.066-.2-.044-.292.092-.089-.022-.089-.092-.137-.137-.092.044-.022.137-.115.181-.067-.044-.089-.181-.2-.111,0,.044.044.066.022.111-.089-.137-.181-.089-.27-.2-.044.044-.044.092-.022.115-.044-.044-.066-.159-.137-.159-.022.022,0,.066.022.089-.111.022-.181.137-.248,0-.022.022-.066.022-.066.044-.044,0-.115-.044-.181,0-.044,0-.066.044-.044.067-.181.044,0-.27-.159-.362-.111-.044-.111-.225-.225-.2-.022.044.044.092.022.137l-.089.022c-.022.022,0,.066,0,.089-.137.022-.115.181-.137.225-.159-.022-.318.159-.406.181-.248-.181-.137-.429-.292-.676l-.115-2.076c-.115-1.873-.115-3.905-.044-5.779.159-.115-.137-.248.067-.362-.022-.159-.137-.336-.022-.451.044-.066-.022-.181-.066-.225.066-.654-.067-1.241-.044-1.873-.089-.066.022-.137.022-.225-.066-.181.022-.429-.022-.61-.2-.181-.362-.362-.543-.517-.066-.2-.384-.2-.318-.406l.159-.111-.044-.044c.044-.022.2.066.2-.066a.221.221,0,0,1-.089-.111c0-.022.044-.044.044-.066l-.022-.022c.092,0,.137-.067.225-.111l-.044-.044a.239.239,0,0,0,.225-.181c-.044-.022-.066-.115,0-.137.248-.066.314-.34.565-.406a14.647,14.647,0,0,1,2.143-1.175.561.561,0,0,0,.406-.181,10.984,10.984,0,0,0,1.219-.34,7.262,7.262,0,0,1,3.181.318,2.957,2.957,0,0,1,1.737,2.191,7.26,7.26,0,0,1,.248,1.2c.022.066.022,3.2-3.543,5.753-.044,0-.066.044-.111.066v.089c.384.27,1.781,1.445,2.143,1.759.181.2.813.994,1.016,1.2-.022.044,0,.067.044.111s.089.066.137.115c-.044-.022-.089-.067-.137-.092l-.022-.044a.192.192,0,0,0-.137-.066l.111.2a.031.031,0,0,0-.044,0,.839.839,0,0,0,.384.406c-.044,0-.089-.092-.137-.044.159.225.181.451.34.654.089.27.314.517.314.791l.092.159c-.107-.041-.177-.266-.336-.222" transform="translate(-154.714 -187.914)" fill="#d42027"/>
      <path id="Path_2148" data-name="Path 2148" d="M276.41,283.155c.443.033,1.681-.447,1.807-.236-.107.07-.214.14-.314.211.1-.033.059.011.111,0-.377.155-.177.222-.521.388-.429.277-.887.4-1.241.676-.07.1.089.033.151.044.044-.011.126-.044.078.022s-.118.1-.174.155c.532-.022.085.078.654-.011-.865.554-.606.266-1.374.776.007.044-.026.1.048.111.754-.211.052.078.876-.166a10.979,10.979,0,0,1-1.134.576l.3-.089a6.561,6.561,0,0,1,1.193-.314c-.953.514-1.012.569-1.907,1-.454.358-1,.661-1.434.979-2.464,1.8,2.1,5.191,3.067,5.919.868.65,3.9,4.615-1.3,6.762a26.043,26.043,0,0,1-4.3,1.2,21.112,21.112,0,0,1-2.25.388c-.384.166-.554-.159-.909-.048a1.609,1.609,0,0,0,.052-.177c.2-.211.347-.432.137-.5.118-.078-.03-.044-.011-.1l.041-.022c.089-.111-.181-.022.1-.166.1-.211-.5-.011-.236-.277-.018-.022.281-.351.14-.2.418-.454-2.66-.092-.425-.695a17.447,17.447,0,0,0,3.566-.968c.443-.236,3.311-.957,2.9-2.6-.458-1.618-3.894-2.812-5.409-6.145-.732-1.519.284-4.833,7.73-6.507" transform="translate(-169.828 -188.312)" fill="#d42027"/>
      <path id="Path_2149" data-name="Path 2149" d="M97.6,249.455c-.336-.022-1.264.336-1.356.177.081-.052.159-.107.233-.159-.074.026-.044-.007-.081,0,.281-.115.133-.166.392-.292.321-.207.669-.3.935-.51.052-.074-.067-.026-.118-.033-.033.007-.092.033-.059-.015s.089-.078.129-.118c-.4.018-.063-.059-.491.011.65-.418.454-.2,1.031-.584,0-.033.018-.074-.033-.085-.569.159-.041-.059-.658.126a8.936,8.936,0,0,1,.854-.436l-.229.066a4.681,4.681,0,0,1-.9.236c.717-.384.761-.429,1.434-.754.344-.266.75-.5,1.079-.735,1.851-1.352-1.578-3.9-2.306-4.452-.65-.488-2.93-3.469.979-5.084a19.628,19.628,0,0,1,3.237-.905,15.433,15.433,0,0,1,1.692-.292c.288-.126.414.122.684.037-.015.044-.03.089-.041.133-.151.159-.262.325-.1.373-.089.059.022.033.007.074l-.03.018c-.067.085.133.015-.074.126-.078.159.377.007.177.207.015.018-.214.266-.107.152-.314.344,2,.07.321.525a13.058,13.058,0,0,0-2.679.728c-.336.177-2.49.717-2.18,1.951.344,1.216,2.93,2.113,4.064,4.622.554,1.145-.211,3.632-5.8,4.892" transform="translate(-62.259 -158.499)" fill="#819baf"/>
      <path id="Path_2150" data-name="Path 2150" d="M186.9,235.472c.347.026,1.319-.351,1.419-.185q-.127.083-.244.166c.078-.026.048.007.089,0-.3.122-.137.174-.406.3-.336.218-.7.314-.972.532-.055.078.07.026.122.033.033-.007.1-.033.059.018s-.092.081-.137.122c.418-.018.066.059.514-.011-.68.436-.477.211-1.079.61,0,.037-.018.078.037.089.591-.166.041.063.687-.133a8.149,8.149,0,0,1-.89.454l.236-.07a4.631,4.631,0,0,1,.938-.244c-.746.4-.794.443-1.5.787-.355.281-.783.517-1.127.769-1.932,1.411,1.648,4.075,2.409,4.644.68.51,3.059,3.625-1.023,5.31a20.714,20.714,0,0,1-3.377.946,16.4,16.4,0,0,1-1.766.307c-.3.129-.436-.126-.713-.041.015-.048.03-.092.041-.137.159-.166.273-.34.107-.392.092-.059-.022-.033-.007-.078.011-.007.022-.011.033-.018.067-.085-.14-.015.078-.129.081-.166-.4-.007-.185-.218-.015-.018.222-.277.111-.155.329-.358-2.088-.07-.336-.547a13.8,13.8,0,0,0,2.8-.757c.351-.185,2.6-.75,2.276-2.04-.358-1.271-3.056-2.206-4.245-4.825-.591-1.193.207-3.8,6.052-5.11" transform="translate(-114.704 -158.287)" fill="#819baf"/>
      <path id="Path_2151" data-name="Path 2151" d="M123.618,251.139c-.015.048.081.033.033.092a1.373,1.373,0,0,1-.288.078c-.03.015-.015.063-.03.092.03.063.1.015.144.033.063-.033.144.03.222,0,.063.122-.1.107-.159.122-.063-.015,0,.048-.063.063.015.044.081,0,.129.03.015.059-.1.107-.033.155.015.14-.174.092-.192.2a.112.112,0,0,0-.111.092c.048.03.111.03.1.092-.1,0-.126.107-.192.137l-.015.015.111.048c-.015.015-.063.044-.081,0-.063.044-.177-.015-.222.03.033.078.1.033.159.078,0,.015-.111.033-.063.107-.063-.015-.192-.044-.24.048-.018.137-.225-.033-.273.107l.063.048a4.3,4.3,0,0,0-.573.107,2.383,2.383,0,0,1-.669-.015c-.192-.074-1.131-.477-1.592-.706-.24-.17-.48-.321-.717-.51a4.343,4.343,0,0,1-1.515-2.246c-.639-1.323.048-3.957.51-4.681a8.257,8.257,0,0,1,3.122-2.664,2.777,2.777,0,0,1,1.116.092c.03.078.1.03.159.078.033.048.033.078.081.122h.048c-.015.03-.015.063-.048.078.048.092.288.229.351.307a.206.206,0,0,0,.033.185c.081-.03.081.048.126.078-.015.078-.081.185,0,.244l.048.015c-.015.325-.381.355-.606.569-.207.248-.462.477-.684.724a11.687,11.687,0,0,0-1.578,2.295,2.97,2.97,0,0,0-.081,2.095c-.033.155.126.229.111.369a.329.329,0,0,1,.111.214c.381.691.414.661,1.116.924a4.344,4.344,0,0,0,1.386.092,4.57,4.57,0,0,1,1.131-.137c.018.044-.063.044-.063.092a.364.364,0,0,0-.111.262l.048.048c-.033.015-.033.03-.048.063a2.613,2.613,0,0,0,.5.107l.03.015a6.462,6.462,0,0,0-.732.118" transform="translate(-75.555 -162.584)" fill="#819baf"/>
      <path id="Path_2152" data-name="Path 2152" d="M135.189,246.15h-.026c-.126-.174-.277-.325-.4-.51-.033-.022-.011-.1-.059-.07-.163-.126-.277-.31-.451-.392a7.1,7.1,0,0,0-1.707,2.354h-.011c.011.092-.07.151-.059.255a.553.553,0,0,0,.174.381,2.586,2.586,0,0,0,1.182.65,3.122,3.122,0,0,0,1.171-.813,1.72,1.72,0,0,0,.255-1.508c0-.129-.085-.233-.074-.347m1.962,1.356c.07.14-.011.347,0,.521-.059.151-.033.314-.1.429a2.488,2.488,0,0,1-.4.987,1.594,1.594,0,0,1-.373.558,3.75,3.75,0,0,1-.451.384h-.011c-.1.059-.2.2-.336.2-.314.081-.558.532-.938.547-.026-.059-.059-.011-.1-.011s-.048-.1-.126-.081c.011-.059-.059-.048-.081-.081-.092,0-.163.081-.277.022-.2-.033-.336.115-.5.185.059-.059.163-.092.222-.163-.174,0-.336.151-.5.129.011-.081-.126-.174-.011-.255-.092-.059-.211.059-.292.048.059-.033-.011-.081,0-.129,0-.163.163-.266.115-.429.037-.022.026-.059.026-.081a.518.518,0,0,1-.185,0c-.022-.059.048-.1.07-.151a1.11,1.11,0,0,0-.277.022c0-.2.255-.336.314-.51a.78.78,0,0,0-.51.07,2.321,2.321,0,0,1-.684-.14c-.022.048-.07.011-.092.026-.059-.033-.14-.115-.207-.115a.247.247,0,0,0-.174-.151c.048-.092-.081-.081-.092-.151a2.063,2.063,0,0,1-.185-.255c.022-.1-.092-.151-.1-.244a3.017,3.017,0,0,1-.059-.776l-.033-.022a3.917,3.917,0,0,1,1.057-2.461,4.174,4.174,0,0,0-1.009,2.228l.011.011a4.116,4.116,0,0,1,.927-1.962,5.733,5.733,0,0,1,.695-.776,1.455,1.455,0,0,1,.2-.211c.163-.163.558-.569.639-.661-.048-.07.011-.185-.059-.244.011-.022.059.048.081-.011-.048-.1.092-.185-.033-.281a.1.1,0,0,0,.14-.059c-.037-.059.044-.033.011-.07.033-.081.081-.174.163-.174-.011-.092.129,0,.092-.092.011,0,.022,0,.033.022.033-.022,0-.048,0-.059.033-.033.1.011.115-.048a.784.784,0,0,1,.406.07l.044-.011c0,.011.022.022.033.022l.059-.011v.011h.092l-.07.022c.163.081.325.163.477.244h.092c-.011.022.026.044.048.059a.114.114,0,0,1,.151.092,4.511,4.511,0,0,1,.846.709c-.026.092.081.022.059.1a5,5,0,0,1,.787,1.393c-.037.092.048.1.059.174a8.361,8.361,0,0,1,.255,1.474c-.059.037-.037.07-.048.118" transform="translate(-84.075 -163.197)" fill="#819baf"/>
      <path id="Path_2153" data-name="Path 2153" d="M157.316,253.529a.058.058,0,0,0-.059.059c-.059,0-.118,0-.166-.118a.116.116,0,0,0-.074.148v.03a.046.046,0,0,0-.015-.03c-.03-.03-.118-.03-.163-.03v.118c0-.118-.059-.118-.118-.181-.059.059,0,.118,0,.181-.059.059-.059.059,0,.059-.059.059-.122,0-.181-.059-.059.059,0,.059,0,.118a.327.327,0,0,0-.3-.177c-.059.059.059.177-.059.177-.059-.118-.118-.059-.236-.177v-.059a.058.058,0,0,0-.059.059v-.059c-.118,0-.059.118-.059.181-.059-.059,0-.181-.122-.181s-.3.181-.418,0h-.063c-.236-.181-.314-.181-.418-.477a1.139,1.139,0,0,1-.122-.477c-.118,0-.118.118-.24.118l-.358.118a4.554,4.554,0,0,1-2.15.118,3.7,3.7,0,0,0-.717-.3,1.156,1.156,0,0,1-.358-.418,1.859,1.859,0,0,1-.658-1.134c-.118-.536,0-1.016-.118-1.493-.059-.658,0-3.643,0-3.883a10.4,10.4,0,0,1,.48-1.973.241.241,0,0,1,.118.24l.122-.24-.059.24c.118-.177.3-.358.418-.539.059,0,.118.118.118.177l.059.3c.118-.059.059-.24.24-.24v-.059c.122.059.122,0,.181-.059a1.023,1.023,0,0,1,.418.059l.177-.118a3.016,3.016,0,0,1-.2,1.67c-.24,1.134-.225,5.077.672,5.612.462.284,1.09.133,1.611.166a17.308,17.308,0,0,1-.236-2.136c0,.059.225,2.014.236,2.15h.059c-.059-.3-.24-3.466-.24-4.659a17.44,17.44,0,0,1,.24-1.733c.177-.118,0-.3.059-.418v-.118c.118.059.118-.118.24-.1.059-.118.447.089.569-.015h.015v.015l-.015-.015a.077.077,0,0,1,.03.059c.118-.059.177-.118.3-.059,0,0,0,.059.059,0a.082.082,0,0,1,0-.118c.118.059.177.177.24.24.122.059.122.181.236.24v.358c.059,1.256.418,6.329.6,7.046.059.48,0,.181.059.658a1.113,1.113,0,0,1,.118.418,1.606,1.606,0,0,0,.358.717v.059Z" transform="translate(-96.217 -163.486)" fill="#819baf"/>
      <path id="Path_2154" data-name="Path 2154" d="M170.793,237.38v-.015l.1-.015v.015Zm-1.419,8.857v.048c.033-.018.048-.048,0-.048m-.044-8.554c.048.018.078-.015.126-.033-.044,0-.111,0-.126.033m2.2-1.9c.111.033-.048.3.159.255-.018.033-.048.063-.033.111.1.126-.111.174-.174.27,0,.048.033.1.015.144a2.755,2.755,0,0,1-.669.351l.048.015c-.144.111-.366.144-.5.318a.967.967,0,0,1-.429.126,3.891,3.891,0,0,0-.429.144c-.015.015.015.03.033.03l.111-.015v.015c.159-.015.861-.144,1.035-.159a7.754,7.754,0,0,0-1.26.3l1.1-.207c-.3.081-1.145.255-1.448.3.081.543.222,1.116.27,1.689a4.358,4.358,0,0,0,.078.909l.015,1.862c.1.573.222,2.627.255,3.248.048.033.033.078.015.144,0,.015,0,.015-.015.015v0l.015-.015a.051.051,0,0,0-.033-.015c-.111.111-.015.318-.126.414a.274.274,0,0,1-.111.24l-.126.048c0-.015.015-.048-.015-.063h-.033c-.081.081-.015.27-.174.288l-.081.126v-.048a.114.114,0,0,1-.126-.063c-.126.063-.015.381-.207.3-.015-.048-.048-.048-.081-.1-.048,0-.048.048-.078.078l-.048-.048-.033.015c.033.015.018.033.018.048l-.081.015v.048c-.048-.048-.1-.015-.159-.033.048.159-.144.1-.126.24-.015.015-.048.03-.063.015-.078.033-.1.558-.111.654a1.271,1.271,0,0,1-.192-.587c-.015-.1-.144,0-.126-.1-.048-.111-.192.018-.192-.126-.033-.048-.078,0-.126,0-.015.159-.174,0-.222.126a9.07,9.07,0,0,1-.318-.972l-.081-5.254c-.048-.27-.177-.525-.222-.8.018-.033.063,0,.081-.033a.368.368,0,0,0-.048-.222c-.063.048.033.1-.048.111v.063c-.033-.063-.1-.192.048-.207l-.159-.5a.087.087,0,0,0,.048-.111.4.4,0,0,1-.1-.222l-.063-1.02c-.03-.015-.048-.048-.063,0,.033.255.015.606.063.876a4.4,4.4,0,0,0,.081.636h.033l.015.288a3.129,3.129,0,0,1-.144-.75l-.033-.033c-.048-.381-.03-.669-.1-1.035a7.03,7.03,0,0,0-1.338-.192,9.458,9.458,0,0,0-1.833-.192l-.015-.033c.063-.015.174,0,.207-.1-.048-.063.033-.1.048-.144l-.015-.255a4.316,4.316,0,0,0,.285-.5c.048-.015.1,0,.111-.063a.474.474,0,0,0-.063-.1c.015-.033.015-.177.126-.129l.033-.048-.033-.033h-.033c.1-.048.111-.078.177-.177l-.015-.015c.081-.015.222-.033.192-.111-.081-.063-.192-.03-.288-.03.063-.24.429-.288.684-.366,1.77-.192,3.68.033,5.354-.381.543-.129,1.083-.063,1.626-.159-.03.033,0,.081.015.111a.16.16,0,0,0-.078.048c0,.03,0,.063.033.063h.126c.015,0-.015.033.015.063a.211.211,0,0,1,.1-.015c-.1.111.081.144.111.192h.111c-.044.155-.358.188-.185.4" transform="translate(-104.308 -158.088)" fill="#819baf"/>
      <path id="Path_2155" data-name="Path 2155" d="M124.671,230.383l.015-.007a.023.023,0,0,0-.015.007m.214.3c.015.007-.074.03-.059.022-.015.007-.044,0-.037.03.037.03-.044.067.015.074-.03,0-.111.044-.133.044,0,.015,0,.022.015.03s.03-.007.044-.007l.007.03c-.015-.015-.03.007-.03.022s.015.015.022.022h.022c-.044.022-.1.015-.14.052-.015.066.081.044.089.048s-.015.015-.03.015a.038.038,0,0,0,.03.015h-.007c-.015.007-.03.007-.037.022a.146.146,0,0,1,.015.126l-.015.044a1.807,1.807,0,0,1-.333.126l-.044.022a2.779,2.779,0,0,1-1.415-.03.709.709,0,0,1-.31-.126c-.007-.03.03-.044.052-.067h.037c0-.044-.044-.059-.074-.089.022,0,.044.03.059,0-.007-.037-.052-.059-.059-.1s.044-.022.037-.059-.081-.03-.118-.052a.362.362,0,0,1-.1-.369c-.044-.037-.007-.089-.015-.14-.03-.155.037-.288.015-.436.022-.067-.022-.118.015-.177a.562.562,0,0,1,.03-.31c0-.015.177-1.1.17-1.112a.425.425,0,0,1,.037-.192,2.219,2.219,0,0,1,.067-.44c.037-.214.1-.436.148-.643a1.017,1.017,0,0,0,.059-.214.166.166,0,0,1,.1.044c.03-.037,0-.1.059-.118.015.03.037-.015.044.015a.049.049,0,0,1,.052-.015c.081.081.133-.111.222-.007a.2.2,0,0,1,.155-.044.034.034,0,0,0,.037.03c.037-.066.081.052.126,0,.007.015.015.037.03.044h.037c.007-.015,0-.044.007-.059.022.022.007.074.052.089.015-.007.015-.022.007-.037a.105.105,0,0,1-.015-.044.105.105,0,0,1,.015.044.2.2,0,0,0,.059.052h.022c.022.75-.369,2.542-.347,3.307.007.007.022,0,.037.007a.139.139,0,0,0-.037.133l.022.015a7.734,7.734,0,0,1,.927-.022c.007.074.089.015.14.03a.032.032,0,0,0-.03.03c0,.007.007.007.015.015l.007-.007h.022l-.015.007c-.007,0-.015,0-.015.007l.015.022c-.015-.007-.03.015-.03.022s-.007.03.015.037c0,.007-.081.03-.037.067.037,0,.251-.03.3-.03-.022.059-.318.03-.3.111a1.089,1.089,0,0,0,.347.015c-.022.03-.074.015-.074.059" transform="translate(-78.759 -152.924)" fill="#819baf"/>
      <path id="Path_2156" data-name="Path 2156" d="M132.24,229.144l.067-.007v.007Zm-.6,1.4v.14h.015c-.015-.055,0-.085-.015-.14m-.007.2c-.007.015.007.015.022.015a.044.044,0,0,1,.007-.03Zm-.044-1.759h-.007v.03h.007Zm0-.059h-.007v.03h.007Zm0-.081h-.007v.03h.007Zm1.818-.58.015.007c-.17.037-.281.118-.458.148a2.747,2.747,0,0,1-.377.185,3.226,3.226,0,0,1-.927.207l-.015.015a1.819,1.819,0,0,0,0,.347,2.116,2.116,0,0,1,.484-.015,1.858,1.858,0,0,0-.491.044c0,.007.007.015.015.022a6,6,0,0,1,.728-.015l.17.037c.007.015.022.052.052.037.015.037-.007.081.022.1l.044-.007c0,.007-.03.03,0,.052l.037.015a.121.121,0,0,0-.015.1c.015.044.066-.007.074.022-.022.015-.074.03-.052.066s.074.037.052.089c.007.022-.007.044.022.052h.022c-.007.022-.022.052-.015.074s.015.007.022.015c-.015.037-.081.074-.052.118-.007.03-.03.022-.037.044l.059.066-.118.089c.015.015,0,.03-.015.037.037.03.1.015.126.037,0,.022-.03.03-.044.037-.177-.007-.288.148-.466.118-.185.015-.384,0-.565.015l-.022.015.007.251c.3.007.573.118.876.148a8.729,8.729,0,0,0-.876-.111c-.015.007-.007.03-.007.037a2.966,2.966,0,0,1,.809.185c.059-.022.066.037.089.059,0,.03-.022.059.007.081a.044.044,0,0,0,.03-.007l-.044.044c.022.015.059,0,.067.03.044-.007.044.037.066.059-.044.074.089.059.044.133-.03.044-.089,0-.118.037-.03.015,0,.037-.015.052l.015-.007c-.022.081.059.185-.052.233.03.044-.059.111.022.148.015.037-.03.059-.052.081-.015-.007-.03-.022-.044-.007s-.022.03-.015.044.059.037.03.066a.151.151,0,0,1,.067.037c-.1.052-.244,0-.347.059a2.02,2.02,0,0,1-.554-.089,2,2,0,0,1-.92-.192l.007-.015c-.007-.066-.1-.089-.1-.155-.052-.007-.015-.074-.074-.081a.057.057,0,0,0-.066.015.056.056,0,0,0-.037-.052c-.03.007-.059,0-.067-.03s-.007-.03-.022-.037-.022.007-.03.015l.007.03c-.059-.177,0-.369-.052-.558.007-.6-.022-1.179-.015-1.774,0-.14.044-.288.059-.432-.007-.037-.067-.022-.067-.074-.022-.044.037-.044.044-.081.022-.1.007-.214.066-.3.007-.059-.037-.133.022-.185-.052-.1.118-.14.007-.222.037-.037-.059-.066.007-.1.2-.214.525-.133.772-.192a8.1,8.1,0,0,1,1.12-.118v-.015l.044.007a.556.556,0,0,1,.118-.037c.044.015.089-.022.133-.022.007.015-.037.052,0,.067a2.051,2.051,0,0,1,.473-.044c.015.015.052,0,.067.015a.11.11,0,0,0-.007.1.084.084,0,0,0,.059.022c0,.007-.007.007-.007.022.044.015.1-.015.163,0-.015.044-.037.052-.052.1a.079.079,0,0,0-.007.081c.022.052.074.007.111.015a.085.085,0,0,0,.037.052c-.007.007-.037.037-.03.059s-.007.03.007.044l.037.022-.015.015.03.007c-.007.022-.081.066-.015.1-.015,0-.022.015-.037.022,0,.03.037.037.052.059-.063-.011-.063.078-.107.107" transform="translate(-83.763 -153.341)" fill="#819baf"/>
      <path id="Path_2157" data-name="Path 2157" d="M140.787,226.673c.122.007.466-.122.5-.066-.03.018-.059.041-.085.059.026-.011.015,0,.03,0-.1.044-.048.059-.144.107-.118.078-.244.111-.344.188-.018.026.026.007.044.011s.033-.011.022.007-.033.03-.048.044c.148-.007.022.018.181,0-.24.155-.166.074-.381.214,0,.011-.007.026.015.03.207-.059.015.022.24-.048a2.792,2.792,0,0,1-.314.159l.085-.022a1.682,1.682,0,0,1,.329-.089c-.262.14-.281.155-.525.277-.126.1-.277.181-.4.27-.68.5.58,1.434.85,1.637a1.037,1.037,0,0,1-.362,1.87,6.818,6.818,0,0,1-1.19.333,5.952,5.952,0,0,1-.621.107c-.107.044-.155-.044-.251-.015a.239.239,0,0,0,.015-.048c.055-.059.1-.118.037-.137.033-.022-.007-.015,0-.03s.007,0,.011-.007c.022-.03-.052-.007.026-.044.03-.059-.14,0-.066-.078-.007-.007.078-.1.041-.055.115-.126-.735-.026-.118-.192a4.719,4.719,0,0,0,.983-.266c.126-.066.916-.266.8-.717s-1.075-.776-1.5-1.7c-.2-.414.081-1.33,2.136-1.8" transform="translate(-88.7 -152.832)" fill="#819baf"/>
      <path id="Path_2158" data-name="Path 2158" d="M114.642,222.805C102.3,211.5,82.951,204.22,61.185,204.22c-21.611,0-40.843,7.175-53.191,18.341A3.105,3.105,0,0,0,10.31,226.5a109.061,109.061,0,0,1,29.555-8.738,5.087,5.087,0,0,1,2.431-1.836,19.374,19.374,0,0,1,3.2-.916l.236-.052c.03-.007.063-.011.092-.018.259-.037.48-.089.684-.133a6.119,6.119,0,0,1,.972-.163,1.64,1.64,0,0,1,.861.03,1.213,1.213,0,0,1,.913.373.542.542,0,0,1,.059.07c.007-.026.007-.048.015-.074.007-.055.015-.115.026-.177.041-.248.1-.613.118-.746a1.5,1.5,0,0,1,.044-.318,3.887,3.887,0,0,1,.063-.388l.015-.067c.018-.122.059-.281.1-.436.018-.074.037-.148.052-.218a.942.942,0,0,1,.067-.2,1,1,0,0,1,.591-.717,1.182,1.182,0,0,1,.266-.115.923.923,0,0,1,.244-.033,1.214,1.214,0,0,1,.251-.037,1.146,1.146,0,0,1,.406,0h0a.988.988,0,0,1,.233.015.967.967,0,0,1,.639.369,1.006,1.006,0,0,1,.251.406,1.708,1.708,0,0,1,1.071-.373.486.486,0,0,0,.1-.007,4.291,4.291,0,0,1,.872-.107c.07,0,.144-.007.214-.015a1.266,1.266,0,0,1,.126-.026.912.912,0,0,1,.107-.022.287.287,0,0,1,.055-.007,1.137,1.137,0,0,1,.488,0h.055l.078,0a1.1,1.1,0,0,1,.27.011,1.02,1.02,0,0,1,.539.244.865.865,0,0,1,.181.122,6.022,6.022,0,0,1,1.618-.587,1.1,1.1,0,0,1,.159-.022l.07-.015a1.092,1.092,0,0,1,1.326.425.978.978,0,0,1-.166,1.208c-.026.026-.048.052-.074.074a.974.974,0,0,1-.506.732l-.17.092c-.078.041-.129.07-.2.107a5.171,5.171,0,0,0,.406.336,2.35,2.35,0,0,1,.857,1.589c.34,0,.68-.007,1.023-.007q1.774,0,3.529.044v0a1.784,1.784,0,0,1,1.4-1.193l.1-.03a1.2,1.2,0,0,1,.229-.048c.754-.081,1.515-.092,2.25-.1a13.566,13.566,0,0,0,2.941-.248,5.8,5.8,0,0,1,1.131-.129,4.318,4.318,0,0,0,.576-.048,1.222,1.222,0,0,1,1.275.6l.048.048a1.264,1.264,0,0,1,.273.251,1.207,1.207,0,0,1,.24.517,17.249,17.249,0,0,1,3.34-1.079,1.339,1.339,0,0,1,.288-.03c.1-.015.24-.052.373-.081.58-.137,1.556-.373,2.073.5a1.214,1.214,0,0,1-.255,1.544,1.194,1.194,0,0,1-.333.288,1.406,1.406,0,0,1-.255.211,1.039,1.039,0,0,1-.067.207.724.724,0,0,1,.011.089,109.778,109.778,0,0,1,32.385,9.378,4.405,4.405,0,0,0,1.888-4.009" transform="translate(-6.589 -138.725)" fill="#d42027"/>
    </g>
  </g>
</svg>
