<svg xmlns="http://www.w3.org/2000/svg" width="133.291" height="164.644" viewBox="0 0 133.291 164.644">
  <g id="LOGOS-LS-eclaireurs" transform="translate(0)">
    <path id="Path_2090" data-name="Path 2090" d="M145.562,249.859c-15.4-14.113-39.572-23.209-66.748-23.209-26.983,0-51,8.96-66.419,22.9-.363,2.013.087,4.069,2.893,4.916a136.244,136.244,0,0,1,36.906-10.91,6.383,6.383,0,0,1,3.038-2.293,23.731,23.731,0,0,1,4-1.147l.29-.068a.978.978,0,0,1,.116-.019c.324-.048.6-.111.852-.169a7.3,7.3,0,0,1,1.214-.2,2,2,0,0,1,1.074.039,1.477,1.477,0,0,1,1.137.464c.029.029.048.058.073.087.01-.029.01-.063.019-.092.01-.068.019-.14.034-.223.048-.31.121-.764.145-.934a2.118,2.118,0,0,1,.053-.4,3.565,3.565,0,0,1,.082-.484l.015-.082c.024-.15.073-.348.121-.547.024-.092.044-.184.063-.271a1.95,1.95,0,0,1,.822-1.142,1.373,1.373,0,0,1,.329-.14,1.105,1.105,0,0,1,.3-.044,1.173,1.173,0,0,1,.314-.044,1.367,1.367,0,0,1,.508,0h0a1.173,1.173,0,0,1,.29.019,1.207,1.207,0,0,1,.8.464,1.233,1.233,0,0,1,.314.508,2.123,2.123,0,0,1,1.335-.464.531.531,0,0,0,.126-.01,5.444,5.444,0,0,1,1.089-.135l.271-.014a.8.8,0,0,1,.155-.029l.135-.029a.381.381,0,0,1,.068-.01,1.338,1.338,0,0,1,.6,0h.068l.1,0a1.326,1.326,0,0,1,.339.014,1.229,1.229,0,0,1,.673.3,1.845,1.845,0,0,1,.227.15,7.351,7.351,0,0,1,2.022-.735,1.332,1.332,0,0,1,.194-.029l.087-.019a1.365,1.365,0,0,1,1.655.527,1.217,1.217,0,0,1-.208,1.51c-.029.034-.063.063-.092.092a1.214,1.214,0,0,1-.629.914l-.213.116c-.1.053-.16.087-.252.135.121.111.285.252.508.421a2.944,2.944,0,0,1,1.069,1.989c.426,0,.852-.01,1.277-.01q2.213,0,4.4.053v0a2.225,2.225,0,0,1,1.751-1.49l.126-.034a1.4,1.4,0,0,1,.29-.058c.939-.1,1.892-.116,2.806-.131a16.774,16.774,0,0,0,3.672-.31,7.248,7.248,0,0,1,1.413-.164,6.135,6.135,0,0,0,.721-.058,1.526,1.526,0,0,1,1.592.75l.058.058a1.758,1.758,0,0,1,.344.314,1.589,1.589,0,0,1,.3.648,21.486,21.486,0,0,1,4.171-1.345,2.32,2.32,0,0,1,.358-.039c.131-.015.3-.063.469-.1.731-.174,1.945-.464,2.588.619a1.523,1.523,0,0,1-.319,1.93,1.42,1.42,0,0,1-.416.358.618.618,0,0,0-.4.527c0,.039.01.073.015.111A136.955,136.955,0,0,1,143.2,254.867a5.474,5.474,0,0,0,2.366-5.008" transform="translate(-12.286 -121.688)" fill="#04519e"/>
    <path id="Path_2091" data-name="Path 2091" d="M27.213,312.451l.252-.029v.029Zm-2.308,5.356v.537h.058c-.058-.227,0-.339-.058-.537m-.029.76c-.029.058.029.058.082.058a.162.162,0,0,1,.029-.111Zm-.169-6.735h-.029v.111h.029Zm0-.223h-.029v.111h.029Zm0-.314h-.029v.111h.029Zm6.962-2.226.058.029c-.648.14-1.069.45-1.747.566a11.015,11.015,0,0,1-1.437.706,12.284,12.284,0,0,1-3.551.789l-.058.058a7.135,7.135,0,0,0,0,1.326,8.52,8.52,0,0,1,1.863-.058,7.216,7.216,0,0,0-1.887.169c0,.029.029.053.058.082a23.37,23.37,0,0,1,2.792-.058l.648.14c.029.058.082.2.2.14.058.14-.029.31.087.4l.169-.029c0,.029-.111.111,0,.2l.14.058a.461.461,0,0,0-.058.392c.058.169.252-.029.281.082-.082.058-.281.111-.2.252.029.169.281.14.2.339.029.082-.029.169.082.2h.082a.535.535,0,0,0-.058.281c.029.029.058.029.082.058-.058.14-.31.281-.2.45-.029.111-.111.082-.14.169l.227.251-.45.339c.058.058,0,.111-.058.14.14.111.368.058.479.14,0,.082-.111.111-.169.14-.677-.029-1.1.566-1.776.45-.706.053-1.466,0-2.172.053l-.082.058.029.958c1.156.029,2.2.45,3.353.566-1.156-.029-2.168-.508-3.353-.421-.053.029-.029.111-.029.14a11.421,11.421,0,0,1,3.1.706c.227-.082.252.14.339.227,0,.111-.082.227.029.31a.162.162,0,0,0,.111-.029l-.169.169c.082.058.227,0,.252.111.169-.029.169.14.252.228-.169.281.339.223.169.508-.111.169-.339,0-.45.14-.111.058,0,.14-.058.2l.058-.029c-.082.31.227.706-.2.9.111.169-.227.421.082.566.058.14-.111.223-.2.31-.058-.029-.111-.087-.169-.029-.029.058-.082.111-.053.169.082.058.227.14.111.252a.6.6,0,0,1,.252.14c-.392.2-.929,0-1.326.227a7.69,7.69,0,0,1-2.114-.339c-1.21-.169-2.535-.029-3.522-.731l.029-.058c-.029-.252-.368-.339-.368-.59-.2-.029-.058-.281-.281-.31a.213.213,0,0,0-.252.053.219.219,0,0,0-.14-.2c-.111.029-.227,0-.252-.111.029-.058-.029-.111-.082-.14s-.082.029-.111.058l.029.111c-.227-.677,0-1.408-.2-2.139.029-2.284-.082-4.509-.053-6.793,0-.537.169-1.1.227-1.664-.029-.14-.252-.082-.252-.281-.087-.169.14-.169.169-.31.087-.368.029-.818.252-1.127.029-.227-.14-.508.082-.7-.2-.368.45-.537.029-.847.14-.14-.223-.252.029-.4.76-.818,2-.508,2.956-.731a30.893,30.893,0,0,1,4.282-.45v-.053l.169.029a2.042,2.042,0,0,1,.45-.14c.169.058.339-.087.508-.087.029.058-.14.2,0,.252a7.845,7.845,0,0,1,1.8-.169c.058.058.2,0,.252.058a.43.43,0,0,0-.029.368.315.315,0,0,0,.227.082c0,.029-.029.029-.029.087.169.058.392-.058.619,0-.058.169-.14.2-.2.392a.3.3,0,0,0-.029.31c.082.2.281.029.421.058a.353.353,0,0,0,.14.2c-.029.029-.14.14-.111.227.082.029-.029.111.029.169l.14.087-.058.058.111.029c-.029.082-.31.252-.058.368-.058,0-.082.058-.14.087,0,.111.14.14.2.223-.247-.015-.247.324-.416.435" transform="translate(-16.19 -162.518)" fill="#04519e"/>
    <path id="Path_2092" data-name="Path 2092" d="M55.468,317.535c-.029.082.14.058.058.169a2.3,2.3,0,0,1-.508.14c-.058.029-.029.111-.058.169.058.111.169.029.252.058.111-.058.252.058.4,0,.111.227-.169.2-.281.227-.111-.029,0,.082-.111.111.029.082.14,0,.227.053.029.111-.169.2-.053.281.029.252-.31.169-.339.368a.207.207,0,0,0-.2.169c.082.058.2.058.169.169-.169,0-.227.2-.339.252l-.029.029.2.082c-.029.029-.111.082-.14,0-.111.082-.31-.029-.392.058.058.14.169.058.281.14,0,.029-.2.058-.111.2-.111-.029-.339-.082-.421.082-.029.256-.4-.058-.479.2l.111.087a6.941,6.941,0,0,0-1.016.2,4.238,4.238,0,0,1-1.185-.029c-.339-.14-2-.871-2.816-1.3-.421-.31-.847-.59-1.268-.929a7.972,7.972,0,0,1-2.676-4.113c-1.127-2.424.082-7.243.9-8.568a14.7,14.7,0,0,1,5.525-4.877,4.812,4.812,0,0,1,1.974.169c.058.14.169.058.281.14a1.319,1.319,0,0,0,.14.227h.082c-.029.058-.029.111-.082.14.082.169.508.421.619.561a.376.376,0,0,0,.058.339c.14-.058.14.087.227.14-.029.14-.14.339,0,.45l.082.029c-.029.59-.677.648-1.069,1.045-.368.45-.818.871-1.21,1.326a21.711,21.711,0,0,0-2.792,4.2,5.618,5.618,0,0,0-.14,3.832c-.058.281.223.421.2.677a.593.593,0,0,1,.2.4c.677,1.268.731,1.21,1.974,1.693a7.622,7.622,0,0,0,2.453.169,8.115,8.115,0,0,1,2-.252c.029.087-.111.087-.111.169a.662.662,0,0,0-.2.479l.087.082c-.058.029-.058.058-.087.111a4.568,4.568,0,0,0,.871.2l.058.029a11.45,11.45,0,0,0-1.316.218" transform="translate(-28.803 -160.02)" fill="#04519e"/>
    <path id="Path_2093" data-name="Path 2093" d="M79.326,317.853l.058-.029a.09.09,0,0,0-.058.029M80.144,319c.058.029-.281.111-.227.082-.058.029-.169,0-.14.111.14.111-.169.256.053.281-.111,0-.421.169-.508.169,0,.058,0,.082.058.111.058,0,.111-.029.169-.029l.029.111c-.053-.058-.111.029-.111.082-.058.082.058.058.082.082h.082c-.169.082-.392.058-.537.2-.058.252.31.169.339.2-.029,0-.058.058-.111.058a.145.145,0,0,0,.111.053h-.024c-.058.029-.111.029-.14.087a.556.556,0,0,1,.053.479l-.053.169a6.691,6.691,0,0,1-1.268.479l-.169.082c-1.8.227-3.692.59-5.409-.111a2.71,2.71,0,0,1-1.185-.479c-.029-.111.111-.169.2-.252h.14c0-.169-.169-.227-.281-.339.082,0,.169.111.227,0-.029-.14-.2-.227-.227-.368-.029-.111.169-.082.14-.223-.087-.082-.31-.111-.45-.2a1.376,1.376,0,0,1-.368-1.408c-.169-.14-.029-.339-.058-.537-.111-.59.14-1.1.058-1.664.082-.252-.082-.45.058-.677a2.174,2.174,0,0,1,.111-1.185c0-.058.677-4.2.648-4.253a1.629,1.629,0,0,1,.14-.731,8.9,8.9,0,0,1,.252-1.693c.14-.818.4-1.664.566-2.453a4.077,4.077,0,0,0,.227-.818.66.66,0,0,1,.4.169c.111-.14,0-.392.227-.45.058.111.14-.058.169.058a.194.194,0,0,1,.2-.058c.31.31.508-.421.847-.029a.773.773,0,0,1,.59-.169.131.131,0,0,0,.14.111c.14-.252.31.2.479,0,.029.058.058.14.111.169h.14c.029-.058,0-.169.029-.227.082.087.029.281.2.339.058-.029.058-.087.029-.14a.394.394,0,0,1-.058-.169.394.394,0,0,1,.058.169.757.757,0,0,0,.227.2h.082c.082,2.874-1.408,9.72-1.326,12.652.029.029.082,0,.14.029a.53.53,0,0,0-.14.508l.082.053a29.878,29.878,0,0,1,3.551-.082c.029.281.339.058.537.111a.124.124,0,0,0-.111.111c0,.029.029.029.058.058l.029-.029h.082l-.058.029c-.029,0-.053,0-.053.029l.053.082c-.053-.029-.111.058-.111.082,0,.058-.029.111.058.14,0,.029-.31.111-.14.252.14,0,.958-.111,1.127-.111-.082.223-1.214.111-1.156.421a4.177,4.177,0,0,0,1.326.058c-.092.106-.29.053-.29.218" transform="translate(-42.35 -161.577)" fill="#04519e"/>
    <path id="Path_2094" data-name="Path 2094" d="M101.391,324.061c0-.058-.029-.111-.029-.169a.216.216,0,0,1,.053.169Zm-3.353-6.817c.058.2.2.508.4.566a.981.981,0,0,0-.4-.566m-.532-9.105-.029-.053v.058c0,.029.029.058.058.082a.107.107,0,0,1-.029-.087m-.735-1.3.339.789v-.058a2.5,2.5,0,0,0-.339-.731m-.082-.223h-.029l.058.082h.029Zm-.45,8.2v-.14l.111.45c0-.029-.111-.31-.111-.31m-.2-1.355a25.726,25.726,0,0,0,2.027,3.663c-.223-.421-1.858-3.464-2.027-3.663m.111.847.029.252-.058-.227c-.111.339-.958,2.874-.958,3.072,0,.082.111.082.169.082-.339,0-.281.392-.4.59l3.1-.368Zm-3.832,9.41v-.169l.082-.111Zm-.058.2-.14.169c.058-.111.111-.227.169-.339Zm12.826-2.143a.148.148,0,0,0-.082.14c0,.082.029.169.029.227a.174.174,0,0,1-.14.169v.2c0-.14-.2-.227-.31-.256-.058.082,0,.227.029.31h-.082c-.082,0-.14-.111-.227-.169a1.323,1.323,0,0,0,0,.339v.029h-.058c-.029,0,0,.111-.029.169a.185.185,0,0,0-.111.169c0,.111.082.2.082.31v.029l-.227.227c.082.169.2.31.281.479h-.029a2.056,2.056,0,0,0-.45-.648c-.111,0-.082.111-.058.169-.14-.087-.227-.281-.421-.281a.05.05,0,0,0,0,.082c0,.14.2.281.227.45-.082-.029-.111-.14-.227-.14l-.252-.2v-.029c-.058,0-.111-.029-.169-.029-.058.029-.082.082-.082.2a.393.393,0,0,0,.058.169l-.14-.058-.053.029-.14.14a1.565,1.565,0,0,0-.368-.227,19.368,19.368,0,0,1-1.408-1.664c-.281-.392-.537-.789-.818-1.185l-.111.053a10.04,10.04,0,0,0,2.453,3.014h-.14a.107.107,0,0,0-.087.029,12.01,12.01,0,0,1-2.366-2.961,12.984,12.984,0,0,1-2.932.339,9.056,9.056,0,0,1-1.747-.14H94.9c-.082,0-.029.252-.029.31a11.183,11.183,0,0,1-.4,1.693.1.1,0,0,1-.082-.029c-.111,0-.111.169-.111.31v.111a.2.2,0,0,1-.029.111v-.029a.41.41,0,0,0,.029-.2.791.791,0,0,1-.058-.252c-.111-.082-.111-.227-.2-.339a.1.1,0,0,1-.029.058c-.058,0-.082-.082-.111-.082h-.039c-.169.029-.087.281-.252.252-.058.029-.029.169-.14.111l-.082.252-.029-.082-.111.029a.162.162,0,0,1-.029-.111l-.111.058c-.029-.029-.029-.2-.082-.2h-.058c-.111.082-.029.339-.2.339l-.029.029v-.169a.117.117,0,0,0-.111-.111c-.058,0-.029.058-.082.111-.029-.082,0-.14-.082-.14-.058,0-.111-.111-.14-.14l-.111.029c0-.058,0-.111-.058-.14l-.082.058c0-.058-.029-.082-.082-.111l-.058.082c0-.029-.029-.053-.053-.082-.058,0-.111.14-.169.2v.029h-.029c-.082,0-.14-.058-.227-.058-.029,0-.058.029-.082.058-.169,0-.169-.252-.31-.252a1.447,1.447,0,0,1-.252-.9,17.971,17.971,0,0,1,.731-4.229l1.069-4.311c.169-.677.4-1.326.59-1.974a14.659,14.659,0,0,1,.929-3.464c.169,0,.14-.169.281-.2l.053-.421a.062.062,0,0,0,.058.058c.029-.169.14-.281.169-.421a.1.1,0,0,0,.082-.029c.111,0,.111-.14.227-.169,0-.029.029-.14.029-.2v-.029c0,.029,0,.058.029.058H95.1c.111-.2.281,0,.368-.281,0-.029,0-.029.029-.029s.058.029.111.029c.029,0,.029,0,.029-.029.082,0,.227-.029.169-.14l.029-.058c.082.029.111.14.2.14l.058-.029a.141.141,0,0,1-.058-.111c0-.111.169-.169.111-.31H96.2c.029,0,.053-.029.082-.058a5.087,5.087,0,0,1,1.045,1.8l.14-.058a7.051,7.051,0,0,0-.537-1.04l.566.958-.111-.169a.709.709,0,0,0,.169.4v-.058c0-.029-.029-.058-.029-.082l.082.227c.029.029.058.058.058.082l-.058-.14h-.029c-.029.029-.029.053,0,.053a.209.209,0,0,0,.058.14,36.143,36.143,0,0,0,1.3,3.464c-.029.058.058.082.087.14a27.869,27.869,0,0,0,2.647,4.369c.4.537.818,1.045,1.185,1.577,0,.14.169.2.227.31a13.444,13.444,0,0,1,.929,1.664c.227.169.14.508.31.731v.087c0,.339.426.59.566.9a1.636,1.636,0,0,0,.368.7Z" transform="translate(-52.808 -162.575)" fill="#04519e"/>
    <path id="Path_2095" data-name="Path 2095" d="M131.633,321.1a.292.292,0,0,0-.252.227.162.162,0,0,0,.029.111c-.169.082-.479.082-.537.31-1.606.4-3.155.871-4.761,1.21-1.664.339-3.464.4-5.1.706a8.1,8.1,0,0,1-2.027.14.914.914,0,0,0,.281-.082.548.548,0,0,0-.537-.227c.111-.058.082-.2.058-.281-.029-.058.029-.082.029-.14l-.053-.252a12.994,12.994,0,0,1,.029-1.8c0-.087.14-.2.053-.281h-.053a.348.348,0,0,0,.2-.2.741.741,0,0,1-.087-.479,11.592,11.592,0,0,1,2.056-.818c.111-.029.2,0,.281-.082-.45-2.646-.14-5.3-.421-8.031l-.058-.029a2.055,2.055,0,0,1-.31.111c.058,1.127.029,2.342.058,3.493a12.985,12.985,0,0,0,.2,1.524c-.45-.4-.281-2.143-.339-2.646l-.029-.281-.029-.508c.082-.648-.058-.987.058-1.548-.876.256-1.834.31-2.734.537l-.339-.029a.062.062,0,0,0-.053-.058c-.2-.029-.508.14-.619-.082-.082-.087-.2-.14-.281-.227.252-.45-.058-.929,0-1.326a2.168,2.168,0,0,1,.169-1.326c-.029-.169.14-.281.2-.45.082-.508.677-.508,1.04-.7,1.466-.537,3.014-.958,4.48-1.437a18.99,18.99,0,0,1,2.845-.648c.421.2,1.045-.281,1.408.2.2-.029.31.082.45.169l.59-.111a.476.476,0,0,0,.281.252c.082.281,0,.59.281.731.31.058.706.058.847.368.111.561-.59.731-.619,1.239a8.939,8.939,0,0,1-3.043,1.3l-.029.058c.252,1.945.392,3.8.561,5.666-.111.14.029.227,0,.368a15.518,15.518,0,0,0,.252,2.313c.648-.058,1.355-.169,2-.252.111.029.31-.111.421.029l.537-.058a7.905,7.905,0,0,1-.818.111,7.417,7.417,0,0,0-1.635.31c.252.082.537-.058.76-.029.9-.058,1.916-.2,2.874-.2,0,0-.029.029,0,.029.029.082.14.029.227.058.029.111-.082.31.082.339h.169c-.053.082-.082.2.058.227.227-.058.281.14.508.082.029.111.111.227.14.339-.082.058-.227.029-.227.169a.209.209,0,0,0,.058.169v-.029h.082v.029c-.058-.029-.058.029-.082.058,0,.169.14.252.252.392a.21.21,0,0,1,.281.14c0,.111-.111.31.029.45,0,.058-.14.14,0,.227-.14.1-.087.242-.14.464" transform="translate(-65.971 -162.375)" fill="#04519e"/>
    <path id="Path_2096" data-name="Path 2096" d="M159.541,315.661v-.029l.111.058v.029Zm-7.8-11.075c.252.9.45,4.2.7,4.4.2-.053.169-.368.421-.368.508-.619,1.045-1.1,1.606-1.747a.433.433,0,0,0,.223-.368c.59-.847,1.437-1.689,1.016-2.845a10.944,10.944,0,0,0-3.967.929m8.312,13.218.058.227c0,.029-.111-.082-.169-.111-.087.111.111.169.14.281-.14.082-.111-.169-.252-.169-.058.2.14.339.2.479-.053-.029-.082-.082-.111-.082s-.029.029-.058.058c-.029,0-.169-.339-.31-.227.087.14.2.281.281.421a.138.138,0,0,0-.058.2l.029-.029.029.058v.029l-.058-.058a.1.1,0,0,0-.082-.029c-.14.058.029.223.029.252a5.555,5.555,0,0,1-.508-.368.225.225,0,0,0-.058.227l.111.169-.082.029c.029.111.029.2.14.281l-.169-.111.31.45c-.058,0-.281-.31-.4-.111v.2l-.2-.111.169.252-.169-.252a52.517,52.517,0,0,0-5.549-4.708c.619.566,1.268,1.3,1.519,1.466l.227.2.392.31c.508.566.876.619,1.239,1.239-.929-.706-2.845-2.453-3.774-3.213-.058-.029-.169-.082-.31-.14,0,.169.058.4-.029.508.169.082.082.31.058.421a8.9,8.9,0,0,1-.14,3.44c.058.227-.252.2-.223.368-.14.087-.252-.058-.368.111-.111-.029-.111-.111-.169-.169-.111.058-.029.169-.14.227-.082-.053-.111-.227-.252-.14,0,.058.058.082.029.14-.111-.169-.227-.111-.339-.252-.053.058-.053.111-.029.14-.053-.058-.082-.2-.169-.2-.029.029,0,.082.029.111-.14.029-.227.169-.31,0-.029.029-.082.029-.082.058-.058,0-.14-.058-.227,0-.058,0-.082.058-.058.082-.223.053,0-.339-.2-.45-.14-.053-.14-.281-.281-.252-.029.058.053.111.029.169l-.111.029c-.029.029,0,.082,0,.111-.169.029-.14.227-.169.281-.2-.029-.4.2-.508.227-.31-.227-.169-.537-.368-.847l-.14-2.593c-.14-2.337-.14-4.877-.053-7.214.2-.14-.169-.31.082-.45-.029-.2-.169-.421-.029-.566.058-.082-.029-.227-.082-.281.082-.818-.082-1.548-.058-2.337-.111-.082.029-.169.029-.281-.082-.227.029-.537-.029-.76-.252-.223-.45-.45-.677-.648-.087-.252-.479-.252-.4-.508l.2-.14-.053-.058c.053-.029.252.082.252-.087a.248.248,0,0,1-.111-.14c0-.029.058-.058.058-.082l-.029-.029c.111,0,.169-.082.281-.14l-.058-.058a.3.3,0,0,0,.281-.227c-.058-.029-.082-.14,0-.169.31-.087.392-.426.7-.508a17.879,17.879,0,0,1,2.676-1.466.717.717,0,0,0,.508-.227,14.065,14.065,0,0,0,1.519-.421,9.066,9.066,0,0,1,3.972.4,3.7,3.7,0,0,1,2.168,2.734,9.659,9.659,0,0,1,.31,1.5c.029.082.029,4-4.427,7.185-.058,0-.082.058-.14.082v.111c.479.339,2.226,1.8,2.676,2.2.227.252,1.016,1.239,1.268,1.5-.029.058,0,.082.058.14s.111.082.169.14c-.053-.029-.111-.082-.169-.111l-.029-.058a.234.234,0,0,0-.169-.082l.14.252a.034.034,0,0,0-.053,0,1.021,1.021,0,0,0,.479.508c-.058,0-.111-.111-.169-.058.2.281.227.566.426.818.111.339.392.648.392.987l.111.2c-.131-.029-.213-.314-.411-.256" transform="translate(-81.934 -159.332)" fill="#04519e"/>
    <path id="Path_2097" data-name="Path 2097" d="M183.473,312.451l.252-.029v.029Zm-2.313,5.356v.537h.058c-.058-.227,0-.339-.058-.537m-.029.76c-.029.058.029.058.082.058a.162.162,0,0,1,.029-.111Zm-.165-6.735h-.029v.111h.029Zm0-.223h-.029v.111h.029Zm0-.314h-.029v.111h.029Zm6.957-2.226.058.029c-.648.14-1.069.45-1.747.566a11.017,11.017,0,0,1-1.437.706,12.284,12.284,0,0,1-3.551.789l-.058.058a7.134,7.134,0,0,0,0,1.326,8.52,8.52,0,0,1,1.863-.058,7.216,7.216,0,0,0-1.887.169c0,.029.029.053.058.082a23.37,23.37,0,0,1,2.792-.058l.648.14c.029.058.082.2.2.14.058.14-.029.31.087.4l.169-.029c0,.029-.111.111,0,.2l.14.058a.461.461,0,0,0-.053.392c.053.169.252-.029.281.082-.082.058-.281.111-.2.252.029.169.281.14.2.339.029.082-.029.169.082.2h.082a.535.535,0,0,0-.058.281c.029.029.058.029.082.058-.058.14-.31.281-.2.45-.029.111-.111.082-.14.169l.227.251-.45.339c.058.058,0,.111-.058.14.14.111.368.058.479.14,0,.082-.111.111-.169.14-.677-.029-1.1.566-1.776.45-.706.053-1.466,0-2.172.053l-.082.058.029.958c1.156.029,2.2.45,3.353.566-1.156-.029-2.168-.508-3.353-.421-.053.029-.029.111-.029.14a11.421,11.421,0,0,1,3.1.706c.227-.082.252.14.339.227,0,.111-.082.227.029.31a.162.162,0,0,0,.111-.029l-.169.169c.082.058.227,0,.252.111.169-.029.169.14.252.228-.169.281.339.223.169.508-.111.169-.339,0-.45.14-.111.058,0,.14-.058.2l.058-.029c-.082.31.227.706-.2.9.111.169-.227.421.082.566.058.14-.111.223-.2.31-.058-.029-.111-.087-.169-.029-.029.058-.082.111-.053.169.082.058.227.14.111.252a.6.6,0,0,1,.252.14c-.392.2-.929,0-1.326.227a7.69,7.69,0,0,1-2.114-.339c-1.21-.169-2.535-.029-3.522-.731l.029-.058c-.029-.252-.368-.339-.368-.59-.2-.029-.053-.281-.281-.31a.213.213,0,0,0-.252.053.219.219,0,0,0-.14-.2c-.111.029-.227,0-.252-.111.029-.058-.029-.111-.082-.14s-.082.029-.111.058l.029.111c-.227-.677,0-1.408-.2-2.139.029-2.284-.082-4.509-.053-6.793,0-.537.169-1.1.227-1.664-.029-.14-.252-.082-.252-.281-.087-.169.14-.169.169-.31.087-.368.029-.818.252-1.127.029-.227-.14-.508.087-.7-.2-.368.45-.537.029-.847.14-.14-.223-.252.029-.4.76-.818,2-.508,2.956-.731a30.894,30.894,0,0,1,4.282-.45v-.053l.169.029a2.043,2.043,0,0,1,.45-.14c.169.058.339-.087.508-.087.029.058-.14.2,0,.252a7.845,7.845,0,0,1,1.8-.169c.058.058.2,0,.252.058a.43.43,0,0,0-.029.368.315.315,0,0,0,.227.082c0,.029-.029.029-.029.087.169.058.392-.058.619,0-.058.169-.14.2-.2.392a.3.3,0,0,0-.029.31c.082.2.281.029.421.058a.353.353,0,0,0,.14.2c-.029.029-.14.14-.111.227.082.029-.029.111.029.169l.14.087-.058.058.111.029c-.029.082-.31.252-.053.368-.058,0-.082.058-.14.087,0,.111.14.14.2.223-.261-.015-.261.324-.431.435" transform="translate(-96.848 -162.518)" fill="#04519e"/>
    <path id="Path_2098" data-name="Path 2098" d="M216.676,322.007a.109.109,0,0,0-.111.111c-.111,0-.227,0-.31-.223a.218.218,0,0,0-.14.281v.058a.09.09,0,0,0-.029-.058c-.053-.058-.227-.058-.31-.058v.227c0-.227-.111-.227-.227-.339-.111.111,0,.227,0,.339-.111.111-.111.111,0,.111-.111.111-.227,0-.339-.111-.111.111,0,.111,0,.227a.617.617,0,0,0-.566-.339c-.111.111.111.339-.111.339-.111-.227-.223-.111-.45-.339v-.111a.109.109,0,0,0-.111.111v-.111c-.227,0-.111.227-.111.339-.111-.111,0-.339-.227-.339s-.566.339-.789,0h-.111c-.45-.339-.59-.339-.789-.9a2.135,2.135,0,0,1-.227-.9c-.223,0-.223.227-.45.227l-.677.227a8.7,8.7,0,0,1-4.059.227,6.977,6.977,0,0,0-1.35-.566,2.332,2.332,0,0,1-.677-.789,3.494,3.494,0,0,1-1.239-2.143c-.227-1.016,0-1.916-.227-2.816-.111-1.239,0-6.875,0-7.325a20.186,20.186,0,0,1,.9-3.721.448.448,0,0,1,.227.45l.227-.45-.111.45c.227-.339.566-.677.789-1.016.111,0,.227.227.227.339l.111.566c.227-.111.111-.45.45-.45v-.111c.227.111.227,0,.339-.111a1.928,1.928,0,0,1,.789.111l.339-.227a5.939,5.939,0,0,1-.339,3.154c-.45,2.143-.45,9.58,1.239,10.6.876.537,2.056.252,3.043.31a32.87,32.87,0,0,1-.45-4.03c0,.111.421,3.8.45,4.059h.111c-.111-.566-.45-6.536-.45-8.791a32.967,32.967,0,0,1,.45-3.271c.339-.227,0-.566.111-.789v-.227c.223.111.223-.223.45-.2.111-.227.847.169,1.069-.029h.029v.029l-.029-.029a.149.149,0,0,1,.058.111c.227-.111.339-.227.566-.111,0,0,0,.111.111,0a.159.159,0,0,1,0-.228c.227.111.339.339.45.45.227.111.227.339.45.45v.677c.111,2.366.789,11.945,1.127,13.3.111.9,0,.339.111,1.239a2.093,2.093,0,0,1,.227.789,3.119,3.119,0,0,0,.677,1.355v.111Z" transform="translate(-110.722 -161.14)" fill="#04519e"/>
    <path id="Path_2099" data-name="Path 2099" d="M242.181,315.661v-.029l.111.058v.029Zm-7.8-11.075c.252.9.45,4.2.7,4.4.2-.053.169-.368.421-.368.508-.619,1.04-1.1,1.606-1.747a.45.45,0,0,0,.227-.368c.59-.847,1.437-1.689,1.016-2.845a10.946,10.946,0,0,0-3.972.929m8.312,13.218.058.227c0,.029-.111-.082-.169-.111-.087.111.111.169.14.281-.14.082-.111-.169-.252-.169-.058.2.14.339.2.479-.053-.029-.082-.082-.111-.082s-.029.029-.058.058c-.029,0-.169-.339-.31-.227.087.14.2.281.281.421a.138.138,0,0,0-.058.2l.029-.029.029.058v.029l-.058-.058a.1.1,0,0,0-.082-.029c-.14.058.029.223.029.252a5.563,5.563,0,0,1-.508-.368.225.225,0,0,0-.058.227l.111.169-.082.029c.029.111.029.2.14.281l-.169-.111.31.45c-.058,0-.281-.31-.4-.111v.2l-.2-.111.169.252-.169-.252a52.519,52.519,0,0,0-5.549-4.708c.619.566,1.268,1.3,1.524,1.466l.223.2.4.31c.508.566.876.619,1.239,1.239-.929-.706-2.845-2.453-3.774-3.213-.058-.029-.169-.082-.31-.14,0,.169.058.4-.029.508.169.082.082.31.058.421a8.9,8.9,0,0,1-.14,3.44c.053.227-.252.2-.227.368-.14.087-.252-.058-.368.111-.111-.029-.111-.111-.169-.169-.111.058-.029.169-.14.227-.082-.053-.111-.227-.252-.14,0,.058.058.082.029.14-.111-.169-.227-.111-.339-.252-.053.058-.053.111-.029.14-.053-.058-.082-.2-.169-.2-.029.029,0,.082.029.111-.14.029-.227.169-.31,0-.029.029-.082.029-.082.058-.058,0-.14-.058-.227,0-.058,0-.082.058-.058.082-.223.053,0-.339-.2-.45-.14-.053-.14-.281-.281-.252-.029.058.053.111.029.169l-.111.029c-.029.029,0,.082,0,.111-.169.029-.14.227-.169.281-.2-.029-.4.2-.508.227-.31-.227-.169-.537-.368-.847l-.14-2.593c-.14-2.337-.14-4.877-.053-7.214.2-.14-.169-.31.082-.45-.029-.2-.169-.421-.029-.566.058-.082-.029-.227-.082-.281.082-.818-.082-1.548-.058-2.337-.111-.082.029-.169.029-.281-.082-.227.029-.537-.029-.76-.252-.223-.45-.45-.677-.648-.082-.252-.479-.252-.4-.508l.2-.14-.053-.058c.053-.029.252.082.252-.087a.269.269,0,0,1-.111-.14c0-.029.058-.058.058-.082l-.029-.029c.111,0,.169-.082.281-.14l-.058-.058a.3.3,0,0,0,.281-.227c-.058-.029-.082-.14,0-.169.31-.087.392-.426.7-.508a17.876,17.876,0,0,1,2.676-1.466.718.718,0,0,0,.508-.227,14.069,14.069,0,0,0,1.519-.421,9.066,9.066,0,0,1,3.972.4,3.7,3.7,0,0,1,2.168,2.734,9.664,9.664,0,0,1,.31,1.5c.029.082.029,4-4.427,7.185-.058,0-.082.058-.14.082v.111c.479.339,2.226,1.8,2.676,2.2.227.252,1.016,1.239,1.268,1.5-.029.058,0,.082.058.14s.111.082.169.14c-.053-.029-.111-.082-.169-.111l-.029-.058a.234.234,0,0,0-.169-.082l.14.252a.034.034,0,0,0-.053,0,1.021,1.021,0,0,0,.479.508c-.058,0-.111-.111-.169-.058.2.281.227.566.426.818.111.339.392.648.392.987l.111.2c-.131-.029-.213-.314-.411-.256" transform="translate(-124.591 -159.332)" fill="#04519e"/>
    <path id="Path_2100" data-name="Path 2100" d="M264.259,302.014c.556.039,2.1-.556,2.255-.3q-.2.131-.392.261c.121-.044.073.014.14,0-.469.194-.223.276-.648.484-.537.344-1.108.5-1.548.842-.087.126.111.039.194.053.058-.014.155-.058.1.029-.077.063-.15.131-.218.194.663-.029.1.1.818-.014-1.084.692-.755.334-1.713.972,0,.053-.034.126.058.14.943-.266.063.1,1.093-.208a13.544,13.544,0,0,1-1.418.721c.126-.034.252-.073.377-.111a8.194,8.194,0,0,1,1.49-.392c-1.19.639-1.263.711-2.38,1.248-.566.445-1.248.827-1.79,1.224-3.077,2.245,2.617,6.483,3.832,7.393,1.084.813,4.867,5.762-1.626,8.443a32.494,32.494,0,0,1-5.375,1.5,25.481,25.481,0,0,1-2.811.484c-.479.208-.692-.2-1.137-.058a1.96,1.96,0,0,0,.068-.223c.252-.261.435-.537.169-.619.145-.1-.034-.053-.015-.126.015-.01.034-.014.053-.029.107-.14-.223-.029.126-.208.131-.266-.629-.015-.3-.344-.024-.029.353-.44.174-.247.522-.571-3.324-.116-.532-.871a22.029,22.029,0,0,0,4.451-1.2c.556-.3,4.137-1.2,3.619-3.242-.571-2.022-4.862-3.508-6.754-7.673-.929-1.9.339-6.038,9.638-8.128" transform="translate(-136.165 -160.403)" fill="#04519e"/>
    <path id="Path_2101" data-name="Path 2101" d="M98.229,273.9c-.416-.029-1.577.421-1.693.223.1-.068.2-.131.3-.2-.092.029-.058-.01-.106,0,.353-.145.164-.208.489-.363.4-.261.832-.377,1.166-.634.068-.1-.082-.029-.145-.039-.044.01-.116.044-.073-.019s.111-.1.164-.145c-.5.024-.077-.073-.614.01.813-.523.566-.252,1.287-.731,0-.044.024-.1-.044-.106-.711.2-.053-.073-.822.16a10.573,10.573,0,0,1,1.064-.542c-.092.029-.189.058-.285.087a6.379,6.379,0,0,1-1.118.3c.9-.479.953-.532,1.79-.939.426-.334.939-.619,1.345-.919,2.313-1.688-1.969-4.872-2.879-5.559-.813-.61-3.663-4.33,1.224-6.348a24.39,24.39,0,0,1,4.04-1.132,20.64,20.64,0,0,1,2.114-.368c.358-.155.518.15.856.048-.019.053-.034.111-.053.165-.189.2-.324.406-.126.469-.111.073.029.039.01.092-.015,0-.024.014-.039.019-.082.106.169.019-.092.155-.1.2.474.01.223.256.019.019-.266.329-.135.189-.392.426,2.5.087.4.653a16.211,16.211,0,0,0-3.348.91c-.416.223-3.106.9-2.724,2.438.431,1.519,3.658,2.637,5.075,5.767.692,1.427-.261,4.533-7.248,6.106" transform="translate(-55.747 -137.141)" fill="#819baf"/>
    <path id="Path_2102" data-name="Path 2102" d="M185.186,256.527c.435.029,1.65-.435,1.771-.232-.106.068-.208.135-.3.208.1-.034.058.01.111,0-.368.15-.174.218-.508.377-.421.271-.871.392-1.214.663-.068.1.087.034.15.044.044-.01.121-.044.077.019s-.116.1-.169.155c.523-.024.082.077.643-.015-.852.542-.6.261-1.35.76,0,.044-.024.1.044.106.74-.208.053.077.856-.164a10.534,10.534,0,0,1-1.113.566l.3-.087a5.815,5.815,0,0,1,1.171-.3c-.934.5-.992.556-1.868.982-.445.348-.977.648-1.408.958-2.414,1.761,2.056,5.09,3,5.8.852.639,3.822,4.524-1.277,6.628a25.955,25.955,0,0,1-4.219,1.181,21.558,21.558,0,0,1-2.206.382c-.377.164-.542-.155-.89-.048.019-.058.039-.116.053-.174.2-.208.339-.421.135-.489.116-.077-.029-.044-.01-.1a.275.275,0,0,0,.039-.024c.082-.106-.179-.019.1-.164.1-.208-.494-.01-.232-.271-.019-.024.276-.344.14-.194.411-.445-2.608-.092-.421-.682a17.093,17.093,0,0,0,3.493-.948c.435-.232,3.246-.939,2.84-2.545-.45-1.587-3.817-2.753-5.3-6.024-.721-1.481.276-4.727,7.572-6.367" transform="translate(-96.678 -136.964)" fill="#819baf"/>
    <path id="Path_2103" data-name="Path 2103" d="M124.5,274.078c-.019.058.1.039.039.116a1.935,1.935,0,0,1-.358.1c-.039.019-.019.077-.039.116.039.077.121.019.179.039.082-.039.179.039.276,0,.082.15-.121.135-.2.15-.082-.019,0,.058-.082.077.019.058.1,0,.16.039.019.077-.121.135-.039.193.019.174-.218.116-.237.247a.146.146,0,0,0-.14.116c.058.039.14.039.121.116-.121,0-.16.135-.237.174l-.019.019.14.058c-.019.019-.077.058-.1,0-.077.058-.218-.019-.276.039.039.1.121.039.2.1,0,.019-.14.039-.082.135-.077-.019-.237-.058-.3.058-.019.174-.281-.039-.339.131l.082.058a5.149,5.149,0,0,0-.716.135,3.032,3.032,0,0,1-.837-.019c-.242-.092-1.413-.6-1.988-.881-.3-.213-.6-.4-.9-.634a5.435,5.435,0,0,1-1.892-2.806c-.793-1.655.058-4.94.639-5.845a10.252,10.252,0,0,1,3.9-3.324,3.47,3.47,0,0,1,1.393.116c.039.1.121.039.2.1.039.058.039.1.1.155h.058c-.019.039-.019.077-.058.1.058.116.358.285.435.382a.264.264,0,0,0,.039.232c.1-.039.1.058.16.1-.019.1-.1.232,0,.3l.058.019c-.019.406-.479.445-.755.711-.261.31-.576.6-.856.9a14.585,14.585,0,0,0-1.969,2.864,3.717,3.717,0,0,0-.1,2.613c-.039.193.16.285.14.46a.413.413,0,0,1,.14.271c.479.866.518.827,1.393,1.151a5.485,5.485,0,0,0,1.732.116,5.876,5.876,0,0,1,1.413-.174c.019.058-.077.058-.077.116a.44.44,0,0,0-.14.329l.058.058c-.039.019-.039.039-.058.077a3.147,3.147,0,0,0,.614.135l.039.019a8.493,8.493,0,0,0-.919.145" transform="translate(-66.133 -140.319)" fill="#819baf"/>
    <path id="Path_2104" data-name="Path 2104" d="M134.926,267.566H134.9c-.16-.218-.348-.406-.493-.639-.044-.029-.015-.131-.073-.087-.2-.16-.344-.387-.566-.493a8.882,8.882,0,0,0-2.129,2.942h-.015c.015.116-.087.189-.073.319a.7.7,0,0,0,.218.479,3.234,3.234,0,0,0,1.476.813,3.824,3.824,0,0,0,1.461-1.016,2.135,2.135,0,0,0,.319-1.882c-.01-.16-.111-.29-.1-.435m2.448,1.693c.087.174-.015.435,0,.653-.073.189-.044.392-.131.537a3.063,3.063,0,0,1-.493,1.229,2.024,2.024,0,0,1-.464.7,4.483,4.483,0,0,1-.566.479H135.7c-.131.073-.247.247-.421.247-.392.1-.7.668-1.171.682-.029-.073-.073-.015-.131-.015s-.058-.131-.16-.1c.015-.072-.073-.058-.1-.1-.116,0-.2.1-.348.029-.247-.044-.421.145-.624.232.073-.073.2-.116.276-.2-.218,0-.421.189-.624.16.014-.1-.16-.218-.015-.319-.116-.073-.261.073-.363.058.073-.044-.015-.1,0-.16,0-.2.2-.334.145-.537.044-.029.029-.073.029-.1a.624.624,0,0,1-.232,0c-.029-.073.058-.131.087-.189a1.355,1.355,0,0,0-.348.029c0-.247.319-.421.392-.639a.965.965,0,0,0-.639.087,2.807,2.807,0,0,1-.856-.174c-.029.058-.087.015-.116.029-.073-.044-.174-.145-.261-.145a.315.315,0,0,0-.218-.189c.058-.116-.1-.1-.116-.189a3.035,3.035,0,0,1-.232-.319c.029-.131-.116-.189-.131-.3a3.6,3.6,0,0,1-.073-.968l-.044-.029a4.906,4.906,0,0,1,1.321-3.072,5.2,5.2,0,0,0-1.263,2.782l.014.015A5.178,5.178,0,0,1,130.639,267a6.563,6.563,0,0,1,.871-.968,2.045,2.045,0,0,1,.247-.261c.2-.2.7-.711.8-.822-.058-.087.015-.232-.073-.3.015-.029.073.058.1-.014-.058-.131.116-.232-.044-.348a.124.124,0,0,0,.174-.073c-.044-.073.058-.044.015-.087.044-.1.1-.218.2-.218-.014-.116.16,0,.116-.116.014,0,.029,0,.044.029.044-.029,0-.058,0-.073.044-.044.131.015.145-.058a.993.993,0,0,1,.508.087l.058-.014c0,.014.029.029.044.029l.073-.015v.015h.116l-.087.029c.2.1.406.2.6.3h.116c-.015.029.029.058.058.073a.14.14,0,0,1,.189.116,5.719,5.719,0,0,1,1.06.885c-.029.116.1.029.073.131a6.184,6.184,0,0,1,.982,1.737c-.044.116.058.131.073.218a10.894,10.894,0,0,1,.319,1.839c-.053.039-.024.082-.039.14" transform="translate(-72.743 -140.804)" fill="#819baf"/>
    <path id="Path_2105" data-name="Path 2105" d="M156.909,276.657c-.073,0-.073.077-.073.077-.073,0-.15,0-.208-.15a.147.147,0,0,0-.092.189v.039a.06.06,0,0,0-.019-.039c-.039-.039-.15-.039-.208-.039v.15c0-.15-.073-.15-.15-.223-.077.077,0,.15,0,.223-.077.077-.077.077,0,.077-.077.073-.15,0-.223-.077-.073.077,0,.077,0,.15a.4.4,0,0,0-.373-.223c-.073.073.077.223-.073.223-.073-.15-.15-.073-.3-.223v-.073a.071.071,0,0,0-.073.073v-.073c-.15,0-.073.15-.073.223-.073-.077,0-.223-.15-.223s-.373.223-.523,0H154.3c-.3-.223-.392-.223-.523-.6a1.424,1.424,0,0,1-.15-.6c-.15,0-.15.15-.3.15l-.445.15a5.8,5.8,0,0,1-2.685.15,4.393,4.393,0,0,0-.9-.373,1.42,1.42,0,0,1-.445-.523,2.313,2.313,0,0,1-.822-1.418c-.15-.672,0-1.268-.15-1.863-.073-.823,0-4.548,0-4.848a13.56,13.56,0,0,1,.6-2.463.3.3,0,0,1,.15.3l.15-.3-.073.3c.15-.223.373-.45.523-.673.077,0,.15.15.15.223l.073.373c.15-.073.073-.3.3-.3v-.077c.15.077.15,0,.223-.073a1.3,1.3,0,0,1,.523.073l.223-.15a3.786,3.786,0,0,1-.242,2.09c-.3,1.418-.281,6.338.837,7.006a4.32,4.32,0,0,0,2.013.208,22.636,22.636,0,0,1-.3-2.666c0,.073.281,2.516.3,2.685h.077c-.077-.373-.3-4.325-.3-5.815.077-.745.15-1.418.3-2.163.223-.15,0-.373.073-.523v-.15c.15.073.15-.15.3-.131.073-.15.556.111.706-.019h.019v.019l-.019-.019a.1.1,0,0,1,.039.073c.15-.073.223-.15.373-.073,0,0,0,.073.077,0a.1.1,0,0,1,0-.15c.15.073.223.223.3.3.15.073.15.223.3.3v.445c.077,1.568.523,7.906.745,8.8.073.6,0,.223.073.823a1.425,1.425,0,0,1,.15.523,2.083,2.083,0,0,0,.445.9v.077Z" transform="translate(-82.263 -141.04)" fill="#819baf"/>
    <path id="Path_2106" data-name="Path 2106" d="M169.929,259.034v-.019l.121-.019v.019Zm-1.771,11.055v.058c.044-.019.063-.058,0-.058m-.058-10.678c.058.019.1-.019.16-.039-.058,0-.14,0-.16.039m2.748-2.366c.14.039-.058.377.2.319-.019.039-.058.082-.039.14.121.16-.135.218-.218.339,0,.058.039.121.019.179a3.361,3.361,0,0,1-.837.435l.058.019c-.179.14-.46.179-.619.4a1.244,1.244,0,0,1-.537.16c-.16.082-.377.082-.537.179-.019.019.019.039.039.039l.14-.019v.019c.2-.019,1.074-.179,1.292-.2a9.822,9.822,0,0,0-1.572.377l1.374-.256c-.377.1-1.432.319-1.809.377.1.677.276,1.393.339,2.11a5.523,5.523,0,0,0,.1,1.137l.019,2.327c.121.716.276,3.28.319,4.054.058.039.039.1.019.179,0,.019,0,.019-.019.019v0l.019-.019a.06.06,0,0,0-.039-.019c-.135.14-.019.4-.16.518a.335.335,0,0,1-.14.3l-.16.058c0-.019.019-.058-.019-.082h-.039c-.1.1-.019.339-.218.358l-.1.16V270.6a.146.146,0,0,1-.16-.082c-.16.082-.019.479-.261.377-.019-.058-.058-.058-.1-.121-.058,0-.058.058-.1.1l-.058-.058-.044.019c.044.019.019.039.019.058l-.1.019v.058c-.058-.058-.121-.019-.2-.039.063.2-.179.121-.16.3-.019.019-.058.039-.077.019-.1.039-.121.7-.14.813a1.574,1.574,0,0,1-.237-.735c-.019-.121-.179,0-.16-.121-.063-.14-.242.019-.242-.16-.039-.058-.1,0-.16,0-.019.2-.218,0-.276.16a11.912,11.912,0,0,1-.4-1.214l-.1-6.561c-.058-.339-.218-.658-.276-.992.019-.039.082,0,.1-.039a.508.508,0,0,0-.058-.276c-.082.058.039.121-.058.14v.082c-.039-.082-.121-.237.058-.261l-.2-.619a.11.11,0,0,0,.058-.14.507.507,0,0,1-.121-.276l-.082-1.272c-.039-.019-.058-.058-.077,0,.039.319.019.755.077,1.093a5.908,5.908,0,0,0,.1.793h.044l.019.358a3.746,3.746,0,0,1-.179-.934l-.039-.039c-.058-.479-.039-.837-.116-1.292a8.783,8.783,0,0,0-1.669-.237,11.564,11.564,0,0,0-2.288-.237l-.019-.039c.077-.019.218,0,.261-.121-.063-.082.039-.121.058-.179l-.019-.319A5.914,5.914,0,0,0,160.7,258c.058-.019.121,0,.14-.077a.345.345,0,0,0-.082-.116c.019-.039.019-.218.16-.16l.039-.058-.039-.044h-.039c.121-.058.14-.1.223-.218l-.019-.019c.1-.019.276-.039.242-.14-.1-.077-.242-.039-.358-.039.077-.3.537-.358.856-.455,2.206-.237,4.6.039,6.682-.479.677-.16,1.355-.082,2.027-.2-.039.039,0,.1.019.14a.317.317,0,0,0-.1.058c0,.039,0,.077.039.077h.16c.019,0-.019.044.019.082a.255.255,0,0,1,.121-.019c-.121.14.1.179.14.237h.14c-.044.169-.435.208-.218.469" transform="translate(-88.553 -136.838)" fill="#819baf"/>
    <path id="Path_2107" data-name="Path 2107" d="M124.328,252.7l.019-.01a.03.03,0,0,0-.019.01m.266.377c.019.01-.092.039-.073.029-.019.01-.053,0-.044.039.044.039-.053.082.019.092-.039,0-.14.053-.164.053,0,.019,0,.029.019.039s.039-.01.053-.01l.01.039c-.019-.019-.039.01-.039.029-.019.029.019.019.029.029h.029c-.053.029-.126.019-.174.068-.019.082.1.053.111.063-.01,0-.019.019-.039.019a.05.05,0,0,0,.039.019h-.01c-.019.01-.039.01-.048.029a.188.188,0,0,1,.019.155l-.019.053a2.159,2.159,0,0,1-.416.155l-.053.029a3.517,3.517,0,0,1-1.766-.034.848.848,0,0,1-.387-.16c-.01-.039.039-.053.063-.082h.044c0-.053-.053-.073-.092-.111.029,0,.058.039.073,0-.01-.044-.063-.073-.073-.121s.058-.029.048-.073c-.029-.029-.1-.039-.145-.063a.463.463,0,0,1-.121-.46c-.053-.044-.01-.111-.019-.174-.039-.194.044-.358.019-.542.029-.082-.029-.15.019-.223a.669.669,0,0,1,.039-.387c0-.019.223-1.369.213-1.389a.6.6,0,0,1,.044-.242,3.1,3.1,0,0,1,.082-.552c.044-.266.126-.542.184-.8a1.2,1.2,0,0,0,.073-.266c.044.01.1.014.126.053.039-.044,0-.126.073-.15.019.039.044-.015.053.019.019-.019.048-.029.063-.019.1.1.164-.135.276-.01a.236.236,0,0,1,.194-.053.043.043,0,0,0,.044.039c.044-.082.1.063.155,0,.01.019.019.048.039.053h.048c.01-.019,0-.053.01-.073.029.029.01.092.063.111.019-.01.019-.029.01-.048a.137.137,0,0,1-.019-.058.137.137,0,0,1,.019.058.219.219,0,0,0,.073.063h.029c.029.939-.46,3.174-.431,4.127.01.01.029,0,.044.01a.178.178,0,0,0-.044.165l.029.019a10.2,10.2,0,0,1,1.156-.029c.01.092.111.019.174.039a.037.037,0,0,0-.034.039c0,.01.01.01.019.019l.01-.01h.029l-.019.01c-.01,0-.019,0-.019.01l.019.029c-.019-.01-.034.019-.034.029s-.01.039.019.044c0,.01-.1.039-.048.082.048,0,.314-.039.368-.039-.029.073-.4.039-.377.135a1.279,1.279,0,0,0,.431.019c-.029.029-.092.01-.092.068" transform="translate(-68.638 -132.79)" fill="#819baf"/>
    <path id="Path_2108" data-name="Path 2108" d="M131.448,250.911l.082-.01v.01Zm-.75,1.747v.174h.019c-.019-.068,0-.106-.019-.174m-.01.252c-.01.019.01.019.029.019a.058.058,0,0,1,.01-.039Zm-.058-2.2h-.01v.039h.01Zm0-.073h-.01v.039h.01Zm0-.1h-.01v.039h.01Zm2.274-.726.019.01c-.213.044-.348.145-.571.184a4.231,4.231,0,0,1-.469.232,3.98,3.98,0,0,1-1.156.256l-.019.019a2.134,2.134,0,0,0,0,.431,2.514,2.514,0,0,1,.6-.019,2.437,2.437,0,0,0-.614.053c0,.01.01.019.019.029a7.163,7.163,0,0,1,.91-.019l.213.044c.01.019.029.068.063.044.019.044-.01.1.029.131l.053-.01c0,.01-.034.034,0,.063l.048.019a.141.141,0,0,0-.019.126c.019.058.082-.01.092.029-.029.019-.092.039-.063.082.01.053.092.048.063.111.01.029-.01.053.029.063h.029c-.01.029-.029.063-.019.092.01.01.019.01.029.019-.019.044-.1.092-.063.145-.01.039-.039.029-.048.053l.073.082-.15.111c.019.019,0,.039-.019.048.044.039.121.019.155.048,0,.024-.034.034-.053.043-.223-.01-.358.184-.581.145-.232.019-.479,0-.706.019l-.029.019.01.314c.377.01.716.145,1.093.184a10.392,10.392,0,0,0-1.093-.135c-.019.01-.01.039-.01.044a3.618,3.618,0,0,1,1.011.232c.073-.029.082.044.111.073,0,.039-.029.073.01.1a.058.058,0,0,0,.039-.01l-.053.053c.029.019.073,0,.082.039.053-.01.053.043.082.073-.053.092.111.073.058.165-.039.053-.111,0-.15.048-.039.019,0,.044-.019.063l.019-.01c-.029.1.073.227-.063.29.039.053-.073.135.029.184.019.044-.034.073-.063.1-.019-.01-.034-.029-.053-.01s-.029.034-.019.053c.029.019.073.044.039.082a.227.227,0,0,1,.082.044c-.126.068-.3,0-.431.073a2.376,2.376,0,0,1-.687-.111,2.52,2.52,0,0,1-1.152-.237l.01-.019c-.01-.082-.121-.111-.121-.194-.063-.01-.019-.092-.092-.1a.067.067,0,0,0-.082.019.069.069,0,0,0-.044-.063c-.039.01-.073,0-.082-.039.01-.019-.01-.039-.029-.048s-.029.01-.039.019l.01.039c-.073-.223,0-.46-.063-.7.01-.745-.029-1.471-.019-2.216,0-.174.058-.358.073-.542-.01-.048-.082-.029-.082-.092-.029-.053.044-.053.053-.1.029-.121.01-.266.082-.368.01-.073-.048-.165.029-.227-.063-.121.145-.174.01-.276.044-.048-.073-.082.01-.126.247-.266.653-.165.968-.242a9.645,9.645,0,0,1,1.4-.145v-.019l.053.01a.732.732,0,0,1,.145-.048c.053.019.111-.029.165-.029.01.019-.048.063,0,.082a2.436,2.436,0,0,1,.59-.053c.019.019.063,0,.082.019a.133.133,0,0,0-.01.121.1.1,0,0,0,.073.029c0,.01-.01.01-.01.029.053.019.131-.019.2,0a1.111,1.111,0,0,0-.063.131.1.1,0,0,0-.01.1c.029.063.092.01.14.019a.117.117,0,0,0,.048.063c-.01.01-.048.044-.039.073.029.01-.01.039.01.053l.044.029-.019.019.034.01c-.01.029-.1.082-.019.121-.019,0-.029.019-.044.029,0,.039.044.044.063.073-.092,0-.092.116-.145.15" transform="translate(-72.56 -133.075)" fill="#819baf"/>
    <path id="Path_2109" data-name="Path 2109" d="M139.79,248.092c.155.01.581-.155.624-.082-.039.024-.073.048-.106.073.034-.01.019,0,.039,0-.131.053-.063.077-.179.135-.15.1-.3.14-.431.237-.024.034.029.01.053.015s.044-.015.029.01a.332.332,0,0,1-.063.053c.184-.01.029.024.227,0-.3.194-.208.092-.474.271,0,.014-.01.034.015.039.261-.073.019.029.3-.058a3.742,3.742,0,0,1-.392.2l.106-.029a2.263,2.263,0,0,1,.411-.111c-.329.179-.348.194-.658.344-.16.121-.343.227-.494.339-.851.619.726,1.79,1.06,2.042a1.294,1.294,0,0,1-.45,2.332,9.471,9.471,0,0,1-1.485.416c-.324.044-.527.131-.774.135-.131.058-.194-.053-.314-.019a.239.239,0,0,0,.019-.063c.068-.073.121-.145.048-.169.039-.029-.01-.015,0-.034,0,0,.01,0,.015-.01.029-.039-.063,0,.034-.058.034-.073-.174,0-.082-.1-.01-.01.1-.121.048-.068.145-.16-.919-.034-.145-.242a6.34,6.34,0,0,0,1.229-.334c.155-.082,1.142-.329,1-.9-.16-.561-1.345-.968-1.868-2.124-.256-.518.092-1.659,2.661-2.24" transform="translate(-76.393 -132.704)" fill="#819baf"/>
    <path id="Path_2110" data-name="Path 2110" d="M132.107,103.8a1.3,1.3,0,0,0-1.722-.547l-1.437.721c.382-1,1.432-2.555,1.524-2.951a38.374,38.374,0,0,0,1.127-4.427c.513-5.278,4.238-11.113,4.238-11.113a.965.965,0,0,0-.939-1.408l-3.338.281a20.445,20.445,0,0,0-6.8,2.651c.358-1.2,1.935-4.591,2.69-6.241,3.764-8.162,2.68-11.447.3-17.568-2.056-5.278-9.318-15.163-16.411-18.593,0,0-.513.813.213,5.641-3.377-3.634-1.239-13.058-.261-14.858l2.632-6.474a1.519,1.519,0,0,0-2.2-1.868l-2.53,1.543a11.183,11.183,0,0,0-1.66,1.234l-3.019,2.709a16.4,16.4,0,0,0-2.443,2.734c-2.192,3.082-6.295,9.638-6.749,15.352-.339,4.243,1.122,8.689,1.742,11.171-2.777-2.138-7.282-1.239-10.378.943a15.934,15.934,0,0,0-4.079,4.683,1.115,1.115,0,0,0,.977,1.689l4.374.373c2.085.31,2.99,1.035,3.377,2.351.377,1.277-.276,2.642-1.558,3.764a28.324,28.324,0,0,0-6.053,8.757L81.973,78.32s-10.218,7.949-4.446,24.748l-3.484-1.161a3.06,3.06,0,0,0-1.78-.058A13.812,13.812,0,0,0,62.838,115.2a3.175,3.175,0,0,0,.348,1.393l.111.223a4.387,4.387,0,0,0,2.337,2.1l.189.073c.126.048,3.179.764,6.706,1.563-.2,1.577-.4,3.193,0,4.059l.208.406a3.1,3.1,0,0,0,1.035,1.156l1.2.8a3.14,3.14,0,0,0,1.122.464l5.182,1.021a2.906,2.906,0,0,0,.46.053l3.59.165a3.1,3.1,0,0,0,2.748-1.413l1.229-1.892,1.553,3.759,1.959.256a28.446,28.446,0,0,0,3.527.218,16.7,16.7,0,0,0,7.165-1.35l1.161-.581,1.2-3c4.4,1.4,8.718,2.826,8.8,2.85l2.526.813a56.465,56.465,0,0,0,8.67-2.342l.639-.281a2.346,2.346,0,0,0,1.408-2.153v-.131l8.941-3.45a3.106,3.106,0,0,0,1.5-1.219h0a3.1,3.1,0,0,0,.121-3.15Z" transform="translate(-38.379 -18.537)" fill="#25274e"/>
    <path id="Path_2111" data-name="Path 2111" d="M122.724,38.04c-.987-.039-3.334,2.395-4.059,6.454s1.451,11.413,2.477,12.483l.5.523a1.173,1.173,0,0,0,1.93-.373,43.456,43.456,0,0,0,2.656-9.725c.856-5.772-2.351-9.318-3.5-9.362" transform="translate(-67.122 -24.331)" fill="#25274e"/>
    <path id="Path_2112" data-name="Path 2112" d="M179.259,21.437c-2.347-.106-4.233,2.521-5.041,4.49a14.994,14.994,0,0,0-.643,5.216A7.138,7.138,0,0,0,179.9,29.2c2.9-2.811,3.116-7.6-.643-7.765" transform="translate(-95.532 -15.76)" fill="#25274e"/>
    <path id="Path_2113" data-name="Path 2113" d="M136.122,9.994c-2.109-1.422-4.969,2.772-5.177,5.38s.261,5,3.595,3.164,3.551-7.219,1.582-8.544" transform="translate(-73.514 -9.707)" fill="#25274e"/>
    <path id="Path_2114" data-name="Path 2114" d="M98.793,94.784s-3.88,3.943-2.864,11.462a21.815,21.815,0,0,0,6.057,12.415s12.71,7.693,24.622,6.043a21.755,21.755,0,0,0,18.008-15.332c.91-3.987.344-8.607,2.85-11.684-3.421-.74-8.036,6.043-8.036,6.043s-3.3-3.648,1.6-13.678-.058-20.059-10.659-30.089c0,0,.74,3.3.169,5.245-5.187-3.363-11.23-10.886-5.927-20.688l-.968.455s-7.407,8.607-7.92,15.047a26.228,26.228,0,0,0,1.882,12.71,13.735,13.735,0,0,1,.74,5.3l-.682-.116s-3.077-8.718-12.2-3.135c7.693,1.142,8.718,8.375,4.1,12.425s-8.094,9.289-8.433,12.308a7.2,7.2,0,0,1-2.342-4.727" transform="translate(-55.373 -27.677)" fill="#e56027"/>
    <path id="Path_2115" data-name="Path 2115" d="M110.38,166.307s-3.59-3.759-3.334-8.718a7.145,7.145,0,0,0,4.959,3.246A12.178,12.178,0,0,1,114.826,151c3.977-4.829,10.47-10.044,11.883-14.1,2.221,5.685-.256,12.952-.256,12.952a15.712,15.712,0,0,1,6.541-3.764,6.436,6.436,0,0,0-.344,5.216s7.78,7.1,5.472,15-23.635,2.821-27.742,0" transform="translate(-61.192 -75.361)" fill="#f3b243"/>
    <path id="Path_2116" data-name="Path 2116" d="M134.034,224.141s-1.2-3.933-4.277-3.992-5.467,3.992-5.467,3.992l.682,1.655s5.641.74,8.718-.8Z" transform="translate(-70.1 -118.332)" fill="#624f6c"/>
    <path id="Path_2117" data-name="Path 2117" d="M146.636,44.52l-.968.455s-5.288,6.14-7.238,11.931a30.318,30.318,0,0,0,2.221,9.7c1.345-6.27,3.595-9.41,4.572-10.533a14.357,14.357,0,0,1,1.413-11.549" transform="translate(-77.399 -27.677)" fill="#ca2127"/>
    <path id="Path_2118" data-name="Path 2118" d="M124.249,56.983s2.734-4.829,2.008-7.736-1.582-4.587-2.008-4.732-2.395,2.719-2.177,5.327,1.364,7.054,2.177,7.141" transform="translate(-68.947 -27.671)" fill="#f2b03f"/>
    <path id="Path_2119" data-name="Path 2119" d="M181.744,25.752c-.924-.924-3.421,2.008-3.721,3.59s.513,2.221,1.858,1.326,3.571-3.208,1.863-4.916" transform="translate(-97.804 -17.898)" fill="#e56027"/>
    <path id="Path_2120" data-name="Path 2120" d="M136.212,15.545c-.513-.953-2.438.469-2.564,2.351s.9,2.221.9,2.221,3.633-.939,1.669-4.572" transform="translate(-74.924 -12.563)" fill="#f2b03f"/>
    <path id="Path_2121" data-name="Path 2121" d="M79.823,181.463s-7.122.571-8.893,9.347l.285,1.369a50.514,50.514,0,0,0,9.633,2.337,4.5,4.5,0,0,0-1.369,4.959l1.369.91,7.978.8,2.395-.91,4.161-5.356a39.68,39.68,0,0,1,6.725.856c3.135.74,17.669,4.843,17.669,4.843l2.279.116a28.907,28.907,0,0,0,6.609-1.48v-1.708l8.835-3.706,1.084-1.253-3.706-9.517-1.713-.285-20,6.328s-6.556-1.655-11.229-2.68c3.706-4.959,6.817-9.062,6.817-9.062a3.054,3.054,0,0,0-4-2.453l-11.941,9.744Z" transform="translate(-42.557 -94.92)" fill="#624f6c"/>
    <path id="Path_2122" data-name="Path 2122" d="M164.818,187.731s-6.841-10.131-7.838-10.6c-1.568.5-1.655,1.011-1.655,1.011l-1.185,2.337a18.892,18.892,0,0,1,1.955,3.89,27.019,27.019,0,0,0,2.366,5.37c.542.769,6.357-2.008,6.357-2.008" transform="translate(-85.508 -96.127)" fill="#d04a32"/>
    <path id="Path_2123" data-name="Path 2123" d="M134.59,181.032c1.674-2.226,2.782-3.682,2.782-3.682a3.054,3.054,0,0,0-4-2.453l-7.006,5.719a11.964,11.964,0,0,1,8.22.416" transform="translate(-71.174 -94.91)" fill="#d04a32"/>
    <path id="Path_2124" data-name="Path 2124" d="M141.2,179.206l.058-.726H139.73l-1.04.939a3.808,3.808,0,0,1,3.329,2.1c.527-.7.953-1.263,1.248-1.65a1.908,1.908,0,0,0-2.071-.663" transform="translate(-77.533 -96.824)" fill="#7c745e"/>
    <path id="Path_2125" data-name="Path 2125" d="M89.943,209.056a73.391,73.391,0,0,1,6.769-6.1l-.348.015c-3.309,2.143-7.814,5.854-7.814,5.854a3.9,3.9,0,0,0,1.393.227" transform="translate(-51.652 -109.46)" fill="#e56027"/>
    <path id="Path_2126" data-name="Path 2126" d="M172.1,209.532a2.263,2.263,0,0,0,0-1.311,2.569,2.569,0,0,0-1.824-1.921c-1.437-.527-10.828-2.83-10.828-2.83l-1.224.435s6.1,1.326,8.931,1.979,3.774.939,4.059,1.384a4.007,4.007,0,0,1,.885,2.264" transform="translate(-87.614 -109.723)" fill="#e56027"/>
    <path id="Path_2127" data-name="Path 2127" d="M121.46,211.058l4.122-4.988v.745s-2.453,3.353-3.246,4.287Z" transform="translate(-68.639 -111.065)" fill="#e56027"/>
  </g>
</svg>
